<svg width="28" height="28" viewBox="0 0 28 28" fill="none" xmlns="http://www.w3.org/2000/svg">
<g clip-path="url(#clip0_1286_9533)">
<path d="M14.0035 0H13.9965C6.27725 0 0 6.279 0 14C0 17.0625 0.987 19.901 2.66525 22.2057L0.9205 27.4067L6.30175 25.6865C8.5155 27.153 11.1562 28 14.0035 28C21.7227 28 28 21.7192 28 14C28 6.28075 21.7227 0 14.0035 0Z" fill="#4CAF50"/>
<path d="M21.714 19.1234C21.3881 19.9884 20.0945 20.7059 19.0626 20.9154C18.3567 21.0567 17.4347 21.1694 14.3307 19.9599C10.3604 18.4139 7.80361 14.622 7.60433 14.3759C7.4135 14.1299 6 12.3681 6 10.5459C6 8.72375 6.98455 7.83648 7.38141 7.45554C7.70735 7.14285 8.24607 7 8.76283 7C8.93002 7 9.08032 7.00794 9.21542 7.01429C9.61228 7.03016 9.81156 7.05238 10.0733 7.64125C10.3992 8.37932 11.193 10.2015 11.2875 10.3888C11.3838 10.5761 11.4801 10.83 11.345 11.0761C11.2183 11.33 11.1068 11.4427 10.9076 11.6586C10.7083 11.8744 10.5192 12.0395 10.3199 12.2712C10.1375 12.4728 9.93146 12.6887 10.1611 13.0617C10.3908 13.4268 11.1845 14.6442 12.3532 15.6219C13.8612 16.8838 15.0839 17.287 15.5213 17.4584C15.8472 17.5854 16.2356 17.5552 16.4738 17.3171C16.776 17.0108 17.1493 16.5029 17.5292 16.0029C17.7994 15.6441 18.1406 15.5997 18.4986 15.7267C18.8634 15.8457 20.7936 16.7425 21.1905 16.9282C21.5874 17.1155 21.8491 17.2044 21.9454 17.3616C22.0399 17.5187 22.0399 18.2568 21.714 19.1234Z" fill="#FAFAFA"/>
</g>
<defs>
<clipPath id="clip0_1286_9533">
<rect width="28" height="28" fill="white"/>
</clipPath>
</defs>
</svg>
