<svg width="28" height="28" viewBox="0 0 28 28" fill="none" xmlns="http://www.w3.org/2000/svg">
<g clip-path="url(#clip0_1286_9528)">
<path fill-rule="evenodd" clip-rule="evenodd" d="M21 14.5285C21 15.6616 20.86 16.7948 20.86 16.7948C20.86 16.7948 20.7235 17.759 20.3035 18.1842C19.7715 18.7416 19.1747 18.7442 18.9009 18.7766C16.9417 18.9184 14 18.9227 14 18.9227C14 18.9227 10.36 18.8895 9.24 18.7827C8.9285 18.7241 8.2285 18.7416 7.6965 18.1842C7.2765 17.759 7.14 16.7948 7.14 16.7948C7.14 16.7948 7 15.6616 7 14.5285V13.4663C7 12.3331 7.14 11.2009 7.14 11.2009C7.14 11.2009 7.2765 10.2358 7.6965 9.8105C8.2285 9.25313 8.82525 9.2505 9.09912 9.21812C11.0583 9.07638 13.9974 9.07638 13.9974 9.07638H14.0026C14.0026 9.07638 16.9417 9.07638 18.9009 9.21812C19.1747 9.2505 19.7715 9.25313 20.3035 9.8105C20.7235 10.2358 20.86 11.2009 20.86 11.2009C20.86 11.2009 21 12.3331 21 13.4663V14.5285ZM14 0C6.26762 0 0 6.26762 0 14C0 21.7315 6.26762 28 14 28C21.7324 28 28 21.7315 28 14C28 6.26762 21.7324 0 14 0Z" fill="#EA412C"/>
<path fill-rule="evenodd" clip-rule="evenodd" d="M12.5545 15.8158L16.3371 13.8558L12.5536 11.8818L12.5545 15.8158Z" fill="#EA412C"/>
</g>
<defs>
<clipPath id="clip0_1286_9528">
<rect width="28" height="28" fill="white"/>
</clipPath>
</defs>
</svg>
