<svg width="20" height="20" viewBox="0 0 20 20" fill="none" xmlns="http://www.w3.org/2000/svg">
<path d="M13.5221 10.6731L17.6001 19.2H11.2001L7.85413 12.2029C7.31513 12.6019 6.88912 13.1471 6.63312 13.7808C6.45912 14.21 6.36414 14.68 6.36414 15.1724C6.36414 16.0916 6.69711 16.932 7.24811 17.5768C6.70511 18.9946 5.34412 20 3.75012 20C1.67912 20 0.00012207 18.3018 0.00012207 16.2069C0.00012207 15.7535 0.0791445 15.3186 0.223145 14.9155C0.982145 12.1434 3.57915 9.88333 6.47815 9.32693L2.40015 0.800026H8.80011L12.1461 7.79703C12.6851 7.39809 13.1111 6.85287 13.3671 6.2192C13.5411 5.78995 13.6361 5.32001 13.6361 4.82758C13.6361 3.9084 13.3031 3.06798 12.7521 2.42323C13.2951 1.00537 14.6561 0 16.2501 0C18.3211 0 20.0001 1.69822 20.0001 3.79309C20.0001 4.24617 19.9211 4.68071 19.7771 5.08352C19.0191 7.8561 16.4211 10.1166 13.5221 10.6731Z" fill="#FD6A5E"/>
</svg>
