<svg width="64" height="64" viewBox="0 0 64 64" fill="none" xmlns="http://www.w3.org/2000/svg">
<g clip-path="url(#clip0_3478_912)">
<path d="M64 19.1404V12.0072C64.0016 11.3303 63.801 10.6682 63.4239 10.106C63.0469 9.54374 62.5105 9.10687 61.8836 8.85135L58.008 7.26098C57.9194 7.22635 57.7929 7.18373 57.6273 7.18548H41.4516C40.9328 7.18548 40.5122 7.60598 40.5122 8.12485C40.5122 8.64373 40.9328 9.06423 41.4516 9.06423H56.6994V22.0835H32.2755C31.4304 22.0835 30.7429 21.3959 30.7429 20.5509V10.5969C30.7429 9.75173 31.4304 9.06423 32.2755 9.06423H37.6942C37.9434 9.06423 38.1823 8.96526 38.3585 8.78909C38.5347 8.61292 38.6336 8.37399 38.6336 8.12485C38.6336 7.87571 38.5347 7.63678 38.3585 7.46061C38.1823 7.28445 37.9434 7.18548 37.6942 7.18548H32.2755C30.6445 7.18548 29.2779 8.33635 28.9433 9.86848L24.1464 10.7782C23.9315 10.819 23.7375 10.9335 23.598 11.102C23.4585 11.2705 23.3821 11.4824 23.3821 11.7011V12.4207H19.7897C19.4707 11.7357 18.7776 11.2587 17.9736 11.2587H15.4373C15.3433 11.2587 15.2498 11.2729 15.16 11.3006L12.3096 12.1812C11.4646 12.4422 10.8969 13.2117 10.8969 14.0962V14.6346H0.939375C0.4205 14.6346 0 15.0551 0 15.574C0 16.0929 0.4205 16.5134 0.939375 16.5134H10.8969V17.0517C10.8969 17.9361 11.4646 18.7056 12.3095 18.9667L15.16 19.8472C15.2498 19.875 15.3433 19.8891 15.4373 19.8891H17.9736C18.7776 19.8891 19.4707 19.4121 19.7897 18.7271H23.3821V19.4467C23.3821 19.898 23.7031 20.2855 24.1464 20.3696L28.9433 21.2792C29.2779 22.8114 30.6445 23.9624 32.2755 23.9624H43.1625C43.2075 24.8645 43.1572 26.0534 42.752 27.0951C42.4501 27.871 42.4971 28.735 42.8809 29.4657C43.0671 29.8202 43.3272 30.1306 43.6436 30.3759C43.9601 30.6213 44.3255 30.7959 44.7151 30.888C45.5438 31.0841 46.4297 31.1824 47.3652 31.1824C47.8339 31.1824 48.3161 31.1549 48.8084 31.1056C49.1393 32.5407 49.4056 33.9175 49.508 34.9749C49.813 38.1254 47.3292 40.5424 46.9895 40.8567L36.2567 47.9549C36.0419 48.1034 35.8326 48.3762 35.8355 48.7384V53.3706C35.8355 55.2697 37.3806 56.8149 39.2798 56.8149H60.5558C62.4549 56.8149 64 55.2697 64 53.3706V43.7161C64 42.3227 63.0619 41.1452 61.7842 40.7799L60.5255 33.7755C60.4814 33.5303 60.3417 33.3127 60.1372 33.1705C59.9327 33.0283 59.6801 32.9731 59.4349 33.0171C59.1897 33.0612 58.972 33.2009 58.8297 33.4054C58.6875 33.61 58.6323 33.8626 58.6764 34.1079L59.8543 40.662H49.6369C50.5908 39.3295 51.618 37.2741 51.3779 34.7939C51.0804 31.7211 49.5542 26.3671 48.8351 23.9625H56.8531L58.0116 30.4086C58.2746 31.6332 60.0299 31.2712 59.8607 30.0762L58.6975 23.6039L61.8838 22.2965C63.1693 21.7687 64 20.53 64 19.1404ZM18.0991 17.8846C18.0991 17.9537 18.0429 18.0101 17.9736 18.0101H15.579L12.864 17.1715C12.8383 17.1636 12.8157 17.1478 12.7998 17.1262C12.7839 17.1046 12.7753 17.0784 12.7754 17.0516V14.0962C12.7754 14.0409 12.811 13.9926 12.8639 13.9764L15.5789 13.1377H17.9735C18.0427 13.1377 18.099 13.1941 18.099 13.2632L18.0991 17.8846ZM19.9778 16.8481V14.2996H23.3821V16.8481H19.9778ZM25.2607 12.4791L28.8643 11.7957V19.3519L25.2607 18.6685V12.4791ZM62.1214 47.7987H48.0144C47.7652 47.7987 47.5263 47.8977 47.3501 48.0739C47.174 48.25 47.075 48.489 47.075 48.7381C47.075 48.9872 47.174 49.2262 47.3501 49.4023C47.5263 49.5785 47.7652 49.6775 48.0144 49.6775H62.1214V53.3704C62.1214 54.2336 61.4191 54.936 60.5559 54.936H39.2798C38.4165 54.936 37.7141 54.2337 37.7141 53.3704V49.6775H44.2569C44.506 49.6775 44.7449 49.5785 44.9211 49.4023C45.0973 49.2262 45.1963 48.9872 45.1963 48.7381C45.1963 48.489 45.0973 48.25 44.9211 48.0739C44.7449 47.8977 44.506 47.7987 44.2569 47.7987H39.8979L47.8489 42.5404H60.9458C61.5939 42.5404 62.1211 43.0677 62.1211 43.7159L62.1214 47.7987ZM48.3585 29.2606C47.1934 29.3546 46.1162 29.2889 45.1481 29.0595C44.6315 28.9429 44.2956 28.3594 44.5029 27.776C45.0005 26.4974 45.0956 25.1146 45.0449 23.9621H46.8722C47.1815 24.9827 47.7957 27.0602 48.3585 29.2606ZM61.1706 20.5582L58.5781 21.622V9.5256L61.1706 10.5894C61.4523 10.7042 61.6932 10.9005 61.8626 11.1531C62.032 11.4057 62.1221 11.7031 62.1214 12.0072V19.1404C62.1214 19.7647 61.7481 20.3212 61.1706 20.5582Z" fill="#00943C"/>
<path d="M50.5995 13.1376H53.2214C53.4705 13.1376 53.7094 13.0386 53.8856 12.8625C54.0618 12.6863 54.1608 12.4474 54.1608 12.1982C54.1608 11.9491 54.0618 11.7102 53.8856 11.534C53.7094 11.3578 53.4705 11.2589 53.2214 11.2589H50.5995C50.3504 11.2589 50.1114 11.3578 49.9353 11.534C49.7591 11.7102 49.6601 11.9491 49.6601 12.1982C49.6601 12.4474 49.7591 12.6863 49.9353 12.8625C50.1114 13.0386 50.3504 13.1376 50.5995 13.1376ZM50.5995 16.5131H53.2214C53.3447 16.5131 53.4669 16.4888 53.5809 16.4416C53.6948 16.3944 53.7984 16.3252 53.8856 16.238C53.9728 16.1507 54.042 16.0472 54.0892 15.9332C54.1365 15.8192 54.1608 15.6971 54.1608 15.5737C54.1608 15.4504 54.1365 15.3282 54.0892 15.2142C54.042 15.1003 53.9728 14.9967 53.8856 14.9095C53.7984 14.8223 53.6948 14.7531 53.5809 14.7059C53.4669 14.6586 53.3447 14.6344 53.2214 14.6344H50.5995C50.0806 14.6344 49.6601 15.0549 49.6601 15.5737C49.6601 16.0926 50.0806 16.5131 50.5995 16.5131ZM50.5995 19.8887H53.2214C53.4705 19.8887 53.7094 19.7898 53.8856 19.6136C54.0618 19.4374 54.1608 19.1985 54.1608 18.9494C54.1608 18.7002 54.0618 18.4613 53.8856 18.2851C53.7094 18.1089 53.4705 18.01 53.2214 18.01H50.5995C50.3504 18.01 50.1114 18.1089 49.9353 18.2851C49.7591 18.4613 49.6601 18.7002 49.6601 18.9494C49.6601 19.1985 49.7591 19.4374 49.9353 19.6136C50.1114 19.7898 50.3504 19.8887 50.5995 19.8887Z" fill="#00943C"/>
</g>
<defs>
<clipPath id="clip0_3478_912">
<rect width="64" height="64" fill="white"/>
</clipPath>
</defs>
</svg>
