<svg width="64" height="64" viewBox="0 0 64 64" fill="none" xmlns="http://www.w3.org/2000/svg">
<g clip-path="url(#clip0_3446_17266)">
<path d="M53.555 52.865C53.4175 53.0059 53.3248 53.1843 53.2884 53.3777C53.2521 53.5712 53.2737 53.7711 53.3507 53.9522C53.4277 54.1334 53.5565 54.2878 53.7209 54.3959C53.8854 54.5041 54.0782 54.5612 54.275 54.56C54.4087 54.5607 54.5411 54.5339 54.664 54.4815C54.787 54.429 54.8979 54.352 54.99 54.255C55.0833 54.1612 55.157 54.0498 55.2068 53.9273C55.2567 53.8048 55.2818 53.6736 55.2805 53.5413C55.2793 53.409 55.2518 53.2783 55.1996 53.1567C55.1474 53.0352 55.0716 52.9252 54.9766 52.8331C54.8816 52.7411 54.7692 52.6688 54.6461 52.6206C54.5229 52.5723 54.3914 52.549 54.2591 52.5519C54.1269 52.5549 53.9965 52.5841 53.8757 52.6379C53.7548 52.6916 53.6458 52.7688 53.555 52.865ZM9.06999 12.5865C9.21596 12.413 9.29838 12.1949 9.30366 11.9682C9.30894 11.7416 9.23676 11.5199 9.09903 11.3397C8.9613 11.1596 8.76626 11.0319 8.54612 10.9776C8.32598 10.9232 8.09389 10.9456 7.8882 11.041C7.6825 11.1364 7.51548 11.2991 7.41472 11.5022C7.31397 11.7054 7.2855 11.9368 7.33401 12.1583C7.38253 12.3798 7.50513 12.5781 7.68157 12.7205C7.85802 12.8629 8.07775 12.9409 8.30449 12.9415C8.45028 12.9415 8.59432 12.9097 8.7266 12.8484C8.85888 12.7871 8.97572 12.6978 9.06999 12.5865ZM3.47499 41.5H3.47999C3.42238 41.3244 3.31733 41.1682 3.17647 41.0485C3.0356 40.9288 2.8644 40.8504 2.68177 40.822C2.49915 40.7935 2.31221 40.8161 2.14162 40.8873C1.97103 40.9584 1.82342 41.0753 1.71511 41.2251C1.6068 41.3748 1.542 41.5516 1.52788 41.7359C1.51375 41.9202 1.55084 42.1048 1.63506 42.2693C1.71928 42.4339 1.84734 42.5719 2.0051 42.6682C2.16286 42.7645 2.34416 42.8153 2.52899 42.815C2.63618 42.8157 2.74275 42.7988 2.84449 42.765C2.9691 42.7236 3.08429 42.658 3.18345 42.5719C3.28261 42.4858 3.36379 42.381 3.42233 42.2634C3.48087 42.1459 3.51561 42.018 3.52456 41.8869C3.53352 41.7559 3.517 41.6245 3.47499 41.5ZM2.49899 37.783C2.46295 37.5968 2.37469 37.4247 2.24451 37.2867C2.11433 37.1488 1.9476 37.0507 1.76377 37.0039C1.57995 36.9571 1.38661 36.9636 1.20633 37.0226C1.02604 37.0816 0.866251 37.1906 0.745596 37.3369C0.624941 37.4833 0.548401 37.661 0.524908 37.8492C0.501415 38.0374 0.531938 38.2284 0.612916 38.4C0.693894 38.5715 0.821986 38.7164 0.982242 38.8179C1.1425 38.9194 1.32831 38.9732 1.51799 38.973C1.58176 38.9729 1.64543 38.968 1.70849 38.9585C1.96913 38.9074 2.19878 38.7548 2.34694 38.5344C2.49509 38.314 2.55011 38.0437 2.49899 37.783ZM17.558 5.52804C17.7202 5.52974 17.8802 5.49017 18.023 5.41304C18.2392 5.29928 18.4063 5.1103 18.4927 4.88177C18.5792 4.65324 18.5789 4.40098 18.4921 4.17261C18.4053 3.94424 18.2378 3.75556 18.0214 3.6422C17.805 3.52883 17.5545 3.49863 17.3173 3.55729C17.0801 3.61594 16.8726 3.7594 16.734 3.96058C16.5954 4.16176 16.5352 4.40674 16.5648 4.64926C16.5944 4.89178 16.7118 5.11507 16.8948 5.27698C17.0777 5.43888 17.3137 5.52818 17.558 5.52804ZM11.7425 9.82004C11.9169 9.66235 12.0307 9.44859 12.064 9.21582C12.0974 8.98305 12.0482 8.74595 11.925 8.54564C11.8019 8.34533 11.6125 8.19442 11.3898 8.1191C11.167 8.04378 10.9249 8.04879 10.7055 8.13325C10.486 8.21772 10.303 8.37632 10.1883 8.58155C10.0735 8.78679 10.0342 9.02571 10.0771 9.2569C10.12 9.48809 10.2425 9.69697 10.4233 9.84732C10.6041 9.99766 10.8318 10.08 11.067 10.08C11.3166 10.08 11.5573 9.98735 11.7425 9.82004ZM13.349 7.16904C13.4416 7.30091 13.5644 7.40874 13.7071 7.48354C13.8498 7.55834 14.0084 7.59794 14.1695 7.59904C14.3743 7.59847 14.5738 7.53378 14.74 7.41404C14.8474 7.33846 14.9389 7.24247 15.0092 7.13154C15.0795 7.02061 15.1273 6.89691 15.1498 6.76751C15.1724 6.63811 15.1692 6.50555 15.1405 6.37738C15.1117 6.24922 15.0581 6.12796 14.9825 6.02054C14.9069 5.91312 14.8109 5.82164 14.7 5.75131C14.5891 5.68099 14.4654 5.6332 14.336 5.61069C14.2066 5.58817 14.074 5.59136 13.9458 5.62007C13.8177 5.64879 13.6964 5.70246 13.589 5.77804H13.594C13.4858 5.85265 13.3935 5.94803 13.3225 6.05863C13.2515 6.16923 13.2032 6.29284 13.1804 6.42227C13.1576 6.55171 13.1608 6.68438 13.1897 6.81258C13.2187 6.94078 13.2728 7.06195 13.349 7.16904ZM0.00199231 30C-0.00632686 30.1315 0.011462 30.2634 0.0543335 30.388C0.097205 30.5126 0.164311 30.6274 0.251784 30.726C0.339258 30.8245 0.445368 30.9048 0.563999 30.9621C0.68263 31.0194 0.811436 31.0527 0.942992 31.06C0.962699 31.0642 0.982861 31.0659 1.00299 31.065C1.1983 31.0647 1.38926 31.0073 1.55237 30.8999C1.71547 30.7925 1.84361 30.6397 1.921 30.4604C1.99839 30.2811 2.02166 30.083 1.98794 29.8906C1.95422 29.6983 1.86499 29.52 1.73123 29.3776C1.59747 29.2353 1.42502 29.1352 1.2351 29.0897C1.04518 29.0441 0.846078 29.0551 0.662311 29.1212C0.478543 29.1874 0.318126 29.3058 0.200804 29.4619C0.0834819 29.6181 0.014376 29.8051 0.00199231 30ZM1.07299 35.0315C1.32244 35.0038 1.551 34.8791 1.70942 34.6845C1.86784 34.4898 1.94344 34.2407 1.91993 33.9908C1.89642 33.7409 1.77568 33.5102 1.58373 33.3485C1.39178 33.1868 1.14399 33.107 0.893738 33.1262C0.643488 33.1455 0.410817 33.2623 0.245858 33.4514C0.0808998 33.6406 -0.00314129 33.887 0.0118434 34.1376C0.0268282 34.3881 0.139639 34.6227 0.325969 34.7909C0.512299 34.959 0.757232 35.0473 1.00799 35.0365C1.02978 35.0373 1.05158 35.0356 1.07299 35.0315ZM1.54849 21.966C1.47181 22.2165 1.49635 22.487 1.61686 22.7196C1.73737 22.9522 1.94423 23.1282 2.19307 23.21C2.44191 23.2918 2.71289 23.2728 2.94788 23.1571C3.18287 23.0414 3.36313 22.8382 3.44999 22.591C3.49416 22.4654 3.5128 22.3322 3.50485 22.1993C3.49689 22.0663 3.46248 21.9363 3.40365 21.8168C3.34481 21.6974 3.26272 21.5908 3.16219 21.5035C3.06167 21.4161 2.94472 21.3497 2.8182 21.3081C2.69168 21.2666 2.55814 21.2506 2.42539 21.2613C2.29264 21.272 2.16336 21.309 2.04512 21.3703C1.92687 21.4316 1.82204 21.5158 1.73676 21.6181C1.65149 21.7204 1.58748 21.8387 1.54849 21.966ZM0.516992 25.9325C0.491946 26.0613 0.492547 26.1938 0.518759 26.3224C0.544971 26.451 0.596281 26.5731 0.669752 26.6818C0.743222 26.7905 0.837411 26.8837 0.946929 26.956C1.05645 27.0283 1.17914 27.0782 1.30799 27.103C1.37038 27.1168 1.43411 27.1235 1.49799 27.123C1.68823 27.1236 1.87471 27.0701 2.03562 26.9686C2.19653 26.8671 2.32523 26.7219 2.40666 26.55C2.48809 26.378 2.5189 26.1865 2.49548 25.9977C2.47205 25.8089 2.39537 25.6307 2.27439 25.4838C2.15341 25.337 1.99313 25.2277 1.8123 25.1686C1.63146 25.1095 1.43755 25.1031 1.25322 25.1502C1.06889 25.1973 0.901772 25.2958 0.771397 25.4344C0.641023 25.5729 0.552782 25.7457 0.516992 25.9325ZM5.38699 15.963C5.55292 16.071 5.74714 16.1272 5.94506 16.1247C6.14297 16.1221 6.33569 16.0609 6.49879 15.9488C6.66189 15.8366 6.78805 15.6786 6.86127 15.4947C6.9345 15.3108 6.95151 15.1094 6.91015 14.9158C6.86879 14.7222 6.77091 14.5453 6.62892 14.4074C6.48693 14.2695 6.30721 14.1768 6.11251 14.1411C5.91782 14.1055 5.71692 14.1284 5.53525 14.2069C5.35358 14.2855 5.19932 14.4162 5.09199 14.5825C5.02043 14.6925 4.97128 14.8154 4.94738 14.9444C4.92347 15.0734 4.92528 15.2058 4.95269 15.3341C4.9801 15.4623 5.03257 15.5839 5.1071 15.6919C5.18164 15.7998 5.27675 15.892 5.38699 15.963ZM4.41549 17.6885C4.17701 17.581 3.90592 17.5711 3.6602 17.6609C3.41449 17.7506 3.21365 17.933 3.10065 18.1689C2.98765 18.4049 2.97145 18.6757 3.05551 18.9234C3.13958 19.1711 3.31723 19.3761 3.55049 19.4945C3.68691 19.5573 3.83533 19.5897 3.98549 19.5895C4.21224 19.5897 4.43229 19.5127 4.60948 19.3712C4.78666 19.2297 4.91044 19.0321 4.96046 18.8109C5.01049 18.5898 4.98379 18.3582 4.88475 18.1542C4.78571 17.9502 4.62023 17.786 4.41549 17.6885ZM24.9945 2.77204C25.0703 2.77361 25.1459 2.7652 25.2195 2.74704C25.47 2.69012 25.6892 2.53949 25.8321 2.32607C25.975 2.11266 26.0309 1.85263 25.9882 1.59934C25.9454 1.34605 25.8074 1.11872 25.6024 0.963978C25.3974 0.809238 25.1409 0.738827 24.8856 0.767192C24.6303 0.795558 24.3956 0.920549 24.2295 1.11652C24.0635 1.31249 23.9787 1.56458 23.9926 1.82107C24.0066 2.07755 24.1181 2.31898 24.3044 2.49582C24.4907 2.67265 24.7376 2.77149 24.9945 2.77204ZM4.92649 45.061C4.8487 44.9001 4.72922 44.763 4.58049 44.6639C4.43176 44.5648 4.2592 44.5074 4.08075 44.4976C3.9023 44.4877 3.72447 44.5259 3.56576 44.6081C3.40705 44.6902 3.27324 44.8134 3.17826 44.9648C3.08327 45.1162 3.03057 45.2902 3.02563 45.4689C3.02069 45.6476 3.0637 45.8243 3.15018 45.9807C3.23666 46.1371 3.36346 46.2675 3.51739 46.3583C3.67133 46.4491 3.84677 46.497 4.02549 46.497C4.1765 46.4984 4.32571 46.4642 4.46099 46.397C4.57936 46.34 4.68531 46.2601 4.77278 46.1621C4.86024 46.064 4.92749 45.9496 4.97069 45.8255C5.01388 45.7014 5.03217 45.57 5.0245 45.4388C5.01683 45.3076 4.98386 45.1793 4.92649 45.061ZM61.6275 19.895C61.5594 19.7268 61.4468 19.5802 61.3018 19.471C61.1567 19.3619 60.9847 19.2943 60.8042 19.2754C60.6236 19.2566 60.4414 19.2873 60.2769 19.3642C60.1125 19.4411 59.9721 19.5612 59.8707 19.7119C59.7694 19.8625 59.711 20.0378 59.7018 20.2191C59.6925 20.4004 59.7328 20.5808 59.8183 20.7409C59.9038 20.9011 60.0312 21.0349 60.187 21.1281C60.3428 21.2214 60.521 21.2704 60.7025 21.27C60.833 21.2717 60.9624 21.2462 61.0825 21.195C61.3274 21.0951 61.5228 20.9022 61.6258 20.6586C61.7289 20.4149 61.7313 20.1404 61.6325 19.895H61.6275ZM51.874 6.91904C51.7715 6.83492 51.6532 6.77206 51.5262 6.73411C51.3991 6.69617 51.2658 6.6839 51.1339 6.69802C51.0021 6.71214 50.8743 6.75237 50.7582 6.81636C50.6421 6.88035 50.5398 6.96683 50.4574 7.07075C50.3751 7.17466 50.3142 7.29394 50.2784 7.42162C50.2426 7.54931 50.2326 7.68284 50.2489 7.81444C50.2653 7.94603 50.3076 8.07306 50.3736 8.18811C50.4395 8.30316 50.5277 8.40393 50.633 8.48454C50.8091 8.62507 51.0282 8.70096 51.2535 8.69954C51.4608 8.69966 51.663 8.63523 51.832 8.5152C52.001 8.39517 52.1284 8.22549 52.1966 8.02973C52.2647 7.83397 52.2702 7.62185 52.2123 7.42281C52.1545 7.22377 52.0365 7.0477 51.874 6.91904ZM54.8805 11.09C55.0701 10.9051 55.1785 10.6524 55.1819 10.3876C55.1852 10.1227 55.0832 9.86742 54.8982 9.67779C54.7133 9.48816 54.4606 9.37976 54.1958 9.37643C53.9309 9.3731 53.6756 9.47512 53.486 9.66004C53.3914 9.75088 53.3157 9.85961 53.2634 9.97991C53.2112 10.1002 53.1833 10.2297 53.1814 10.3609C53.1795 10.492 53.2037 10.6222 53.2526 10.744C53.3014 10.8657 53.374 10.9765 53.466 11.07C53.5581 11.167 53.669 11.244 53.792 11.2965C53.9149 11.3489 54.0473 11.3757 54.181 11.375C54.4426 11.3749 54.6932 11.2727 54.8805 11.09ZM61.713 23.0715C61.4778 23.133 61.2731 23.2782 61.1373 23.4797C61.0014 23.6813 60.9438 23.9255 60.975 24.1666C61.0063 24.4076 61.1244 24.629 61.3072 24.7893C61.49 24.9495 61.7249 25.0376 61.968 25.037C62.054 25.0367 62.1397 25.0266 62.2235 25.007C62.476 24.9357 62.6905 24.768 62.8206 24.5401C62.9507 24.3121 62.9861 24.0422 62.9192 23.7885C62.8522 23.5347 62.6883 23.3174 62.4627 23.1833C62.2371 23.0492 61.9679 23.0091 61.713 23.0715ZM61.743 28.0635C61.7741 28.3042 61.8918 28.5252 62.0741 28.6854C62.2564 28.8455 62.4908 28.9337 62.7335 28.9335C62.7769 28.9344 62.8203 28.9328 62.8635 28.9285C63.06 28.9035 63.2447 28.8206 63.3942 28.6905C63.5437 28.5605 63.6512 28.389 63.7032 28.1977C63.7551 28.0065 63.7492 27.8042 63.6861 27.6164C63.6231 27.4285 63.5057 27.2636 63.3489 27.1425C63.1921 27.0213 63.0028 26.9495 62.8051 26.9359C62.6075 26.9224 62.4102 26.9678 62.2383 27.0664C62.0665 27.165 61.9277 27.3124 61.8396 27.4899C61.7515 27.6674 61.7176 27.867 61.743 28.0635ZM56.7885 14.3825C57.0139 14.3825 57.2326 14.3063 57.4093 14.1664C57.586 14.0265 57.7103 13.831 57.762 13.6117C57.8138 13.3923 57.7899 13.1619 57.6943 12.9578C57.5988 12.7537 57.4371 12.5878 57.2355 12.4871C57.0338 12.3863 56.8041 12.3566 56.5835 12.4027C56.3629 12.4488 56.1643 12.5681 56.0199 12.7412C55.8756 12.9142 55.7939 13.131 55.7881 13.3563C55.7823 13.5816 55.8527 13.8023 55.988 13.9825C56.0809 14.1069 56.2017 14.2079 56.3406 14.2773C56.4795 14.3468 56.6332 14.3828 56.7885 14.3825ZM48.506 4.57754C48.2791 4.44016 48.0069 4.39854 47.7493 4.46183C47.4918 4.52512 47.2699 4.68815 47.1325 4.91504C46.9951 5.14193 46.9535 5.41411 47.0168 5.67169C47.0801 5.92927 47.2431 6.15116 47.47 6.28854C47.6251 6.3837 47.8035 6.4339 47.9855 6.43354C48.2042 6.43431 48.4172 6.36334 48.5918 6.23149C48.7663 6.09964 48.8928 5.9142 48.9519 5.70357C49.0109 5.49295 48.9993 5.26876 48.9188 5.06538C48.8382 4.86199 48.6932 4.69063 48.506 4.57754ZM29.018 2.13204C29.278 2.10596 29.5175 1.97932 29.6854 1.77914C29.8533 1.57896 29.9363 1.32108 29.9167 1.06054C29.8972 0.799991 29.7765 0.557409 29.5806 0.38455C29.3847 0.211691 29.129 0.122242 28.868 0.13529C28.6071 0.148337 28.3616 0.262848 28.1839 0.454388C28.0061 0.645929 27.9103 0.899332 27.9169 1.16053C27.9234 1.42173 28.0317 1.67003 28.2187 1.85247C28.4058 2.03491 28.6567 2.13703 28.918 2.13704C28.948 2.13704 28.983 2.13204 29.018 2.13204ZM32.862 2.00154H32.892C33.1573 2.00486 33.4131 1.90263 33.6031 1.71734C33.7931 1.53205 33.9017 1.27889 33.905 1.01354C33.9083 0.748191 33.8061 0.492393 33.6208 0.302419C33.4355 0.112444 33.1823 0.00385531 32.917 0.000540095C32.7857 -0.00378978 32.6549 0.0179492 32.5321 0.0644997C32.4093 0.11105 32.2969 0.181488 32.2015 0.271739C32.1061 0.361991 32.0295 0.470264 31.9762 0.590297C31.9229 0.710329 31.894 0.839739 31.891 0.97104C31.8839 1.23625 31.982 1.49351 32.1639 1.6866C32.3459 1.87969 32.5968 1.99292 32.862 2.00154ZM44.8625 2.68704C44.6197 2.58016 44.3444 2.57411 44.0971 2.67022C43.8498 2.76633 43.6509 2.95673 43.544 3.19954C43.4371 3.44235 43.4311 3.71767 43.5272 3.96493C43.6233 4.2122 43.8137 4.41116 44.0565 4.51804C44.1833 4.57244 44.3195 4.60133 44.4575 4.60304C44.6875 4.60392 44.9107 4.52552 45.0896 4.38105C45.2685 4.23657 45.3922 4.03485 45.4397 3.80986C45.4873 3.58487 45.4558 3.35036 45.3507 3.14584C45.2456 2.94132 45.0731 2.77929 44.8625 2.68704ZM40.724 3.23704C40.9772 3.23695 41.2209 3.14092 41.4061 2.96829C41.5914 2.79566 41.7043 2.55925 41.7221 2.3067C41.74 2.05414 41.6615 1.80419 41.5025 1.6072C41.3434 1.41021 41.1156 1.28081 40.865 1.24507C40.6143 1.20932 40.3594 1.26989 40.1516 1.41457C39.9439 1.55925 39.7986 1.77729 39.7452 2.02478C39.6917 2.27226 39.7341 2.53081 39.8637 2.74833C39.9932 2.96584 40.2004 3.12618 40.4435 3.19704C40.5344 3.22467 40.629 3.23816 40.724 3.23704ZM36.85 2.36654C37.1048 2.36173 37.3478 2.25856 37.5283 2.07864C37.7087 1.89871 37.8126 1.65596 37.8181 1.4012C37.8237 1.14644 37.7305 0.8994 37.558 0.711789C37.3856 0.524178 37.1473 0.410534 36.8929 0.394638C36.6386 0.378743 36.388 0.461828 36.1935 0.626507C35.999 0.791186 35.8758 1.02469 35.8496 1.27817C35.8234 1.53164 35.8962 1.78543 36.0528 1.98642C36.2095 2.18742 36.4378 2.32004 36.69 2.35654C36.745 2.36154 36.795 2.36654 36.85 2.36654ZM59.5055 46.347C59.2746 46.2164 59.0013 46.1827 58.7456 46.2536C58.49 46.3244 58.2729 46.4939 58.1422 46.7248C58.0116 46.9557 57.9779 47.229 58.0488 47.4846C58.1196 47.7403 58.2891 47.9574 58.52 48.088C58.6692 48.1739 58.8384 48.2187 59.0105 48.218C59.2318 48.2189 59.4471 48.1463 59.6228 48.0116C59.7984 47.8769 59.9244 47.6878 59.981 47.4738C60.0376 47.2599 60.0216 47.0332 59.9356 46.8293C59.8495 46.6254 59.6983 46.4558 59.5055 46.347ZM61.1175 42.71C60.9956 42.6608 60.8652 42.636 60.7337 42.6371C60.6022 42.6382 60.4723 42.6652 60.3512 42.7166C60.2302 42.7679 60.1204 42.8426 60.0283 42.9364C59.9361 43.0301 59.8633 43.1411 59.814 43.263C59.7647 43.3849 59.7399 43.5154 59.7411 43.6468C59.7422 43.7783 59.7692 43.9083 59.8205 44.0293C59.8719 44.1504 59.9466 44.2601 60.0403 44.3523C60.1341 44.4445 60.2451 44.5173 60.367 44.5665C60.4862 44.6142 60.6136 44.6379 60.742 44.6365C60.9743 44.6373 61.1996 44.557 61.3791 44.4096C61.5587 44.2621 61.6812 44.0567 61.7257 43.8287C61.7701 43.6007 61.7337 43.3643 61.6227 43.1602C61.5117 42.9562 61.3331 42.7966 61.1175 42.71ZM44.552 61.3585C44.6918 61.3594 44.8302 61.3304 44.958 61.2735C45.186 61.1734 45.3688 60.9923 45.4711 60.7653C45.5735 60.5383 45.588 60.2814 45.512 60.0443C45.436 59.8071 45.2749 59.6065 45.0597 59.4813C44.8445 59.356 44.5905 59.3149 44.3467 59.3659C44.103 59.4169 43.8868 59.5565 43.7399 59.7576C43.593 59.9586 43.5258 60.207 43.5514 60.4547C43.5769 60.7024 43.6933 60.9319 43.8781 61.0988C44.0629 61.2658 44.303 61.3583 44.552 61.3585ZM36.785 61.629C36.5377 61.6708 36.315 61.8037 36.1609 62.0016C36.0068 62.1994 35.9324 62.4479 35.9525 62.6979C35.9726 62.9479 36.0857 63.1812 36.2694 63.352C36.4531 63.5227 36.6942 63.6183 36.945 63.62C36.9988 63.6199 37.0526 63.6149 37.1055 63.605C37.2369 63.5859 37.3632 63.5408 37.477 63.4724C37.5909 63.404 37.6899 63.3136 37.7685 63.2065C37.847 63.0994 37.9035 62.9778 37.9345 62.8487C37.9656 62.7196 37.9707 62.5856 37.9494 62.4545C37.9282 62.3234 37.8811 62.1978 37.8109 62.0851C37.7406 61.9724 37.6487 61.8748 37.5404 61.798C37.432 61.7211 37.3095 61.6666 37.1799 61.6376C37.0503 61.6086 36.9157 61.6057 36.785 61.629ZM31.991 63.03C31.9991 63.2901 32.1081 63.5368 32.2949 63.7179C32.4818 63.899 32.7318 64.0002 32.992 64H33.022C33.1534 63.9958 33.2826 63.9657 33.4024 63.9114C33.5221 63.8572 33.63 63.7799 33.7199 63.684C33.8098 63.5881 33.8799 63.4754 33.9263 63.3524C33.9726 63.2294 33.9943 63.0984 33.99 62.967C33.9857 62.8357 33.9556 62.7064 33.9014 62.5866C33.8472 62.4669 33.7699 62.359 33.674 62.2691C33.578 62.1792 33.4654 62.1091 33.3423 62.0628C33.2193 62.0164 33.0884 61.9948 32.957 61.999C32.8258 62.003 32.6967 62.0329 32.577 62.087C32.4574 62.141 32.3496 62.2181 32.2598 62.3139C32.1701 62.4097 32.1001 62.5223 32.054 62.6452C32.0079 62.7681 31.9865 62.8988 31.991 63.03ZM40.5335 60.7735C40.3039 60.843 40.1069 60.9926 39.9782 61.195C39.8495 61.3974 39.7978 61.6393 39.8322 61.8767C39.8667 62.114 39.9852 62.3312 40.1662 62.4886C40.3472 62.646 40.5786 62.7333 40.8185 62.7345C40.9168 62.7359 41.0147 62.7224 41.109 62.6945H41.104C41.2312 62.658 41.3498 62.5966 41.4531 62.5139C41.5565 62.4312 41.6424 62.3289 41.7059 62.2129C41.7695 62.0968 41.8094 61.9693 41.8235 61.8378C41.8375 61.7062 41.8253 61.5731 41.7876 61.4463C41.75 61.3195 41.6876 61.2013 41.604 61.0987C41.5204 60.9961 41.4174 60.9111 41.3008 60.8486C41.1842 60.786 41.0563 60.7472 40.9246 60.7343C40.7929 60.7214 40.66 60.7348 40.5335 60.7735ZM58.475 15.833C58.3604 15.8971 58.2596 15.9832 58.1784 16.0864C58.0972 16.1895 58.0372 16.3078 58.0019 16.4342C57.9666 16.5607 57.9566 16.6929 57.9726 16.8232C57.9886 16.9535 58.0302 17.0794 58.095 17.1935C58.1823 17.3476 58.3087 17.4759 58.4615 17.5654C58.6142 17.655 58.7879 17.7026 58.965 17.7035C59.1385 17.7026 59.3089 17.6578 59.4605 17.5735C59.6913 17.4429 59.8607 17.2258 59.9315 16.9702C60.0023 16.7146 59.9687 16.4413 59.838 16.2105C59.7073 15.9797 59.4903 15.8103 59.2347 15.7395C58.9791 15.6687 58.7058 15.7024 58.475 15.833ZM50.698 55.461C50.4911 55.627 50.3585 55.8683 50.3294 56.1319C50.3002 56.3955 50.3769 56.6599 50.5425 56.867C50.6662 57.021 50.8327 57.1348 51.0211 57.1942C51.2094 57.2535 51.4111 57.2557 51.6007 57.2005C51.7903 57.1452 51.9593 57.035 52.0863 56.8838C52.2133 56.7326 52.2926 56.5471 52.3143 56.3508C52.3359 56.1545 52.2989 55.9562 52.2079 55.781C52.1169 55.6057 51.976 55.4614 51.803 55.3661C51.6299 55.2709 51.4326 55.2291 51.2358 55.246C51.0391 55.2629 50.8522 55.3377 50.698 55.461ZM47.55 57.662C47.3808 57.765 47.2458 57.9158 47.1623 58.0954C47.0788 58.275 47.0504 58.4754 47.0808 58.6711C47.1111 58.8669 47.1989 59.0492 47.3329 59.1951C47.4668 59.341 47.6411 59.4439 47.8336 59.4908C48.026 59.5376 48.2281 59.5263 48.4141 59.4584C48.6002 59.3904 48.7619 59.2688 48.8788 59.1089C48.9958 58.949 49.0627 58.758 49.0711 58.5601C49.0795 58.3622 49.029 58.1663 48.926 57.997C48.7869 57.7713 48.5644 57.6095 48.3068 57.5468C48.0492 57.4841 47.7773 57.5255 47.55 57.662ZM57.439 49.7435C57.3335 49.6649 57.2136 49.6078 57.0861 49.5756C56.9586 49.5433 56.8259 49.5365 56.6958 49.5556C56.5656 49.5746 56.4405 49.6191 56.3275 49.6865C56.2146 49.754 56.116 49.843 56.0375 49.9485H56.0425C55.9636 50.0536 55.9062 50.1732 55.8735 50.3005C55.8409 50.4278 55.8337 50.5603 55.8523 50.6904C55.8709 50.8204 55.915 50.9456 55.9821 51.0586C56.0491 51.1716 56.1378 51.2703 56.243 51.349C56.4177 51.4756 56.6278 51.5438 56.8435 51.544C56.999 51.5453 57.1526 51.5097 57.2918 51.4401C57.4309 51.3706 57.5516 51.2692 57.644 51.144C57.7227 51.0387 57.7799 50.9189 57.8122 50.7914C57.8445 50.6639 57.8514 50.5313 57.8323 50.4012C57.8133 50.2711 57.7687 50.146 57.7012 50.0332C57.6337 49.9203 57.5446 49.8219 57.439 49.7435ZM24.1185 62.0295C24.089 62.1576 24.0852 62.2903 24.1072 62.4199C24.1293 62.5495 24.1768 62.6734 24.2471 62.7846C24.3173 62.8957 24.4089 62.9918 24.5165 63.0673C24.6241 63.1428 24.7456 63.1963 24.874 63.2245C24.9465 63.2403 25.0203 63.2487 25.0945 63.2495C25.2828 63.2494 25.4673 63.1962 25.6267 63.0959C25.7861 62.9955 25.9139 62.8523 25.9954 62.6825C26.0769 62.5127 26.1089 62.3234 26.0876 62.1363C26.0662 61.9492 25.9925 61.7719 25.8749 61.6248C25.7572 61.4778 25.6004 61.3669 25.4226 61.3051C25.2447 61.2432 25.053 61.2328 24.8695 61.2751C24.6859 61.3174 24.5181 61.4106 24.3852 61.5441C24.2524 61.6776 24.1599 61.8458 24.1185 62.0295ZM62.994 30.9C62.8629 30.9 62.733 30.9259 62.6119 30.9762C62.4908 31.0265 62.3808 31.1003 62.2883 31.1932C62.1958 31.2861 62.1225 31.3964 62.0727 31.5177C62.0228 31.639 61.9975 31.7689 61.998 31.9V32C61.998 32.2655 62.1035 32.5201 62.2912 32.7079C62.4789 32.8956 62.7335 33.001 62.999 33.001C63.2645 33.001 63.5191 32.8956 63.7068 32.7079C63.8945 32.5201 64 32.2655 64 32V31.895C63.9993 31.7637 63.9727 31.6337 63.9217 31.5126C63.8708 31.3915 63.7965 31.2816 63.7031 31.1892C63.6097 31.0968 63.499 31.0237 63.3773 30.9741C63.2556 30.9245 63.1254 30.8993 62.994 30.9ZM13.419 56.887C13.3439 56.9947 13.2908 57.1161 13.2627 57.2443C13.2347 57.3725 13.2322 57.505 13.2554 57.6342C13.2786 57.7634 13.3271 57.8867 13.3981 57.9971C13.4691 58.1075 13.5611 58.2028 13.669 58.2775C13.8368 58.3935 14.0356 58.4562 14.2395 58.4575C14.4522 58.4573 14.6593 58.3893 14.8309 58.2635C15.0024 58.1377 15.1294 57.9605 15.1936 57.7577C15.2577 57.5549 15.2557 57.3369 15.1877 57.1354C15.1197 56.9338 14.9894 56.7591 14.8155 56.6365C14.5971 56.4846 14.3274 56.4256 14.0655 56.4725C13.8036 56.5193 13.5711 56.6688 13.419 56.887ZM7.71399 51.369C7.61392 51.4543 7.53167 51.5585 7.47196 51.6757C7.41225 51.7928 7.37626 51.9206 7.36604 52.0517C7.35582 52.1828 7.37158 52.3146 7.41241 52.4396C7.45324 52.5646 7.51835 52.6803 7.60399 52.78C7.77655 52.9817 8.02212 53.1065 8.28672 53.1272C8.55131 53.1478 8.81327 53.0625 9.01499 52.89C9.11486 52.8046 9.19693 52.7004 9.25651 52.5832C9.31608 52.4661 9.35201 52.3383 9.36222 52.2073C9.37243 52.0763 9.35674 51.9445 9.31604 51.8196C9.27533 51.6946 9.21042 51.5789 9.12499 51.479C9.03957 51.3792 8.93531 51.2971 8.81817 51.2375C8.70103 51.1779 8.5733 51.142 8.44227 51.1318C8.31125 51.1216 8.1795 51.1373 8.05454 51.178C7.92958 51.2187 7.81386 51.2836 7.71399 51.369ZM10.3915 54.3105C10.3033 54.4077 10.2352 54.5213 10.191 54.6449C10.1468 54.7684 10.1274 54.8995 10.1339 55.0306C10.1404 55.1616 10.1727 55.2901 10.2289 55.4087C10.2851 55.5272 10.3641 55.6336 10.4615 55.7215C10.6441 55.8895 10.8834 55.9823 11.1315 55.9815C11.2983 55.982 11.4626 55.9407 11.6093 55.8615C11.7561 55.7822 11.8808 55.6676 11.9719 55.5279C12.0631 55.3882 12.1179 55.2279 12.1313 55.0617C12.1448 54.8954 12.1164 54.7284 12.0489 54.5759C11.9813 54.4234 11.8767 54.2902 11.7446 54.1884C11.6125 54.0866 11.457 54.0195 11.2923 53.9931C11.1276 53.9668 10.9589 53.982 10.8016 54.0374C10.6442 54.0929 10.5033 54.1867 10.3915 54.3105ZM62.874 34.9715C62.7426 34.9528 62.6088 34.9603 62.4804 34.9937C62.3519 35.0271 62.2314 35.0857 62.1258 35.1661C62.0202 35.2465 61.9317 35.3471 61.8653 35.462C61.7989 35.5769 61.756 35.7038 61.7391 35.8355C61.7222 35.9671 61.7316 36.1008 61.7668 36.2287C61.8021 36.3567 61.8624 36.4764 61.9442 36.5808C62.0261 36.6853 62.1279 36.7724 62.2437 36.8372C62.3596 36.9019 62.4871 36.943 62.619 36.958C62.6621 36.9636 62.7055 36.967 62.749 36.968C63.0044 36.9687 63.2504 36.8719 63.4367 36.6973C63.6231 36.5227 63.7357 36.2835 63.7517 36.0287C63.7677 35.7738 63.6857 35.5224 63.5226 35.326C63.3594 35.1295 63.1274 35.0027 62.874 34.9715ZM20.841 1.97154C20.6212 2.05338 20.4371 2.20974 20.3207 2.41336C20.2043 2.61699 20.1631 2.85499 20.2041 3.0859C20.2452 3.31682 20.3659 3.52602 20.5453 3.67707C20.7247 3.82812 20.9515 3.91145 21.186 3.91254C21.3057 3.91293 21.4244 3.89088 21.536 3.84754C21.7848 3.75538 21.9867 3.56816 22.0975 3.32709C22.2082 3.08601 22.2187 2.81081 22.1265 2.56204C22.0343 2.31327 21.8471 2.11129 21.606 2.00055C21.365 1.88981 21.0898 1.87938 20.841 1.97154ZM21.6265 60.1835C21.502 60.1336 21.3688 60.1091 21.2347 60.1116C21.1006 60.1141 20.9684 60.1434 20.8458 60.198C20.7233 60.2525 20.6129 60.3311 20.5213 60.429C20.4297 60.527 20.3587 60.6423 20.3125 60.7682C20.2663 60.8942 20.2459 61.0281 20.2524 61.162C20.2589 61.296 20.2922 61.4273 20.3504 61.5481C20.4086 61.669 20.4905 61.7769 20.5911 61.8655C20.6918 61.9541 20.8092 62.0216 20.9365 62.064C21.0456 62.1033 21.1606 62.1236 21.2765 62.124C21.5112 62.1238 21.7384 62.0412 21.9184 61.8905C22.0985 61.7399 22.2199 61.5309 22.2616 61.2999C22.3032 61.0689 22.2625 60.8306 22.1464 60.6266C22.0303 60.4226 21.8463 60.2658 21.6265 60.1835ZM28.022 62.78C28.0092 62.9109 28.0224 63.043 28.0608 63.1687C28.0993 63.2944 28.1622 63.4113 28.246 63.5126C28.3298 63.6139 28.4328 63.6976 28.549 63.759C28.6653 63.8203 28.7926 63.8581 28.9235 63.87C28.955 63.874 28.9867 63.8757 29.0185 63.875C29.2122 63.8748 29.4016 63.8184 29.5639 63.7126C29.7261 63.6067 29.8541 63.4561 29.9323 63.2789C30.0105 63.1017 30.0356 62.9056 30.0045 62.7144C29.9734 62.5233 29.8874 62.3452 29.7571 62.202C29.6267 62.0587 29.4575 61.9564 29.2701 61.9075C29.0827 61.8586 28.8851 61.8651 28.7014 61.9263C28.5176 61.9875 28.3556 62.1008 28.235 62.2524C28.1144 62.4039 28.0404 62.5872 28.022 62.78ZM5.43649 48.113C5.25647 48.2312 5.1193 48.4043 5.04528 48.6065C4.97126 48.8088 4.96434 49.0294 5.02554 49.2359C5.08674 49.4424 5.2128 49.6237 5.38507 49.7529C5.55733 49.8822 5.76664 49.9525 5.98199 49.9535C6.13819 49.9541 6.29236 49.9181 6.43219 49.8485C6.57201 49.7789 6.69362 49.6775 6.78731 49.5525C6.881 49.4275 6.94417 49.2824 6.97177 49.1286C6.99938 48.9749 6.99066 48.8168 6.94631 48.6671C6.90196 48.5173 6.82321 48.3799 6.71634 48.266C6.60947 48.1521 6.47745 48.0647 6.33082 48.0109C6.18418 47.9571 6.02699 47.9383 5.8718 47.956C5.71661 47.9738 5.56721 48.0275 5.43649 48.113ZM62.2435 38.8985C62.1164 38.8653 61.984 38.8575 61.8538 38.8754C61.7236 38.8934 61.5983 38.9368 61.4849 39.0032C61.3715 39.0696 61.2723 39.1576 61.193 39.2624C61.1137 39.3671 61.0557 39.4864 61.0225 39.6135C60.9893 39.7407 60.9814 39.8731 60.9994 40.0032C61.0173 40.1334 61.0607 40.2587 61.1271 40.3721C61.1935 40.4855 61.2816 40.5847 61.3863 40.664C61.491 40.7434 61.6104 40.8013 61.7375 40.8345C61.8214 40.8545 61.9073 40.8645 61.9935 40.8645C62.2365 40.8643 62.4711 40.7756 62.6533 40.6149C62.8356 40.4542 62.953 40.2326 62.9837 39.9916C63.0143 39.7505 62.9561 39.5066 62.8198 39.3054C62.6836 39.1042 62.4787 38.9595 62.2435 38.8985ZM16.757 59.053C16.6959 59.1693 16.6583 59.2964 16.6463 59.4272C16.6344 59.558 16.6483 59.6899 16.6873 59.8153C16.7263 59.9407 16.7896 60.0572 16.8736 60.1581C16.9576 60.2591 17.0607 60.3424 17.177 60.4035C17.3214 60.4772 17.4809 60.5166 17.643 60.5185C17.8206 60.5188 17.9952 60.4718 18.1486 60.3824C18.3021 60.293 18.4291 60.1643 18.5165 60.0097C18.6039 59.855 18.6485 59.6799 18.6459 59.5023C18.6433 59.3246 18.5935 59.1509 18.5016 58.9989C18.4097 58.8469 18.279 58.722 18.1229 58.6372C17.9668 58.5523 17.791 58.5105 17.6135 58.516C17.4359 58.5215 17.263 58.5742 17.1125 58.6685C16.962 58.7629 16.8393 58.8956 16.757 59.053ZM21 21V43C21.0009 43.7954 21.3173 44.5579 21.8797 45.1203C22.4421 45.6827 23.2046 45.9991 24 46H40C40.7954 45.9991 41.5579 45.6827 42.1203 45.1203C42.6827 44.5579 42.9991 43.7954 43 43V21C42.9991 20.2047 42.6827 19.4422 42.1203 18.8797C41.5579 18.3173 40.7954 18.001 40 18H24C23.2046 18.001 22.4421 18.3173 21.8797 18.8797C21.3173 19.4422 21.0009 20.2047 21 21ZM23 21C23.0003 20.7349 23.1057 20.4807 23.2932 20.2932C23.4807 20.1057 23.7349 20.0003 24 20H40C40.2651 20.0003 40.5193 20.1057 40.7068 20.2932C40.8943 20.4807 40.9997 20.7349 41 21V43C40.9996 43.2651 40.8941 43.5193 40.7067 43.7067C40.5192 43.8942 40.2651 43.9996 40 44H24C23.7349 43.9996 23.4808 43.8942 23.2933 43.7067C23.1059 43.5193 23.0004 43.2651 23 43V21Z" fill="#00943C"/>
<path d="M32 30C32.6922 30 33.3689 29.7947 33.9445 29.4101C34.5201 29.0256 34.9687 28.4789 35.2336 27.8394C35.4985 27.1999 35.5678 26.4961 35.4327 25.8172C35.2977 25.1383 34.9644 24.5146 34.4749 24.0251C33.9854 23.5356 33.3617 23.2023 32.6828 23.0673C32.0039 22.9322 31.3001 23.0015 30.6606 23.2664C30.0211 23.5313 29.4744 23.9799 29.0899 24.5555C28.7053 25.1311 28.5 25.8078 28.5 26.5C28.5011 27.4279 28.8701 28.3176 29.5263 28.9737C30.1824 29.6299 31.0721 29.9989 32 30ZM32 25C32.2967 25 32.5867 25.088 32.8334 25.2528C33.08 25.4176 33.2723 25.6519 33.3858 25.926C33.4994 26.2001 33.5291 26.5017 33.4712 26.7926C33.4133 27.0836 33.2704 27.3509 33.0607 27.5607C32.8509 27.7704 32.5836 27.9133 32.2926 27.9712C32.0017 28.0291 31.7001 27.9993 31.426 27.8858C31.1519 27.7723 30.9176 27.58 30.7528 27.3334C30.588 27.0867 30.5 26.7967 30.5 26.5C30.5004 26.1023 30.6586 25.721 30.9398 25.4398C31.221 25.1586 31.6023 25.0004 32 25ZM32 41C32.89 41 33.76 40.7361 34.5001 40.2416C35.2401 39.7471 35.8169 39.0443 36.1575 38.2221C36.4981 37.3998 36.5872 36.495 36.4135 35.6221C36.2399 34.7492 35.8113 33.9474 35.182 33.318C34.5526 32.6887 33.7508 32.2601 32.8779 32.0865C32.005 31.9128 31.1002 32.0019 30.2779 32.3425C29.4557 32.6831 28.7529 33.2599 28.2584 33.9999C27.7639 34.74 27.5 35.61 27.5 36.5C27.5013 37.6931 27.9759 38.8369 28.8195 39.6805C29.6631 40.5241 30.8069 40.9987 32 41ZM32 34C32.4945 34 32.9778 34.1466 33.3889 34.4213C33.8 34.696 34.1205 35.0865 34.3097 35.5433C34.4989 36.0001 34.5484 36.5028 34.452 36.9877C34.3555 37.4727 34.1174 37.9181 33.7678 38.2678C33.4181 38.6174 32.9727 38.8555 32.4877 38.952C32.0028 39.0484 31.5001 38.9989 31.0433 38.8097C30.5865 38.6205 30.196 38.3 29.9213 37.8889C29.6466 37.4778 29.5 36.9945 29.5 36.5C29.5008 35.8372 29.7644 35.2018 30.2331 34.7331C30.7018 34.2644 31.3372 34.0008 32 34Z" fill="#00943C"/>
<path d="M38 24C38.5523 24 39 23.5523 39 23C39 22.4477 38.5523 22 38 22C37.4477 22 37 22.4477 37 23C37 23.5523 37.4477 24 38 24Z" fill="#00943C"/>
<path d="M26 24C26.5523 24 27 23.5523 27 23C27 22.4477 26.5523 22 26 22C25.4477 22 25 22.4477 25 23C25 23.5523 25.4477 24 26 24Z" fill="#00943C"/>
<path d="M38 42C38.5523 42 39 41.5523 39 41C39 40.4477 38.5523 40 38 40C37.4477 40 37 40.4477 37 41C37 41.5523 37.4477 42 38 42Z" fill="#00943C"/>
<path d="M26 42C26.5523 42 27 41.5523 27 41C27 40.4477 26.5523 40 26 40C25.4477 40 25 40.4477 25 41C25 41.5523 25.4477 42 26 42Z" fill="#00943C"/>
<path d="M32 37.5C32.5523 37.5 33 37.0523 33 36.5C33 35.9477 32.5523 35.5 32 35.5C31.4477 35.5 31 35.9477 31 36.5C31 37.0523 31.4477 37.5 32 37.5Z" fill="#00943C"/>
<path d="M50.8995 20.6865C50.712 20.874 50.6067 21.1283 50.6067 21.3935C50.6067 21.6587 50.712 21.913 50.8995 22.1005C53.521 24.7281 54.9932 28.2883 54.9932 32C54.9932 35.7117 53.521 39.2719 50.8995 41.8995C50.804 41.9917 50.7278 42.1021 50.6754 42.2241C50.623 42.3461 50.5954 42.4773 50.5942 42.6101C50.5931 42.7429 50.6184 42.8746 50.6687 42.9975C50.719 43.1204 50.7932 43.232 50.8871 43.3259C50.981 43.4198 51.0926 43.494 51.2155 43.5443C51.3384 43.5946 51.4701 43.6199 51.6029 43.6188C51.7357 43.6176 51.8669 43.59 51.9889 43.5376C52.1109 43.4852 52.2213 43.409 52.3135 43.3135C55.3102 40.3109 56.9932 36.2421 56.9932 32C56.9932 27.7579 55.3102 23.6891 52.3135 20.6865C52.126 20.499 51.8717 20.3937 51.6065 20.3937C51.3413 20.3937 51.087 20.499 50.8995 20.6865Z" fill="#00943C"/>
<path d="M48.0715 23.515C47.884 23.7025 47.7787 23.9568 47.7787 24.222C47.7787 24.4872 47.884 24.7415 48.0715 24.929C49.9439 26.806 50.9954 29.349 50.9954 32.0003C50.9954 34.6515 49.9439 37.1945 48.0715 39.0715C47.976 39.1637 47.8998 39.2741 47.8474 39.3961C47.795 39.5181 47.7674 39.6493 47.7663 39.7821C47.7651 39.9149 47.7904 40.0466 47.8407 40.1695C47.891 40.2924 47.9652 40.404 48.0591 40.4979C48.153 40.5918 48.2646 40.666 48.3875 40.7163C48.5104 40.7666 48.6421 40.7919 48.7749 40.7907C48.9077 40.7896 49.0389 40.762 49.1609 40.7096C49.2829 40.6572 49.3933 40.581 49.4855 40.4855C51.7326 38.2333 52.9946 35.1817 52.9946 32.0003C52.9946 28.8188 51.7326 25.7672 49.4855 23.515C49.298 23.3275 49.0437 23.2222 48.7785 23.2222C48.5133 23.2222 48.259 23.3275 48.0715 23.515Z" fill="#00943C"/>
<path d="M45.2425 26.3435C45.055 26.531 44.9497 26.7853 44.9497 27.0505C44.9497 27.3157 45.055 27.57 45.2425 27.7575C46.3676 28.8827 46.9997 30.4088 46.9997 32C46.9997 33.5912 46.3676 35.1173 45.2425 36.2425C45.147 36.3347 45.0708 36.4451 45.0184 36.5671C44.966 36.6891 44.9384 36.8203 44.9372 36.9531C44.9361 37.0859 44.9614 37.2176 45.0117 37.3405C45.062 37.4634 45.1362 37.575 45.2301 37.6689C45.324 37.7628 45.4356 37.837 45.5585 37.8873C45.6814 37.9376 45.8131 37.9629 45.9459 37.9618C46.0787 37.9606 46.2099 37.933 46.3319 37.8806C46.4539 37.8282 46.5643 37.752 46.6565 37.6565C47.3994 36.9137 47.9887 36.0318 48.3908 35.0612C48.7928 34.0906 48.9997 33.0503 48.9997 31.9998C48.9997 30.9492 48.7928 29.9089 48.3908 28.9383C47.9887 27.9677 47.3994 27.0858 46.6565 26.343C46.469 26.1555 46.2147 26.0502 45.9495 26.0502C45.6843 26.0502 45.43 26.156 45.2425 26.3435ZM11.8995 43.3135C12.0881 43.4957 12.3407 43.5965 12.6029 43.5942C12.8651 43.5919 13.1159 43.4867 13.3013 43.3013C13.4867 43.1159 13.5919 42.8651 13.5942 42.6029C13.5965 42.3407 13.4957 42.0881 13.3135 41.8995C10.6919 39.2719 9.2196 35.7117 9.2196 32C9.2196 28.2883 10.6919 24.7281 13.3135 22.1005C13.4957 21.9119 13.5965 21.6593 13.5942 21.3971C13.5919 21.1349 13.4867 20.8841 13.3013 20.6987C13.1159 20.5133 12.8651 20.4081 12.6029 20.4058C12.3407 20.4035 12.0881 20.5043 11.8995 20.6865C8.90345 23.6894 7.22086 27.7581 7.22086 32C7.22086 36.2419 8.90345 40.3106 11.8995 43.3135Z" fill="#00943C"/>
<path d="M14.728 23.515C12.4807 25.767 11.2185 28.8185 11.2185 32C11.2185 35.1815 12.4807 38.233 14.728 40.485C14.8199 40.5818 14.9303 40.6592 15.0526 40.7126C15.1749 40.7661 15.3067 40.7945 15.4401 40.7963C15.5736 40.798 15.706 40.773 15.8297 40.7227C15.9533 40.6725 16.0657 40.598 16.1601 40.5036C16.2545 40.4092 16.329 40.2969 16.3793 40.1733C16.4297 40.0497 16.4547 39.9172 16.453 39.7837C16.4513 39.6503 16.4229 39.5185 16.3695 39.3962C16.3161 39.2738 16.2388 39.1635 16.142 39.0715C14.2696 37.1945 13.2181 34.6515 13.2181 32.0003C13.2181 29.349 14.2696 26.806 16.142 24.929C16.2375 24.8368 16.3137 24.7264 16.3661 24.6044C16.4185 24.4824 16.4461 24.3512 16.4473 24.2184C16.4484 24.0856 16.4231 23.9539 16.3728 23.831C16.3225 23.7081 16.2483 23.5965 16.1544 23.5026C16.0605 23.4087 15.9489 23.3345 15.826 23.2842C15.7031 23.2339 15.5714 23.2086 15.4386 23.2097C15.3058 23.2109 15.1746 23.2385 15.0526 23.2909C14.9306 23.3433 14.8202 23.4195 14.728 23.515Z" fill="#00943C"/>
<path d="M17.5565 37.6565C17.7451 37.8387 17.9977 37.9395 18.2599 37.9372C18.5221 37.9349 18.7729 37.8297 18.9583 37.6443C19.1437 37.4589 19.2489 37.2081 19.2512 36.9459C19.2535 36.6837 19.1527 36.4311 18.9705 36.2425C17.8454 35.1173 17.2133 33.5912 17.2133 32C17.2133 30.4088 17.8454 28.8827 18.9705 27.7575C19.1527 27.5689 19.2535 27.3163 19.2512 27.0541C19.2489 26.7919 19.1437 26.5411 18.9583 26.3557C18.7729 26.1703 18.5221 26.0651 18.2599 26.0628C17.9977 26.0605 17.7451 26.1613 17.5565 26.3435C16.8136 27.0863 16.2243 27.9682 15.8222 28.9388C15.4202 29.9094 15.2133 30.9497 15.2133 32.0003C15.2133 33.0508 15.4202 34.0911 15.8222 35.0617C16.2243 36.0323 16.8136 36.9137 17.5565 37.6565ZM43.3135 53.793C43.126 53.6055 42.8717 53.5002 42.6065 53.5002C42.3413 53.5002 42.087 53.6055 41.8995 53.793C39.2719 56.4146 35.7117 57.8869 32 57.8869C28.2883 57.8869 24.7281 56.4146 22.1005 53.793C21.9119 53.6108 21.6593 53.51 21.3971 53.5123C21.1349 53.5146 20.8841 53.6198 20.6987 53.8052C20.5133 53.9906 20.4081 54.2414 20.4058 54.5036C20.4035 54.7658 20.5043 55.0184 20.6865 55.207C23.689 58.2038 27.7579 59.8869 32 59.8869C36.2421 59.8869 40.311 58.2038 43.3135 55.207C43.501 55.0195 43.6063 54.7652 43.6063 54.5C43.6063 54.2348 43.501 53.9805 43.3135 53.793Z" fill="#00943C"/>
<path d="M23.515 50.9645C23.3275 51.152 23.2222 51.4063 23.2222 51.6715C23.2222 51.9367 23.3275 52.191 23.515 52.3785C25.7672 54.6255 28.8186 55.8874 32 55.8874C35.1814 55.8874 38.2328 54.6255 40.485 52.3785C40.6647 52.1895 40.7634 51.9377 40.7601 51.677C40.7568 51.4162 40.6517 51.167 40.4674 50.9826C40.283 50.7982 40.0339 50.6931 39.7731 50.6897C39.5124 50.6863 39.2606 50.7849 39.0715 50.9645C37.1944 52.8369 34.6513 53.8885 32 53.8885C29.3487 53.8885 26.8056 52.8369 24.9285 50.9645C24.741 50.777 24.4867 50.6717 24.2215 50.6717C23.9563 50.6717 23.7025 50.777 23.515 50.9645Z" fill="#00943C"/>
<path d="M37.6565 49.55C37.8387 49.3614 37.9395 49.1088 37.9372 48.8466C37.9349 48.5844 37.8297 48.3336 37.6443 48.1482C37.4589 47.9628 37.2081 47.8576 36.9459 47.8553C36.6837 47.8531 36.4311 47.9538 36.2425 48.136C35.1163 49.2592 33.5906 49.8899 32 49.8899C30.4094 49.8899 28.8837 49.2592 27.7575 48.136C27.6646 48.0432 27.5544 47.9695 27.433 47.9193C27.3117 47.869 27.1816 47.8432 27.0503 47.8432C26.919 47.8432 26.789 47.8691 26.6676 47.9194C26.5463 47.9697 26.4361 48.0434 26.3433 48.1362C26.2504 48.2291 26.1768 48.3394 26.1265 48.4607C26.0763 48.5821 26.0505 48.7121 26.0505 48.8434C26.0505 48.9748 26.0764 49.1048 26.1267 49.2261C26.1769 49.3474 26.2506 49.4577 26.3435 49.5505C27.8449 51.0485 29.8793 51.8898 32.0003 51.8898C34.1212 51.8898 36.1551 51.048 37.6565 49.55ZM20.6865 10.207C20.874 10.3945 21.1283 10.4998 21.3935 10.4998C21.6587 10.4998 21.913 10.3945 22.1005 10.207C24.7283 7.58577 28.2884 6.11372 32 6.11372C35.7116 6.11372 39.2717 7.58577 41.8995 10.207C42.0881 10.3892 42.3407 10.49 42.6029 10.4877C42.8651 10.4854 43.1159 10.3802 43.3013 10.1948C43.4867 10.0094 43.5919 9.7586 43.5942 9.4964C43.5965 9.2342 43.4957 8.9816 43.3135 8.793C40.3108 5.79658 36.242 4.11374 32 4.11374C27.758 4.11374 23.6892 5.79658 20.6865 8.793C20.499 8.98053 20.3937 9.23484 20.3937 9.5C20.3937 9.76516 20.499 10.0195 20.6865 10.207Z" fill="#00943C"/>
<path d="M39.7785 13.3285C39.9762 13.3285 40.1695 13.2698 40.334 13.1599C40.4984 13.05 40.6265 12.8939 40.7022 12.7112C40.7778 12.5285 40.7976 12.3274 40.7591 12.1335C40.7205 11.9395 40.6253 11.7614 40.4855 11.6215C38.2332 9.37435 35.1816 8.11235 32 8.11235C28.8184 8.11235 25.7668 9.37435 23.5145 11.6215C23.3323 11.8101 23.2315 12.0627 23.2338 12.3249C23.2361 12.5871 23.3413 12.8379 23.5267 13.0233C23.7121 13.2087 23.9629 13.3139 24.2251 13.3162C24.4873 13.3185 24.7399 13.2177 24.9285 13.0355C26.8056 11.1631 29.3487 10.1115 32 10.1115C34.6513 10.1115 37.1944 11.1631 39.0715 13.0355C39.1642 13.1285 39.2744 13.2023 39.3958 13.2525C39.5171 13.3028 39.6472 13.3286 39.7785 13.3285Z" fill="#00943C"/>
<path d="M26.3435 14.45C26.1613 14.6386 26.0605 14.8912 26.0628 15.1534C26.0651 15.4156 26.1703 15.6664 26.3557 15.8518C26.5411 16.0372 26.7919 16.1424 27.0541 16.1447C27.3163 16.147 27.5689 16.0462 27.7575 15.864C28.8827 14.7389 30.4088 14.1068 32 14.1068C33.5912 14.1068 35.1173 14.7389 36.2425 15.864C36.4301 16.0515 36.6845 16.1568 36.9497 16.1568C37.2149 16.1567 37.4692 16.0513 37.6567 15.8638C37.8443 15.6762 37.9496 15.4218 37.9495 15.1566C37.9495 14.8913 37.8441 14.637 37.6565 14.4495C36.9137 13.7066 36.0318 13.1173 35.0612 12.7152C34.0906 12.3132 33.0503 12.1063 31.9998 12.1063C30.9492 12.1063 29.9089 12.3132 28.9383 12.7152C27.9677 13.1173 27.0863 13.7071 26.3435 14.45Z" fill="#00943C"/>
</g>
<defs>
<clipPath id="clip0_3446_17266">
<rect width="64" height="64" fill="white"/>
</clipPath>
</defs>
</svg>
