<svg width="28" height="28" viewBox="0 0 28 28" fill="none" xmlns="http://www.w3.org/2000/svg">
<g clip-path="url(#clip0_1286_9512)">
<path d="M14 28C21.732 28 28 21.732 28 14C28 6.26801 21.732 0 14 0C6.26801 0 0 6.26801 0 14C0 21.732 6.26801 28 14 28Z" fill="url(#paint0_linear_1286_9512)"/>
<path d="M17.0095 6.125H10.9905C8.30567 6.125 6.125 8.30567 6.125 10.9905V17.0095C6.125 19.6943 8.30567 21.875 10.9905 21.875H17.0095C19.6943 21.875 21.875 19.6943 21.875 17.0095V10.9905C21.875 8.30567 19.6943 6.125 17.0095 6.125ZM20.1166 17.0158C20.1166 18.73 18.7237 20.1292 17.0032 20.1292H10.9842C9.26996 20.1292 7.8708 18.7363 7.8708 17.0158V10.9968C7.8708 9.28256 9.26366 7.8834 10.9842 7.8834H17.0032C18.7174 7.8834 20.1166 9.27626 20.1166 10.9968V17.0158Z" fill="white"/>
<path d="M14 9.625C11.59 9.625 9.625 11.59 9.625 14C9.625 16.41 11.59 18.375 14 18.375C16.41 18.375 18.375 16.41 18.375 14C18.375 11.59 16.41 9.625 14 9.625ZM14 16.6565C12.5348 16.6565 11.3435 15.4652 11.3435 14C11.3435 12.5348 12.5348 11.3435 14 11.3435C15.4652 11.3435 16.6565 12.5348 16.6565 14C16.6565 15.4652 15.4652 16.6565 14 16.6565Z" fill="white"/>
<path d="M18.2793 10.4597C18.6456 10.4001 18.8942 10.0547 18.8346 9.68843C18.7749 9.32212 18.4296 9.07353 18.0633 9.13319C17.697 9.19285 17.4484 9.53816 17.508 9.90447C17.5677 10.2708 17.913 10.5194 18.2793 10.4597Z" fill="white"/>
</g>
<defs>
<linearGradient id="paint0_linear_1286_9512" x1="3.34003" y1="24.66" x2="23.2356" y2="4.76442" gradientUnits="userSpaceOnUse">
<stop stop-color="#FEE411"/>
<stop offset="0.052" stop-color="#FEDB16"/>
<stop offset="0.138" stop-color="#FEC125"/>
<stop offset="0.248" stop-color="#FE983D"/>
<stop offset="0.376" stop-color="#FE5F5E"/>
<stop offset="0.5" stop-color="#FE2181"/>
<stop offset="1" stop-color="#9000DC"/>
</linearGradient>
<clipPath id="clip0_1286_9512">
<rect width="28" height="28" fill="white"/>
</clipPath>
</defs>
</svg>
