<svg width="28" height="28" viewBox="0 0 28 28" fill="none" xmlns="http://www.w3.org/2000/svg">
<g clip-path="url(#clip0_1286_9517)">
<path d="M14 28C21.732 28 28 21.732 28 14C28 6.26801 21.732 0 14 0C6.26801 0 0 6.26801 0 14C0 21.732 6.26801 28 14 28Z" fill="black"/>
<path d="M12.1417 11.9983V11.2381C11.8874 11.2036 11.6288 11.1816 11.3647 11.1816C8.18578 11.1816 5.59998 13.7679 5.59998 16.9464C5.59998 18.8966 6.57438 20.6228 8.06118 21.6662C7.10171 20.6363 6.53238 19.2564 6.53238 17.7411C6.53238 14.6079 9.02578 12.0706 12.1417 11.9978V11.9983Z" fill="#25F4EE"/>
<path d="M12.2775 20.3907C13.6957 20.3907 14.8694 19.2464 14.9221 17.8408L14.9343 5.30661L17.2074 5.30754L17.2037 5.28887C17.1561 5.03081 17.1299 4.76574 17.1299 4.49414H13.9981L13.993 17.0461C13.9403 18.4517 12.7834 19.5796 11.3652 19.5796C10.9242 19.5796 10.5093 19.4695 10.1439 19.2772C10.6223 19.9403 11.3997 20.3907 12.278 20.3907H12.2775Z" fill="#25F4EE"/>
<path d="M21.4871 9.58657V8.85111C20.6121 8.85111 19.7973 8.59117 19.1141 8.14551C19.7227 8.84411 20.5491 9.38544 21.4871 9.58657Z" fill="#25F4EE"/>
<path d="M19.1142 8.14551C18.4478 7.37971 18.0427 6.38104 18.0427 5.28857H17.1892C17.4099 6.48184 18.1328 7.50571 19.1142 8.14551Z" fill="#FE2C55"/>
<path d="M11.3647 14.2898C9.91288 14.2898 8.71448 15.4947 8.71448 16.9465C8.71448 17.9573 9.30528 18.8356 10.1434 19.2766C9.83121 18.844 9.64501 18.3143 9.64501 17.7413C9.64501 16.2895 10.8261 15.1083 12.2779 15.1083C12.5491 15.1083 12.809 15.1531 13.0549 15.2301V12.0325C12.8006 11.998 12.5421 11.9761 12.2779 11.9761C12.2322 11.9761 12.1874 11.9784 12.1417 11.9793H12.1295L12.1211 14.4004C11.8752 14.3234 11.6358 14.2893 11.3647 14.2893V14.2898Z" fill="#FE2C55"/>
<path d="M21.4872 9.54919L21.4727 9.54639L21.4718 11.9647C19.8478 11.9647 18.339 11.4303 17.1103 10.5483L17.1112 16.9468C17.1112 20.1257 14.5436 22.6957 11.3647 22.6957C10.1364 22.6957 8.99729 22.3242 8.06116 21.6667C9.11442 22.7974 10.6143 23.5063 12.278 23.5063C15.4569 23.5063 18.0427 20.92 18.0427 17.7415V11.3767C19.271 12.2582 20.776 12.7781 22.4 12.7781V9.64625C22.0868 9.64625 21.7816 9.61219 21.4872 9.54919Z" fill="#FE2C55"/>
<path d="M17.1295 16.9469V10.582C18.3577 11.4635 19.8627 11.9834 21.4867 11.9834V9.54926C20.5487 9.3486 19.7223 8.8446 19.1137 8.146C18.1323 7.5062 17.4239 6.48233 17.2032 5.28906H14.91L14.9049 17.841C14.8521 19.2466 13.6953 20.3745 12.2771 20.3745C11.3988 20.3745 10.6213 19.9405 10.143 19.2774C9.30486 18.8364 8.73133 17.9581 8.73133 16.9473C8.73133 15.4955 9.91246 14.3144 11.3643 14.3144C11.6354 14.3144 11.8953 14.3592 12.1413 14.4362V11.9806C9.02533 12.0534 6.51233 14.6089 6.51233 17.7421C6.51233 19.2573 7.1008 20.6373 8.06026 21.6672C8.9964 22.3247 10.1355 22.7121 11.3638 22.7121C14.5427 22.7121 17.1285 20.1258 17.1285 16.9473L17.1295 16.9469Z" fill="white"/>
</g>
<defs>
<clipPath id="clip0_1286_9517">
<rect width="28" height="28" fill="white"/>
</clipPath>
</defs>
</svg>
