<svg width="50" height="49" viewBox="0 0 50 49" fill="none" xmlns="http://www.w3.org/2000/svg">
<path fill-rule="evenodd" clip-rule="evenodd" d="M25.9983 44.0123L38.2057 44.0001L38.2152 47.2459L26.0139 47.251L25.9983 44.0123ZM47.9861 44.0098L47.9786 47.2511L43.7832 47.2257L43.2758 44.002L47.9861 44.0098ZM14.2594 42.7414L15.153 44.5495L11.4472 46.9193C11.0837 46.3174 10.5501 45.7719 10.1828 45.138L14.2594 42.7414ZM16.7807 44.0611L24.3536 43.9996L24.3637 47.2415L14.1756 47.2471C14.6324 46.7776 15.4849 46.2858 16.0386 45.9248C16.8872 45.3716 17.266 45.1219 16.7807 44.0611ZM12.174 14.4233C14.2255 13.7521 16.5664 12.5985 18.6284 11.7587C20.9781 10.8017 20.5494 10.653 21.6533 11.4145C22.81 12.2124 24.2724 12.636 24.3665 13.0979L24.3589 42.3742L15.8903 42.3584C14.309 38.475 14.0563 40.1301 17.0187 36.1725L19.2449 33.1026C18.8676 32.6826 18.4084 32.4076 18.0157 32.2019C17.1334 33.0628 14.6727 36.9459 13.8925 37.4116C13.5534 35.8123 12.1527 33.3739 12.1514 31.8015L12.174 14.4233ZM6.74027 22.1577C6.58499 22.4306 6.70659 22.2287 6.6002 22.6049L13.5706 41.1923C12.295 41.9178 10.5293 43.0867 9.21947 43.6503C8.54883 43.0078 7.42869 41.0313 6.8088 40.0604C4.06645 35.7647 2.23216 32.4242 2.39704 26.4287C2.49418 22.8987 3.50463 19.6278 4.98743 17.0048C6.24147 14.7867 8.25985 11.8654 10.5243 10.6195L10.4429 28.0281L8.10229 21.7718L6.74027 22.1577ZM45.8642 17.9956C46.5689 19.6335 47.7176 22.4138 47.7502 24.4185L45.962 25.0439L43.4078 19.1283L45.8642 17.9956ZM42.9856 42.3334C42.141 37.3264 41.4389 32.2454 40.6538 27.2378C39.8678 22.2248 39.4807 15.8331 39.8732 10.7056C40.7528 11.1588 42.0449 12.6387 42.6956 13.3432C43.5701 14.2896 44.36 15.3037 44.9905 16.4934C41.7133 18.6272 40.6771 17.2338 42.3147 20.8795C45.9971 29.0783 44.4893 26.7427 47.9846 26.1355L47.9701 42.3763L42.9856 42.3334ZM30.8576 9.70096C31.1282 9.12676 31.3737 8.89894 31.6822 8.3596C31.929 7.92754 32.1332 7.41791 32.3742 6.97191L38.2075 9.52868L38.2048 12.6818L30.8576 9.70096ZM25.1415 8.68649L24.3465 6.59669L26.0397 6.60651L25.1415 8.68649ZM23.9179 10.3931C23.936 10.4349 23.9776 10.4881 23.9848 10.5125C23.992 10.5361 24.0184 10.6161 24.0249 10.6399C24.1417 11.0751 24.0522 10.6385 24.0026 10.9196L23.6008 10.7087C20.8613 9.00458 18.454 7.24899 20.0514 2.7689C21.3639 4.00986 23.3808 8.01759 23.9179 10.3931ZM26.7707 10.7129L26.3526 10.924C26.2996 10.3556 26.2124 10.7111 26.5209 10.3471C26.6881 7.77359 29.4975 4.10341 30.1615 2.77427C30.3333 2.97984 30.2544 2.83805 30.3911 3.14712L30.8271 5.50433C31.0586 7.99333 28.2158 9.72165 26.7707 10.7129ZM23.5537 4.93328C23.0847 4.40275 22.8074 3.79282 22.4735 3.27932C22.0769 2.66984 21.779 2.32155 21.3994 1.71297L28.9735 1.71162L26.8114 4.96328L23.5537 4.93328ZM23.7166 0.0862951C20.1903 0.0868677 18.157 -0.700136 17.8795 5.64599C17.7999 7.46844 18.9835 8.55264 19.4922 9.64292L12.1497 12.6406L12.1689 9.54751L16.5354 7.5459L15.8722 6.15104C9.44615 8.61913 6.20605 10.8688 2.88675 17.5057C-0.113624 23.5047 0.208255 31.3866 3.15435 37.2119C4.51012 39.8934 8.59233 45.8055 10.4718 48.2824C11.1255 49.1439 11.7922 48.8845 12.9656 48.8817L37.2366 48.8809C39.9101 48.8855 40.136 49.4954 39.8525 43.498C39.7732 41.8163 37.5249 42.3726 35.9336 42.3726C32.6331 42.3722 29.3136 42.4078 25.9966 42.3693L26.0126 12.9352C26.5392 12.466 28.1186 11.855 28.9101 11.2772C29.8342 10.6026 29.6435 10.9247 31.8505 11.8072C33.9583 12.6499 36.0391 13.6453 38.2115 14.4253L38.2224 40.7501L39.8439 40.7281L39.8518 33.5031C40.1685 34.1259 40.4763 36.6902 40.5921 37.4117C40.8892 39.2621 42.0953 48.3124 42.6119 48.7049C43.432 49.0883 48.8089 49.0454 49.3671 48.6299C49.9769 47.7947 49.617 39.1784 49.617 37.3312C49.617 29.5579 50.4951 23.6552 47.1047 16.9103C45.8622 14.4386 43.8329 11.7975 42.1669 10.4498C38.8353 7.75447 39.0241 8.09984 34.7902 6.26549C32.3089 5.19032 32.4641 5.53691 32.282 4.38621C31.4646 -0.779444 31.3447 0.0851498 23.7166 0.0862951Z" fill="white"/>
</svg>
