<svg width="25" height="24" viewBox="0 0 25 24" fill="none" xmlns="http://www.w3.org/2000/svg">
<path d="M18.332 10C18.332 7.87827 17.4892 5.84344 15.9889 4.34315C14.4886 2.84285 12.4538 2 10.332 2C8.2103 2 6.17547 2.84285 4.67518 4.34315C3.17489 5.84344 2.33203 7.87827 2.33203 10C2.33203 14.993 7.87103 20.193 9.73103 21.799C9.9044 21.929 10.1153 21.9992 10.332 21.999M18.332 22V19M15.332 22C15.0668 22 14.8125 21.8946 14.6249 21.7071C14.4374 21.5196 14.332 21.2652 14.332 21V17C14.332 16.8354 14.3726 16.6734 14.4502 16.5282C14.5279 16.3831 14.6401 16.2593 14.777 16.168L17.777 14.168C17.9414 14.0584 18.1345 13.9999 18.332 13.9999C18.5296 13.9999 18.7227 14.0584 18.887 14.168L21.887 16.168C22.0239 16.2593 22.1362 16.3831 22.2138 16.5282C22.2915 16.6734 22.3321 16.8354 22.332 17V21C22.332 21.2652 22.2267 21.5196 22.0391 21.7071C21.8516 21.8946 21.5972 22 21.332 22H15.332ZM13.332 10C13.332 11.6569 11.9889 13 10.332 13C8.67518 13 7.33203 11.6569 7.33203 10C7.33203 8.34315 8.67518 7 10.332 7C11.9889 7 13.332 8.34315 13.332 10Z" stroke="black" stroke-width="2" stroke-linecap="round" stroke-linejoin="round"/>
</svg>
