<svg width="24" height="24" viewBox="0 0 24 24" fill="none" xmlns="http://www.w3.org/2000/svg">
<path d="M13.2283 21.925C11.1991 22.1762 9.14173 21.7993 7.33336 20.8451C5.52499 19.8909 4.05256 18.4053 3.11451 16.5885C2.17646 14.7718 1.81786 12.7111 2.08705 10.6842C2.35624 8.65734 3.24027 6.7617 4.62001 5.25273C5.99975 3.74377 7.80889 2.69401 9.80362 2.24492C11.7984 1.79584 13.8828 1.969 15.7761 2.74109C17.6694 3.51318 19.2805 4.84707 20.3923 6.56302C21.5042 8.27898 22.0633 10.2945 21.9943 12.338M12.0003 6.00001V12L13.5623 12.781M14.0003 18L18.0003 14M18.0003 14L22.0003 18M18.0003 14V22" stroke="black" stroke-width="2" stroke-linecap="round" stroke-linejoin="round"/>
</svg>
