<svg width="31" height="32" viewBox="0 0 31 32"   xmlns="http://www.w3.org/2000/svg">
<path fill-rule="evenodd" clip-rule="evenodd" d="M27.1323 7.83401C28.6748 10.2195 29.5 13.0274 29.5 15.9024C29.5 19.7584 28.0173 23.4501 25.388 26.1671C22.7598 28.8829 19.2023 30.4024 15.5 30.4024C12.7385 30.4024 10.0362 29.5563 7.73463 27.9672C5.43264 26.3778 3.63362 24.1152 2.57002 21.4619C1.50632 18.8083 1.22754 15.8866 1.7702 13.0675C2.31284 10.2485 3.65148 7.66349 5.612 5.63762C7.57219 3.61209 10.0656 2.2366 12.775 1.6797C15.4841 1.12285 18.2926 1.40833 20.8468 2.50155C23.4013 3.59494 25.59 5.44886 27.1323 7.83401ZM27.9721 7.29101C29.6203 9.83997 30.5 12.8367 30.5 15.9024C30.5 20.0132 28.9197 23.9557 26.1066 26.8625C23.2936 29.7693 19.4783 31.4024 15.5 31.4024C12.5333 31.4024 9.63319 30.4933 7.16645 28.7901C4.69971 27.087 2.77713 24.6662 1.64181 21.8339C0.5065 19.0017 0.209449 15.8852 0.788227 12.8785C1.36701 9.87175 2.79562 7.10991 4.8934 4.94219C6.99119 2.77448 9.66394 1.29825 12.5737 0.700178C15.4834 0.102108 18.4994 0.40906 21.2403 1.58222C23.9812 2.75538 26.3238 4.74205 27.9721 7.29101Z" />
<path fill-rule="evenodd" clip-rule="evenodd" d="M21.1478 12.8665C21.4929 13.2242 21.4826 13.794 21.1248 14.139L16.1248 18.9613C15.7761 19.2975 15.2239 19.2975 14.8752 18.9613L9.87523 14.139C9.51746 13.794 9.50714 13.2242 9.8522 12.8665C10.1973 12.5087 10.767 12.4984 11.1248 12.8434L15.5 17.0631L19.8752 12.8434C20.233 12.4984 20.8028 12.5087 21.1478 12.8665Z" />
</svg>
