<svg width="25" height="23" viewBox="0 0 25 23" fill="none" xmlns="http://www.w3.org/2000/svg">
<path d="M0.984375 10.7954C0.570161 10.7954 0.234375 11.1312 0.234375 11.5454C0.234375 11.9596 0.570161 12.2954 0.984375 12.2954V10.7954ZM15.3956 12.0757C15.6885 11.7828 15.6885 11.308 15.3956 11.0151L10.6226 6.24211C10.3297 5.94922 9.85483 5.94922 9.56193 6.24211C9.26904 6.535 9.26904 7.00988 9.56193 7.30277L13.8046 11.5454L9.56193 15.7881C9.26904 16.0809 9.26904 16.5558 9.56193 16.8487C9.85483 17.1416 10.3297 17.1416 10.6226 16.8487L15.3956 12.0757ZM0.984375 12.2954H14.8652V10.7954H0.984375V12.2954Z" fill="white"/>
<path fill-rule="evenodd" clip-rule="evenodd" d="M10.8621 1.84473H13.7649C19.1228 1.84473 23.4662 6.18815 23.4662 11.546C23.4662 16.9039 19.1228 21.2473 13.7649 21.2473H10.8622C7.79991 21.2473 5.06904 19.8285 3.29107 17.6124H1.44416C3.43834 20.702 6.91139 22.7473 10.8622 22.7473H13.7649C19.9512 22.7473 24.9662 17.7323 24.9662 11.546C24.9662 5.35972 19.9512 0.344727 13.7649 0.344727H10.8621C6.75534 0.344727 3.16473 2.55485 1.21484 5.85059H3.00782C4.77112 3.42309 7.63231 1.84473 10.8621 1.84473Z" fill="white"/>
</svg>
