<svg width="20" height="20" viewBox="0 0 20 20"  xmlns="http://www.w3.org/2000/svg">
<path d="M10.001 1C8.13869 1 6.61 2.56102 6.61 4.46277V5.15532H3.26103L3.21898 5.80493L2.54077 18.2709L2.49805 19.0063H17.5033L17.4613 18.2702L16.7831 5.80424L16.7404 5.15532H13.3921V4.46277C13.3921 2.56102 11.8634 1 10.001 1ZM10.001 2.38511C10.5406 2.38511 11.0581 2.604 11.4397 2.99364C11.8213 3.38328 12.0357 3.91174 12.0357 4.46277V5.15532H7.96646V4.46277C7.96646 3.91174 8.18079 3.38328 8.56232 2.99364C8.94394 2.604 9.46141 2.38511 10.001 2.38511ZM4.53266 6.54043H6.61V8.61809H7.96646V6.54043H12.0357V8.61809H13.3921V6.54043H15.4694L16.0628 17.6213H3.93991L4.53266 6.54043Z" />
</svg>
