<svg width="40" height="40" viewBox="0 0 40 40" xmlns="http://www.w3.org/2000/svg">
<path fill-rule="evenodd" clip-rule="evenodd" d="M5.7063 10.6484C5.7063 10.2342 6.04209 9.89844 6.4563 9.89844H9.99954C10.3253 9.89844 10.6139 10.1088 10.7136 10.4189L11.8724 14.0238H33.1078C33.3545 14.0238 33.5854 14.145 33.7253 14.3482C33.8653 14.5513 33.8965 14.8102 33.8087 15.0407L31.4501 21.2327C31.3027 21.6197 30.8694 21.814 30.4823 21.6666C30.0952 21.5191 29.9009 21.0858 30.0484 20.6987L32.0195 15.5238H12.3546L14.8757 23.3664L24.9936 24.727C25.4042 24.7823 25.6922 25.1598 25.637 25.5703C25.5818 25.9808 25.2042 26.2689 24.7937 26.2137L14.2066 24.7899C13.92 24.7513 13.6811 24.5514 13.5926 24.2761L9.45284 11.3984H6.4563C6.04209 11.3984 5.7063 11.0627 5.7063 10.6484Z" />
<path fill-rule="evenodd" clip-rule="evenodd" d="M14.5081 23.3696C14.9036 23.4928 15.1243 23.9133 15.0011 24.3087L13.569 23.8626C13.6922 23.4671 14.1126 23.2464 14.5081 23.3696ZM13.569 23.8626L13.4526 24.2372C13.3804 24.4701 13.28 24.7944 13.1675 25.1601C12.9427 25.8907 12.6681 26.7899 12.4718 27.4561C12.1822 28.4386 12.5756 29.3886 13.392 29.8402C14.2054 30.2901 15.2534 30.1569 16.1598 29.4451C16.8409 28.9103 17.6125 28.2996 18.3786 27.6932C19.2555 26.9991 20.1251 26.3108 20.8432 25.7488C21.1694 25.4936 21.2269 25.0222 20.9717 24.696C20.7164 24.3698 20.245 24.3123 19.9188 24.5676C19.2056 25.1257 18.3243 25.8232 17.4395 26.5235C16.6709 27.1318 15.8996 27.7422 15.2334 28.2654C14.6929 28.6898 14.2932 28.6245 14.1181 28.5276C13.946 28.4325 13.8102 28.2208 13.9106 27.8802C14.1042 27.2232 14.3765 26.3313 14.6011 25.6013C14.7133 25.2368 14.8133 24.9136 14.8853 24.6815L15.0011 24.3087L13.569 23.8626Z" />
<path fill-rule="evenodd" clip-rule="evenodd" d="M29.2811 21.5744C27.341 21.5744 25.7682 23.1471 25.7682 25.0872C25.7682 27.0273 27.341 28.6001 29.2811 28.6001C31.2212 28.6001 32.794 27.0273 32.794 25.0872C32.794 23.1471 31.2212 21.5744 29.2811 21.5744ZM24.2682 25.0872C24.2682 22.3187 26.5126 20.0744 29.2811 20.0744C32.0496 20.0744 34.294 22.3187 34.294 25.0872C34.294 27.8558 32.0496 30.1001 29.2811 30.1001C26.5126 30.1001 24.2682 27.8558 24.2682 25.0872Z" />
</svg>
