<svg width="40" height="40" viewBox="0 0 40 40"  xmlns="http://www.w3.org/2000/svg">
<path fill-rule="evenodd" clip-rule="evenodd" d="M10.097 16.342C10.3682 16.1303 10.7487 16.1303 11.0199 16.342L14.5783 19.1193C14.7604 19.2615 14.8668 19.4796 14.8668 19.7106V27.592C14.8668 28.0062 14.5311 28.342 14.1168 28.342H7C6.80109 28.342 6.61032 28.2629 6.46967 28.1223C6.32902 27.9816 6.25 27.7909 6.25 27.592V19.7106C6.25 19.4796 6.35645 19.2615 6.53854 19.1193L10.097 16.342ZM7.75 20.0766V26.842H13.3668V20.0766L10.5584 17.8846L7.75 20.0766Z" />
<path fill-rule="evenodd" clip-rule="evenodd" d="M29.8118 13.2812C30.083 13.0695 30.4635 13.0695 30.7347 13.2812L34.2931 16.0585C34.4752 16.2007 34.5817 16.4188 34.5817 16.6498V24.5312C34.5817 24.9454 34.2459 25.2812 33.8317 25.2812H26.7148C26.5159 25.2812 26.3252 25.2022 26.1845 25.0615C26.0439 24.9209 25.9648 24.7301 25.9648 24.5312V16.6498C25.9648 16.4188 26.0713 16.2007 26.2534 16.0585L29.8118 13.2812ZM27.4648 17.0158V23.7812H33.0817V17.0158L30.2733 14.8239L27.4648 17.0158Z" />
<path d="M11.8129 21.4195C11.8129 22.1003 11.2611 22.6522 10.5803 22.6522C9.89953 22.6522 9.34766 22.1003 9.34766 21.4195C9.34766 20.7388 9.89953 20.1869 10.5803 20.1869C11.2611 20.1869 11.8129 20.7388 11.8129 21.4195Z" />
<path d="M31.5356 18.36C31.5356 19.0407 30.9837 19.5926 30.3029 19.5926C29.6222 19.5926 29.0703 19.0407 29.0703 18.36C29.0703 17.6792 29.6222 17.1273 30.3029 17.1273C30.9837 17.1273 31.5356 17.6792 31.5356 18.36Z" />
<path fill-rule="evenodd" clip-rule="evenodd" d="M9.53882 13.1351C9.46534 12.7274 9.73623 12.3374 10.1439 12.2639L30.1553 8.65656C30.5629 8.58307 30.9529 8.85396 31.0264 9.26161C31.0999 9.66925 30.829 10.0593 30.4214 10.1328L10.41 13.7401C10.0023 13.8136 9.6123 13.5427 9.53882 13.1351Z" />
<path fill-rule="evenodd" clip-rule="evenodd" d="M20.75 30.2477C20.3358 30.2477 20 29.9119 20 29.4977L20 11.5754C20 11.1612 20.3358 10.8254 20.75 10.8254C21.1642 10.8254 21.5 11.1612 21.5 11.5754L21.5 29.4977C21.5 29.9119 21.1642 30.2477 20.75 30.2477Z" />
</svg>
