<svg width="18" height="20" viewBox="0 0 18 20" fill="none" xmlns="http://www.w3.org/2000/svg">
<path fill-rule="evenodd" clip-rule="evenodd" d="M0.411133 0.993164C0.411133 0.57895 0.746919 0.243164 1.16113 0.243164H16.4207C16.8349 0.243164 17.1707 0.57895 17.1707 0.993164V18.9091C17.1707 19.3233 16.8349 19.6591 16.4207 19.6591H1.16113C0.746919 19.6591 0.411133 19.3233 0.411133 18.9091V0.993164ZM1.91113 1.74316V18.1591H15.6707V1.74316H1.91113Z" fill="#0090C3"/>
<path fill-rule="evenodd" clip-rule="evenodd" d="M3.30176 4.22852C3.30176 3.8143 3.63754 3.47852 4.05176 3.47852H13.531C13.9452 3.47852 14.281 3.8143 14.281 4.22852C14.281 4.64273 13.9452 4.97852 13.531 4.97852H4.05176C3.63754 4.97852 3.30176 4.64273 3.30176 4.22852ZM3.30176 15.3084C3.30176 14.8942 3.63754 14.5584 4.05176 14.5584H6.15441C6.56863 14.5584 6.90441 14.8942 6.90441 15.3084C6.90441 15.7226 6.56863 16.0584 6.15441 16.0584H4.05176C3.63754 16.0584 3.30176 15.7226 3.30176 15.3084Z" fill="#0090C3"/>
</svg>
