<svg width="19" height="18" viewBox="0 0 19 18"  xmlns="http://www.w3.org/2000/svg">
<path fill-rule="evenodd" clip-rule="evenodd" d="M3.64941 6.43652C3.64941 4.91774 4.88063 3.68652 6.39941 3.68652H9.77065C11.2894 3.68652 12.5206 4.91774 12.5206 6.43652V7.04507H11.0206V6.43652C11.0206 5.74617 10.461 5.18652 9.77065 5.18652H6.39941C5.70906 5.18652 5.14941 5.74617 5.14941 6.43652V9.80775C5.14941 10.4981 5.70906 11.0578 6.39941 11.0578H7.2869V12.5578H6.39941C4.88063 12.5578 3.64941 11.3265 3.64941 9.80775V6.43652Z"/>
<path fill-rule="evenodd" clip-rule="evenodd" d="M6.69629 9.1914C6.69629 7.67262 7.92751 6.44141 9.44629 6.44141H12.8177C14.3364 6.44141 15.5677 7.67262 15.5677 9.19141V12.5628C15.5677 14.0816 14.3364 15.3128 12.8177 15.3128H9.44629C7.9275 15.3128 6.69629 14.0816 6.69629 12.5628V9.1914ZM9.44629 7.94141C8.75593 7.94141 8.19629 8.50105 8.19629 9.1914V12.5628C8.19629 13.2531 8.75593 13.8128 9.44629 13.8128H12.8177C13.508 13.8128 14.0677 13.2531 14.0677 12.5628V9.19141C14.0677 8.50105 13.508 7.94141 12.8177 7.94141H9.44629Z"/>
</svg>
