<svg width="20" height="20" viewBox="0 0 20 20" fill="none" xmlns="http://www.w3.org/2000/svg">
<path fill-rule="evenodd" clip-rule="evenodd" d="M9.70577 1.58838C5.18609 1.58838 1.5 5.32022 1.5 9.95126C1.5 14.5823 5.18609 18.3141 9.70577 18.3141C14.2254 18.3141 17.9115 14.5823 17.9115 9.95126C17.9115 5.32022 14.2254 1.58838 9.70577 1.58838ZM0 9.95126C0 4.51649 4.33318 0.0883789 9.70577 0.0883789C15.0784 0.0883789 19.4115 4.51649 19.4115 9.95126C19.4115 15.386 15.0784 19.8141 9.70577 19.8141C4.33318 19.8141 0 15.386 0 9.95126Z" fill="#0090C3"/>
<path d="M8.45311 15.0705V8.1058H10.8534V15.0705H8.45311ZM9.70577 6.52563C9.35577 6.52563 9.06577 6.41563 8.83577 6.19563C8.61577 5.97563 8.50577 5.71063 8.50577 5.40063C8.50577 5.08063 8.61577 4.81563 8.83577 4.60563C9.06577 4.38563 9.35577 4.27563 9.70577 4.27563C10.0558 4.27563 10.3408 4.38063 10.5608 4.59063C10.7908 4.79063 10.9058 5.04563 10.9058 5.35563C10.9058 5.68563 10.7958 5.96563 10.5758 6.19563C10.3558 6.41563 10.0658 6.52563 9.70577 6.52563Z" fill="#0090C3"/>
</svg>
