<svg width="24" height="23" viewBox="0 0 24 23" fill="none" xmlns="http://www.w3.org/2000/svg">
<path d="M19 0.182129H5C3.67441 0.183717 2.40356 0.711011 1.46622 1.64835C0.528882 2.58569 0.00158786 3.85653 0 5.18213L0 17.1821C0.00158786 18.5077 0.528882 19.7786 1.46622 20.7159C2.40356 21.6532 3.67441 22.1805 5 22.1821H19C20.3256 22.1805 21.5964 21.6532 22.5338 20.7159C23.4711 19.7786 23.9984 18.5077 24 17.1821V5.18213C23.9984 3.85653 23.4711 2.58569 22.5338 1.64835C21.5964 0.711011 20.3256 0.183717 19 0.182129ZM5 2.18213H19C19.5988 2.18331 20.1835 2.36364 20.679 2.69993C21.1744 3.03622 21.5579 3.51308 21.78 4.06913L14.122 11.7281C13.5584 12.2894 12.7954 12.6046 12 12.6046C11.2046 12.6046 10.4416 12.2894 9.878 11.7281L2.22 4.06913C2.44215 3.51308 2.82561 3.03622 3.32105 2.69993C3.81648 2.36364 4.40121 2.18331 5 2.18213ZM19 20.1821H5C4.20435 20.1821 3.44129 19.8661 2.87868 19.3034C2.31607 18.7408 2 17.9778 2 17.1821V6.68213L8.464 13.1421C9.40263 14.0784 10.6743 14.6042 12 14.6042C13.3257 14.6042 14.5974 14.0784 15.536 13.1421L22 6.68213V17.1821C22 17.9778 21.6839 18.7408 21.1213 19.3034C20.5587 19.8661 19.7956 20.1821 19 20.1821Z" fill="#1C1C1E"/>
</svg>
