<svg width="21" height="21" viewBox="0 0 21 21" fill="none" xmlns="http://www.w3.org/2000/svg">
<path d="M13.5844 15.0273C13.7683 14.4629 14.6301 8.83859 14.7366 7.73033C14.7688 7.39468 14.6627 7.17164 14.4549 7.07207C14.2035 6.9512 13.8314 7.01164 13.3996 7.16729C12.8075 7.38077 5.23702 10.5951 4.79963 10.7812C4.38485 10.9573 3.99268 11.1495 3.99268 11.4277C3.99268 11.6234 4.10876 11.7334 4.42876 11.8477C4.76181 11.9664 5.6005 12.2208 6.09572 12.3573C6.57268 12.489 7.11572 12.3747 7.42007 12.1855C7.74268 11.9851 11.4657 9.49381 11.7331 9.27555C12.0001 9.05729 12.2131 9.33685 11.9949 9.55555C11.7766 9.77381 9.22094 12.2542 8.88398 12.5977C8.47485 13.0147 8.76529 13.4469 9.03963 13.6199C9.35311 13.8173 11.6075 15.3295 11.947 15.5721C12.2866 15.8147 12.6309 15.9247 12.9462 15.9247C13.2614 15.9247 13.4275 15.5095 13.5844 15.0273Z" fill="#0090C3"/>
<path fill-rule="evenodd" clip-rule="evenodd" d="M19.1348 10.9512C19.1348 5.98041 15.1055 1.95117 10.1348 1.95117C5.16401 1.95117 1.13477 5.98041 1.13477 10.9512C1.13477 15.9219 5.16401 19.9512 10.1348 19.9512C15.1055 19.9512 19.1348 15.9219 19.1348 10.9512ZM10.1348 0.951172C15.6578 0.951172 20.1348 5.42813 20.1348 10.9512C20.1348 16.4742 15.6578 20.9512 10.1348 20.9512C4.61172 20.9512 0.134766 16.4742 0.134766 10.9512C0.134766 5.42813 4.61172 0.951172 10.1348 0.951172Z" fill="#0090C3"/>
</svg>
