<svg width="22" height="22" viewBox="0 0 22 22" fill="none" xmlns="http://www.w3.org/2000/svg">
<path d="M21.42 1.85422V5.52089C21.42 5.764 21.3278 5.99716 21.1637 6.16907C20.9996 6.34098 20.777 6.43755 20.545 6.43755C20.3129 6.43755 20.0903 6.34098 19.9262 6.16907C19.7622 5.99716 19.67 5.764 19.67 5.52089V3.17147L15.0325 8.00414C14.867 8.17069 14.6457 8.26249 14.4163 8.25975C14.1868 8.25701 13.9676 8.15995 13.8058 7.98948C13.644 7.81902 13.5526 7.58879 13.5512 7.34841C13.5499 7.10802 13.6388 6.87671 13.7987 6.70431L18.4537 1.85422H16.17C15.9379 1.85422 15.7153 1.75765 15.5512 1.58574C15.3872 1.41383 15.295 1.18067 15.295 0.937556C15.295 0.69444 15.3872 0.461283 15.5512 0.289374C15.7153 0.117466 15.9379 0.0208889 16.17 0.0208889H19.67C20.1341 0.0208889 20.5792 0.214043 20.9074 0.55786C21.2356 0.901676 21.42 1.36799 21.42 1.85422ZM20.6281 15.365C21.1352 15.8977 21.4199 16.6193 21.4199 17.3716C21.4199 18.1239 21.1352 18.8455 20.6281 19.3781L19.8301 20.3406C12.663 27.5255 -4.77491 9.26272 1.98009 1.73231L2.98546 0.815639C3.4948 0.299346 4.17751 0.0136114 4.88621 0.0201286C5.59491 0.0266458 6.27274 0.324892 6.77334 0.850472C6.79959 0.878889 8.42096 3.08622 8.42096 3.08622C8.90193 3.61555 9.16974 4.31865 9.16876 5.04945C9.16778 5.78025 8.89809 6.48256 8.41571 7.01047L7.40159 8.34605C7.96233 9.77341 8.78677 11.0706 9.82753 12.1631C10.8683 13.2557 12.1049 14.122 13.4662 14.7123L14.7481 13.6444C15.252 13.1393 15.9222 12.8569 16.6195 12.8559C17.3169 12.8549 17.9879 13.1353 18.4931 13.6389C18.4931 13.6389 20.601 15.3375 20.6281 15.365ZM19.425 16.6978C19.425 16.6978 17.3311 15.0093 17.304 14.9818C17.1237 14.7946 16.8801 14.6895 16.6263 14.6895C16.3724 14.6895 16.1289 14.7946 15.9486 14.9818C15.925 15.0056 14.1601 16.4796 14.1601 16.4796C14.0412 16.5788 13.8996 16.6438 13.7494 16.6683C13.5992 16.6927 13.4455 16.6757 13.3035 16.619C11.5388 15.9315 9.93592 14.8543 8.60371 13.4606C7.27149 12.0668 6.2411 10.3891 5.58246 8.54131C5.52485 8.39108 5.50623 8.22755 5.52852 8.06734C5.5508 7.90714 5.61319 7.75597 5.70934 7.62922C5.70934 7.62922 7.11546 5.78031 7.13909 5.75555C7.31782 5.56671 7.41811 5.31154 7.41811 5.0456C7.41811 4.77966 7.31782 4.52448 7.13909 4.33564C7.11284 4.30814 5.50109 2.11364 5.50109 2.11364C5.31824 1.94165 5.07951 1.84944 4.83385 1.85592C4.58819 1.8624 4.3542 1.96707 4.17984 2.14847L3.17446 3.06514C-1.76404 9.28197 13.3498 24.2383 18.55 19.0903L19.348 18.1278C19.5361 17.9469 19.6494 17.6963 19.6638 17.4292C19.6782 17.1621 19.5925 16.8997 19.425 16.6978Z" fill="#1C1C1E"/>
</svg>
