<svg width="40" height="40" xmlns="http://www.w3.org/2000/svg"><path fill-rule="evenodd" clip-rule="evenodd" d="M14.94 22.82c1.381 0 2.44-1.085 2.44-2.347 0-1.261-1.059-2.346-2.44-2.346-1.382 0-2.44 1.085-2.44 2.346 0 1.262 1.058 2.346 2.44 2.346zm0 1.5c2.175 0 3.94-1.723 3.94-3.847 0-2.124-1.765-3.846-3.94-3.846-2.176 0-3.94 1.722-3.94 3.846s1.764 3.846 3.94 3.846zM25.485 15.688c1.239 0 2.181-.972 2.181-2.094 0-1.123-.942-2.094-2.181-2.094-1.24 0-2.182.971-2.182 2.094 0 1.123.942 2.094 2.182 2.094zm0 1.5c2.033 0 3.681-1.61 3.681-3.594 0-1.985-1.648-3.594-3.681-3.594-2.034 0-3.682 1.61-3.682 3.594 0 1.985 1.648 3.594 3.682 3.594zM25.567 29.45c1.24 0 2.182-.972 2.182-2.094 0-1.123-.943-2.094-2.182-2.094-1.24 0-2.181.971-2.181 2.094 0 1.122.942 2.094 2.181 2.094zm0 1.5c2.033 0 3.682-1.61 3.682-3.594 0-1.985-1.649-3.594-3.682-3.594s-3.681 1.609-3.681 3.594c0 1.985 1.648 3.594 3.681 3.594z"/><path fill-rule="evenodd" clip-rule="evenodd" d="M23.386 15.61l-5.318 3.457-.845-1.24 5.318-3.457.845 1.24zM22.828 26.315l-5.462-3.247.794-1.272 5.462 3.246-.794 1.273z"/></svg>