<svg width="21" height="21" xmlns="http://www.w3.org/2000/svg"><path d="M6.836.83L7.08.827c.17-.001.34-.001.51 0 .172 0 .344-.001.515-.003 2.546-.031 2.546-.031 3.115.453.093.106.15.216.213.342l.068.134c.05.112.05.112.05.196l.113.035c.136.046.261.1.39.163l.146.07.154.075.08.038.42.205.429.207.333.162.234.112c.833.41 1.47 1.009 1.776 1.887.078.246.115.464.112.722v.147l-.002.112a724.159 724.159 0 013.858-.019l.12-.002c.263.002.263.002.402.094.07.108.081.164.08.29l-.001.119-.003.128v.274c0 .142-.002.285-.004.427-.007.54.026 1.02.18 1.54.166.607.192 1.178.187 1.803v.338c.002.27 0 .54 0 .81-.002.316-.002.632-.002.947 0 .563 0 1.125-.003 1.688l-.003 1.635-.001 2.074v.66a152.944 152.944 0 01-.003 1.21l-.002.441v.131c-.003.287-.003.287-.1.426-.145.088-.29.08-.455.079h-1.921a89.372 89.372 0 01-.767 0H16.848c-.143-.001-.235-.005-.35-.093-.092-.114-.109-.185-.128-.329l-.019-.135c-.005-.044-.01-.089-.017-.135l-.016-.117a27.39 27.39 0 01-.044-.35l-.017-.132a207.501 207.501 0 01-.09-.727l-.076-.625a545.715 545.715 0 00-.212-1.713l-.05-.412-.015-.122a4.593 4.593 0 01-.035-.658h-.085l-.005.11a24.64 24.64 0 01-.159 1.615l-.036.302a636.112 636.112 0 01-.172 1.435 219.835 219.835 0 01-.161 1.334l-.014.124c-.027.21-.06.38-.179.564-.137.067-.287.049-.437.05a37.558 37.558 0 01-.473.002h-.124l-.654.002c-.225 0-.45.002-.676.004a89.726 89.726 0 01-.768.003h-.348l-.104.002c-.141-.001-.237-.005-.353-.087-.103-.136-.1-.25-.096-.413v-.094l.002-.307.001-.213c0-.187.002-.374.004-.56l.004-.573.008-1.123h-.125a1585.557 1585.557 0 01-4.46.012 411.565 411.565 0 01-1.938.006 94.887 94.887 0 01-.863.002h-.316l-.093.002a.538.538 0 01-.337-.09c-.087-.13-.088-.213-.087-.368v-.167a560.068 560.068 0 01.001-.376l.002-.524.002-.548c0-.346.002-.691.003-1.037l.004-1.181.009-2.43-.097.002a157.842 157.842 0 01-1.358.011l-.445.004-.253.003H.311c-.15-.025-.2-.066-.288-.187C0 10.638 0 10.638 0 10.52L0 10.383l.001-.148v-.158-.427-.448c0-.25 0-.502.002-.753V7.58a219.505 219.505 0 01.002-1.69v-.147c.004-.442.092-.85.3-1.243l.045-.086c.43-.79 1.1-1.157 1.887-1.541l.43-.212.614-.304a2794.346 2794.346 0 01.475-.233l.108-.054.1-.048.086-.043c.072-.03.072-.03.157-.03l.027-.097c.213-.56.213-.56.425-.674a4.04 4.04 0 01.355-.088c.093-.021.185-.046.277-.072A5.582 5.582 0 016.836.83zm-.323.701v.67h2.733v-.67H6.513zm3.416.126l.002.12-.001.447v.193c.005.384-.012.662-.296.955l-.089.085a7.313 7.313 0 00-.123.144l-.11.125c-.176.204-.35.41-.52.619a3.804 3.804 0 01-.23.244c-.21.212-.364.372-.373.679.004.123.015.244.032.366a4 4 0 00.674-.284l.12-.06c.125-.06.25-.123.375-.185a671.902 671.902 0 01.88-.434 56.472 56.472 0 01.016-.734 65.912 65.912 0 00.01-.43c.018-.134.018-.134.07-.214.1-.06.175-.063.294-.067l.127-.004.132-.003.134-.004.328-.01a6.005 6.005 0 00-.347-.802l-.07-.151c-.133-.293-.133-.293-.383-.477-.087-.021-.087-.021-.182-.034l-.126-.025a9.533 9.533 0 00-.344-.06zm-4.868.167c-.175.203-.277.454-.383.697-.06.135-.129.264-.198.394-.078.14-.078.14-.102.29l.084.003.378.01.132.004.128.004.117.004c.1.018.1.018.177.063.08.123.07.232.074.376l.002.087a28.093 28.093 0 01.01.46l.008.455a581.362 581.362 0 001.527.752l.128.064.12.059.105.051c.082.043.082.043.17.037.048-.388.048-.388-.072-.747a6.023 6.023 0 00-.312-.3 8.524 8.524 0 01-.187-.222 17.712 17.712 0 00-.311-.37l-.06-.068-.165-.188-.058-.07a4.585 4.585 0 00-.182-.2c-.338-.369-.379-.67-.366-1.155V2.12c-.001-.155.001-.31.005-.464-.268 0-.54.019-.769.167zm1.623 1.047c.11.181.11.181.24.342.02.023.04.047.062.07l.066.075.138.155.069.078c.2.229.395.461.578.703.159-.052.196-.112.299-.24l.102-.126.055-.067c.097-.118.198-.234.3-.35.304-.296.304-.296.482-.64H6.684zm-3.49.322l-.1.048a94.909 94.909 0 00-.527.257c-.78.38-1.426.8-1.738 1.636-.145.475-.135.981-.131 1.472a177.824 177.824 0 01.002.72l.002.627c0 .315.002.63.004.946h2.05a8811.07 8811.07 0 00.014-1.237l.006-.451.001-.143.003-.132.001-.116c.02-.116.05-.153.145-.223.083-.017.083-.017.171-.016h.088c.111.022.143.052.211.141.019.122.019.122.022.269l.004.16.003.165.005.168.009.41a1223.87 1223.87 0 011.458.015 65.012 65.012 0 01.699.007l.155.002.137.002a.393.393 0 01.191.058c.081.137.068.281.066.434l.001.109a41.997 41.997 0 010 .601v.517.662a107.823 107.823 0 010 1.095v.102c-.002.223-.002.223-.067.332-.112.06-.2.058-.328.06l-.158.002-.165.001-.152.002c-.188.003-.376.004-.564.005l-1.273.014v5.023h4.099V6.43L4.891 5.132c-.06-.117-.052-.218-.057-.349l-.005-.16-.005-.167a315.13 315.13 0 00-.019-.58l-.108-.002a56.855 56.855 0 01-.651-.014l-.162-.005-.15-.003c-.124-.018-.124-.018-.205-.072-.083-.125-.069-.264-.048-.407.065-.141.065-.141.129-.25v-.085c-.151 0-.283.09-.415.155zm8.956-.155c.055.171.055.171.128.335.02.307.02.307-.048.402-.117.085-.21.077-.354.08l-.162.005-.17.003c-.057 0-.114.002-.171.004l-.419.009a45.959 45.959 0 01-.011.494l-.005.25-.005.16-.003.146c-.019.122-.019.122-.147.247-.845.415-1.69.83-2.562 1.256v10.508h2.733v-.677c-.001-.742 0-1.484.001-2.226.001-.45.002-.899.001-1.348l.001-1.177v-.622c-.003-.851.013-1.63.271-2.449.136-.446.106-.922.1-1.383l-.001-.43a16.477 16.477 0 00-.002-.38l-.002-.104c.015-.088.015-.088.06-.162.132-.082.271-.07.423-.07l.105-.001a44.091 44.091 0 01.581-.005l.626-.004.64-.005c.417-.004.835-.007 1.253-.009l.002-.221v-.125c-.013-.545-.385-1.05-.77-1.412-.25-.207-.522-.353-.812-.497l-.13-.066a109.812 109.812 0 00-.78-.39l-.085-.042c-.137-.071-.137-.071-.286-.094zm-.171 3.517v1.34h.683v-1.34h-.683zm1.366 0v1.34h.684v-1.34h-.684zm1.367 0v1.34h.683v-1.34h-.683zm1.366 0v1.34h.683v-1.34h-.683zm1.367 0v1.34h.683v-1.34h-.683zm1.366 0v1.34h.683v-1.34h-.683zM3.44 8.565v.67h2.05v-.67h-2.05zm8.497 0c-.045.124-.087.25-.128.376l-.046.141c-.142.49-.148.956-.144 1.462v.276c0 .248 0 .496.002.744l.001.78c0 .49.002.982.004 1.473l.003 1.178v.501c.002 1.15.006 2.3.01 3.45h2.903c.058-.113.063-.218.078-.345a22.203 22.203 0 01.043-.355l.023-.196a202.435 202.435 0 00.131-1.09 2045.943 2045.943 0 00.434-3.61l.05-.413a62.425 62.425 0 00.054-.453l.018-.148c.022-.124.051-.226.108-.339a.702.702 0 01.427-.042c.132.1.151.188.174.345l.02.137.02.146.02.146a61.42 61.42 0 01.082.672 267.141 267.141 0 01.124 1.022l.188 1.552a1664.49 1664.49 0 00.337 2.78c.012.107.012.107.06.192h2.904c.006-1.2.01-2.4.013-3.6l.006-1.672c.003-.486.004-.972.005-1.458 0-.257.001-.514.003-.77a84.161 84.161 0 00.003-.994 5.394 5.394 0 00-.286-1.847c-.048-.056-.048-.056-.167-.047h-.579a560.335 560.335 0 01-.836.001h-.639a1683.988 1683.988 0 00-2.588.002l-2.835.002zM.706 9.568v.67h2.05v-.67H.706zm2.733.335v1.34h2.05v-1.34h-2.05zm8.198 9.712v.67a948.391 948.391 0 002.04.004h.438l.146.001c.106.007.106.007.152-.047l.043-.628h-2.819zm5.38 0c-.03.368-.03.368.086.67.085.004.17.005.256.005h.53l.484-.002h.493l.97-.003v-.67h-2.818z"/></svg>