<svg width="19" height="16" viewBox="0 0 19 16" xmlns="http://www.w3.org/2000/svg">
 
<path d="M16.1719 3.05859H13.8469C13.6728 2.35323 13.2122 1.71943 12.5428 1.26404C11.8734 0.80865 11.036 0.559503 10.1719 0.558594L8.67188 0.558594C7.80772 0.559503 6.97036 0.80865 6.30094 1.26404C5.63151 1.71943 5.17095 2.35323 4.99687 3.05859H2.67188C2.47296 3.05859 2.2822 3.12444 2.14154 3.24165C2.00089 3.35886 1.92188 3.51783 1.92188 3.68359C1.92188 3.84935 2.00089 4.00833 2.14154 4.12554C2.2822 4.24275 2.47296 4.30859 2.67188 4.30859H3.42188V12.4336C3.42307 13.2621 3.81854 14.0564 4.52154 14.6422C5.22454 15.228 6.17768 15.5576 7.17188 15.5586H11.6719C12.6661 15.5576 13.6192 15.228 14.3222 14.6422C15.0252 14.0564 15.4207 13.2621 15.4219 12.4336V4.30859H16.1719C16.3708 4.30859 16.5616 4.24275 16.7022 4.12554C16.8429 4.00833 16.9219 3.84935 16.9219 3.68359C16.9219 3.51783 16.8429 3.35886 16.7022 3.24165C16.5616 3.12444 16.3708 3.05859 16.1719 3.05859V3.05859ZM8.67188 1.80859H10.1719C10.6371 1.80907 11.0907 1.92945 11.4706 2.15325C11.8504 2.37704 12.1379 2.69328 12.2936 3.05859H6.55012C6.70581 2.69328 6.9933 2.37704 7.37317 2.15325C7.75303 1.92945 8.20667 1.80907 8.67188 1.80859V1.80859ZM13.9219 12.4336C13.9219 12.9309 13.6848 13.4078 13.2629 13.7594C12.8409 14.111 12.2686 14.3086 11.6719 14.3086H7.17188C6.57514 14.3086 6.00284 14.111 5.58088 13.7594C5.15893 13.4078 4.92188 12.9309 4.92188 12.4336V4.30859H13.9219V12.4336Z" />
<path d="M7.92187 11.8081C8.12079 11.8081 8.31155 11.7422 8.4522 11.625C8.59285 11.5078 8.67187 11.3489 8.67187 11.1831V7.4331C8.67187 7.26734 8.59285 7.10837 8.4522 6.99116C8.31155 6.87395 8.12079 6.80811 7.92187 6.80811C7.72296 6.80811 7.5322 6.87395 7.39154 6.99116C7.25089 7.10837 7.17188 7.26734 7.17188 7.4331V11.1831C7.17188 11.3489 7.25089 11.5078 7.39154 11.625C7.5322 11.7422 7.72296 11.8081 7.92187 11.8081Z" />
<path d="M10.9219 11.8081C11.1208 11.8081 11.3116 11.7422 11.4522 11.625C11.5929 11.5078 11.6719 11.3489 11.6719 11.1831V7.4331C11.6719 7.26734 11.5929 7.10837 11.4522 6.99116C11.3116 6.87395 11.1208 6.80811 10.9219 6.80811C10.723 6.80811 10.5322 6.87395 10.3915 6.99116C10.2509 7.10837 10.1719 7.26734 10.1719 7.4331V11.1831C10.1719 11.3489 10.2509 11.5078 10.3915 11.625C10.5322 11.7422 10.723 11.8081 10.9219 11.8081Z" />
 
 
</svg>
