<svg width="18" height="18" viewBox="0 0 18 18"  xmlns="http://www.w3.org/2000/svg">
<path d="M8.204 13.084V6.724H9.356V13.084H8.204ZM8.78 5.5C8.556 5.5 8.368 5.428 8.216 5.284C8.072 5.14 8 4.964 8 4.756C8 4.54 8.072 4.36 8.216 4.216C8.368 4.072 8.556 4 8.78 4C9.004 4 9.188 4.072 9.332 4.216C9.484 4.352 9.56 4.524 9.56 4.732C9.56 4.948 9.488 5.132 9.344 5.284C9.2 5.428 9.012 5.5 8.78 5.5Z" />
<path fill-rule="evenodd" clip-rule="evenodd" d="M9 17C13.4183 17 17 13.4183 17 9C17 4.58172 13.4183 1 9 1C4.58172 1 1 4.58172 1 9C1 13.4183 4.58172 17 9 17ZM9 18C13.9706 18 18 13.9706 18 9C18 4.02944 13.9706 0 9 0C4.02944 0 0 4.02944 0 9C0 13.9706 4.02944 18 9 18Z" />
</svg>
