<svg width="40" height="40" viewBox="0 0 40 40"  xmlns="http://www.w3.org/2000/svg">
    <path d="M26.7593 14.8177H24.2856C24.1004 14.0227 23.6104 13.3084 22.8981 12.7951C22.1858 12.2818 21.2949 12.001 20.3755 12L18.7795 12C17.8601 12.001 16.9691 12.2818 16.2569 12.7951C15.5446 13.3084 15.0546 14.0227 14.8694 14.8177H12.3956C12.184 14.8177 11.981 14.8919 11.8314 15.024C11.6817 15.1561 11.5977 15.3353 11.5977 15.5221C11.5977 15.709 11.6817 15.8881 11.8314 16.0202C11.981 16.1523 12.184 16.2266 12.3956 16.2266H13.1936V25.3841C13.1949 26.3179 13.6157 27.2131 14.3636 27.8734C15.1116 28.5337 16.1257 28.9051 17.1835 28.9062H21.9714C23.0292 28.9051 24.0434 28.5337 24.7913 27.8734C25.5393 27.2131 25.9601 26.3179 25.9614 25.3841V16.2266H26.7593C26.971 16.2266 27.174 16.1523 27.3236 16.0202C27.4733 15.8881 27.5573 15.709 27.5573 15.5221C27.5573 15.3353 27.4733 15.1561 27.3236 15.024C27.174 14.8919 26.971 14.8177 26.7593 14.8177V14.8177ZM18.7795 13.4089H20.3755C20.8704 13.4094 21.3531 13.5451 21.7573 13.7973C22.1614 14.0495 22.4673 14.406 22.633 14.8177H16.522C16.6877 14.406 16.9935 14.0495 17.3977 13.7973C17.8019 13.5451 18.2845 13.4094 18.7795 13.4089V13.4089ZM24.3654 25.3841C24.3654 25.9446 24.1132 26.4821 23.6642 26.8784C23.2153 27.2747 22.6064 27.4974 21.9714 27.4974H17.1835C16.5486 27.4974 15.9397 27.2747 15.4908 26.8784C15.0418 26.4821 14.7896 25.9446 14.7896 25.3841V16.2266H24.3654V25.3841Z" />
    <path d="M19.5753 24.6794C19.787 24.6794 19.9899 24.6051 20.1396 24.473C20.2892 24.3409 20.3733 24.1618 20.3733 23.9749V19.7484C20.3733 19.5615 20.2892 19.3824 20.1396 19.2503C19.9899 19.1182 19.787 19.0439 19.5753 19.0439C19.3637 19.0439 19.1607 19.1182 19.0111 19.2503C18.8614 19.3824 18.7773 19.5615 18.7773 19.7484V23.9749C18.7773 24.1618 18.8614 24.3409 19.0111 24.473C19.1607 24.6051 19.3637 24.6794 19.5753 24.6794Z"  />
</svg>
