<svg width="30" height="29" viewBox="0 0 30 29" fill="none" xmlns="http://www.w3.org/2000/svg">
<path d="M15.1177 0.292969C22.9592 0.292969 29.3155 6.64925 29.3155 14.4907C29.3155 22.3322 22.9592 28.6885 15.1177 28.6885C7.2762 28.6885 0.919922 22.3322 0.919922 14.4907C0.919922 6.64925 7.2762 0.292969 15.1177 0.292969ZM20.0153 20.2779C20.2764 19.4766 21.4999 11.4913 21.6511 9.91782C21.6968 9.44127 21.5462 9.1246 21.2511 8.98324C20.8943 8.81163 20.3659 8.89744 19.753 9.11843C18.9122 9.42152 8.16387 13.9852 7.54287 14.2494C6.95398 14.4994 6.39718 14.7722 6.39718 15.1673C6.39718 15.4451 6.56199 15.6013 7.01632 15.7636C7.48917 15.9321 8.67993 16.2932 9.38303 16.4871C10.0602 16.6741 10.8312 16.5118 11.2633 16.2432C11.7213 15.9587 17.0072 12.4216 17.3869 12.1117C17.7659 11.8018 18.0684 12.1987 17.7585 12.5092C17.4486 12.8191 13.8201 16.3408 13.3417 16.8284C12.7609 17.4204 13.1732 18.034 13.5627 18.2797C14.0078 18.5599 17.2085 20.7069 17.6906 21.0513C18.1727 21.3958 18.6616 21.552 19.1091 21.552C19.5567 21.552 19.7925 20.9625 20.0153 20.2779Z" fill="black" fill-opacity="0.8"/>
</svg>
