<svg width="40" height="40" xmlns="http://www.w3.org/2000/svg"><path fill-rule="evenodd" clip-rule="evenodd" d="M7.25 13a.75.75 0 01.75-.75h4.355a.75.75 0 01.714.52l3.3 10.265 7.27.978a4.16 4.16 0 014.765-3.577l1.583-5.492H17.92a.75.75 0 010-1.5h13.065a.75.75 0 01.72.958l-1.881 6.53a4.16 4.16 0 11-6.099 4.606l-4.319-.581a.754.754 0 01-.093.136c-.386.45-.85.998-1.32 1.552-.41.485-.825.973-1.192 1.403-.264.309-.595.552-.989.632a1.303 1.303 0 01-1.1-.277c-.548-.452-.7-1.24-.562-1.937a250.18 250.18 0 01.527-2.573l.062-.3a.749.749 0 01.138-.302l-3.067-9.541H8a.75.75 0 01-.75-.75zm8.83 11.51a507.756 507.756 0 00-.459 2.247.893.893 0 00-.004.363l.042-.046 1.182-1.39c.278-.33.556-.658.816-.962l-1.578-.213zm5.95-8.15a.75.75 0 01.75.75v1.37h1.487a.75.75 0 010 1.5h-1.488v1.271a.75.75 0 01-1.5 0v-1.27h-1.676a.75.75 0 010-1.5h1.676V17.11a.75.75 0 01.75-.75zm5.735 5.527a2.66 2.66 0 100 5.319 2.66 2.66 0 000-5.319z"/></svg>