<svg width="33" height="33" viewBox="0 0 33 33" fill="none" xmlns="http://www.w3.org/2000/svg">
<path d="M4.48438 11.0039H8.83987L9.90045 14.3031L12.2844 22.8577H20.7514M25.4343 19.2551L27.4682 12.1979H14.4031M12.2505 22.8994C12.2505 22.8994 12.1823 23.5327 12.1093 24.5909C12.0363 25.6491 11.9004 26.5857 12.5784 25.5403C13.5105 24.103 13.304 24.1757 13.7071 23.3835L12.2505 22.8994ZM27.6544 22.5503C27.6544 24.4332 26.128 25.9595 24.2451 25.9595C22.3623 25.9595 20.8359 24.4332 20.8359 22.5503C20.8359 20.6675 22.3623 19.1411 24.2451 19.1411C26.128 19.1411 27.6544 20.6675 27.6544 22.5503Z" stroke="white" stroke-width="1.5" stroke-linecap="round" stroke-linejoin="round"/>
<path fill-rule="evenodd" clip-rule="evenodd" d="M10 14.5H26.7109L25.368 18.87H23.5433L21.3824 20.1665L20.7101 22.6635H12.4027L10 14.5ZM17.2443 20.9337L21.0611 17.1794C21.3234 16.9172 21.3234 16.492 21.0611 16.2298C20.7989 15.9675 20.3737 15.9675 20.1114 16.2298L17.441 18.8377C17.441 18.8377 16.7978 19.5376 16.098 18.8377L15.1484 17.888C14.8862 17.6257 14.461 17.6257 14.1987 17.888C13.9365 18.1502 13.9365 18.5754 14.1987 18.8377L16.2947 20.9337C16.5569 21.196 16.9821 21.196 17.2443 20.9337Z" fill="white"/>
</svg>
