<svg width="13" height="15" viewBox="0 0 13 15"   xmlns="http://www.w3.org/2000/svg">
<path fill-rule="evenodd" clip-rule="evenodd" d="M0.460938 7.32617V11.0254C0.460938 12.6822 1.80408 14.0254 3.46094 14.0254H9.35156C11.0084 14.0254 12.3516 12.6822 12.3516 11.0254V7.32617H10.8516V11.0254C10.8516 11.8538 10.18 12.5254 9.35156 12.5254H3.46094C2.63251 12.5254 1.96094 11.8538 1.96094 11.0254V7.32617H0.460938Z" />
<path fill-rule="evenodd" clip-rule="evenodd" d="M2.89154 4.11121L6.05765 0.946233C6.35054 0.653339 6.82541 0.653339 7.11831 0.946233L10.2833 4.11121C10.5762 4.4041 10.5762 4.87897 10.2833 5.17187C9.99039 5.46476 9.51552 5.46476 9.22262 5.17187L7.33798 3.28722L7.33798 10.2812L5.83798 10.2812L5.83798 3.28722L3.95221 5.17187C3.65931 5.46476 3.18444 5.46476 2.89154 5.17187C2.59865 4.87897 2.59865 4.4041 2.89154 4.11121Z"  />
</svg>
