<svg width="17" height="16" viewBox="0 0 17 16" xmlns="http://www.w3.org/2000/svg">
<path fill-rule="evenodd" clip-rule="evenodd" d="M5.19282 0.86313C4.15682 1.10313 3.48282 1.35313 1.94082 2.06213C0.61982 2.67013 0.22382 2.88013 0.16882 3.00113C0.10582 3.13913 0.17882 3.32113 0.79482 4.55613C1.17882 5.32613 1.53782 6.00613 1.59282 6.06913C1.73582 6.22913 1.94982 6.21013 2.76282 5.96313L3.48182 5.74513V10.3081C3.48182 14.3341 3.49282 14.8881 3.58182 15.0151L3.68182 15.1581H13.0968L13.1968 15.0151C13.2858 14.8881 13.2968 14.3341 13.2968 10.3081V5.74513L14.0168 5.96413C14.8298 6.21013 15.0428 6.23013 15.1868 6.06813C15.2418 6.00613 15.6008 5.32613 15.9838 4.55613C16.5998 3.32113 16.6738 3.13913 16.6108 3.00113C16.5548 2.88013 16.1598 2.67013 14.8378 2.06113C13.0388 1.23413 11.9758 0.87313 11.2998 0.86013C10.9098 0.85313 10.9438 0.81713 10.6398 1.53213C10.4298 2.02813 9.90182 2.57013 9.40382 2.80013C9.05182 2.96213 8.92882 2.98513 8.38982 2.98513C7.83682 2.98513 7.73482 2.96513 7.35582 2.78513C6.82962 2.53419 6.40839 2.10624 6.16582 1.57613C5.82582 0.816131 5.85782 0.854131 5.57782 0.843131C5.44914 0.836796 5.32015 0.843496 5.19282 0.86313ZM6.95682 1.31313C7.54582 2.45813 9.23382 2.45813 9.82182 1.31313L9.95082 1.06313L9.78082 1.10513C9.15882 1.26213 7.62082 1.26213 6.99782 1.10513L6.82782 1.06313L6.95682 1.31313Z" />
</svg>
