<svg width="27" height="12" viewBox="0 0 27 12"   xmlns="http://www.w3.org/2000/svg">
<path fill-rule="evenodd" clip-rule="evenodd" d="M3.97995 0.507109C3.18295 0.692109 2.66396 0.883109 1.47796 1.42911C0.460955 1.89711 0.155955 2.05911 0.113955 2.15211C0.0649551 2.25811 0.121955 2.39911 0.595955 3.34911C0.890955 3.94211 1.16696 4.46511 1.20996 4.51311C1.31996 4.63711 1.48396 4.62311 2.10996 4.43311L2.66296 4.26511V7.77711C2.66296 10.8751 2.67296 11.3021 2.74096 11.3991L2.81795 11.5091H10.064L10.142 11.3991C10.21 11.3021 10.219 10.8751 10.219 7.77711V4.26511L10.772 4.43211C11.398 4.62211 11.562 4.63711 11.672 4.51311C11.715 4.46511 11.992 3.94211 12.287 3.34911C12.761 2.39911 12.817 2.25911 12.769 2.15211C12.727 2.05911 12.422 1.89711 11.405 1.42911C10.02 0.792109 9.20195 0.514109 8.68095 0.504109C8.38095 0.499109 8.40695 0.472109 8.17395 1.02111C8.01195 1.40311 7.60496 1.82111 7.22196 1.99711C6.95096 2.12211 6.85596 2.14011 6.44196 2.14011C6.01596 2.14011 5.93696 2.12411 5.64596 1.98511C5.2406 1.79235 4.91599 1.46313 4.72896 1.05511C4.46896 0.470109 4.49196 0.500109 4.27696 0.492109C4.17804 0.487103 4.07786 0.492129 3.97995 0.507109ZM5.33895 0.853109C5.79195 1.73411 7.09095 1.73411 7.54395 0.853109L7.64295 0.660109L7.51295 0.693109C7.03295 0.813109 5.84896 0.813109 5.36996 0.693109L5.23995 0.660109L5.33895 0.853109ZM17.733 0.507109C16.935 0.692109 16.416 0.883109 15.23 1.42911C14.212 1.89711 13.908 2.05911 13.866 2.15211C13.817 2.25811 13.874 2.39911 14.348 3.34911C14.643 3.94211 14.919 4.46511 14.962 4.51311C15.072 4.63711 15.236 4.62311 15.862 4.43311L16.415 4.26511V7.77711C16.415 10.8751 16.425 11.3021 16.493 11.3991L16.57 11.5091H23.816L23.894 11.3991C23.962 11.3021 23.971 10.8751 23.971 7.77711V4.26511L24.524 4.43211C25.15 4.62211 25.314 4.63711 25.424 4.51311C25.467 4.46511 25.744 3.94211 26.039 3.34911C26.513 2.39911 26.569 2.25911 26.521 2.15211C26.478 2.05911 26.174 1.89711 25.157 1.42911C23.772 0.792109 22.954 0.514109 22.433 0.504109C22.133 0.499109 22.159 0.472109 21.926 1.02111C21.764 1.40311 21.357 1.82111 20.974 1.99711C20.703 2.12211 20.608 2.14011 20.194 2.14011C19.767 2.14011 19.689 2.12411 19.398 1.98511C18.9926 1.79235 18.668 1.46313 18.481 1.05511C18.221 0.470109 18.244 0.500109 18.029 0.492109C17.93 0.487103 17.8309 0.492129 17.733 0.507109ZM19.091 0.853109C19.544 1.73411 20.843 1.73411 21.296 0.853109L21.395 0.660109L21.265 0.693109C20.785 0.813109 19.601 0.813109 19.122 0.693109L18.992 0.660109L19.091 0.853109Z" />
</svg>
