<svg width="30" height="30" viewBox="0 0 30 30" fill="none" xmlns="http://www.w3.org/2000/svg">
<path d="M15.1177 0.688477C7.28924 0.688477 0.920013 7.0577 0.920013 14.8862C0.920013 17.3307 1.5515 19.7344 2.74905 21.8554L0.942853 28.3C0.883593 28.5117 0.941001 28.7389 1.09409 28.8963C1.21199 29.0179 1.37249 29.0839 1.53731 29.0839C1.58669 29.0839 1.63669 29.0778 1.68546 29.066L8.41148 27.4C10.4652 28.5024 12.7782 29.0839 15.1177 29.0839C22.9462 29.0839 29.3155 22.7147 29.3155 14.8862C29.3155 7.0577 22.9462 0.688477 15.1177 0.688477ZM22.2598 19.8961C21.9561 20.7369 20.4993 21.5042 19.7993 21.6073C19.1709 21.6993 18.3758 21.7388 17.503 21.4647C16.9739 21.298 16.2949 21.077 15.4252 20.706C11.7689 19.1468 9.38124 15.5115 9.19852 15.2714C9.01642 15.0313 7.71023 13.3201 7.71023 11.5491C7.71023 9.77811 8.6516 8.90711 8.98618 8.54661C9.32075 8.18611 9.7152 8.09598 9.95841 8.09598C10.2016 8.09598 10.4442 8.09907 10.6572 8.10895C10.8813 8.12006 11.1819 8.02438 11.4776 8.72686C11.7813 9.44785 12.5103 11.2189 12.6004 11.3997C12.6918 11.58 12.7523 11.7905 12.6313 12.0306C12.5103 12.2707 12.4498 12.4207 12.2671 12.6312C12.0844 12.8417 11.8844 13.1004 11.7202 13.2621C11.5374 13.4417 11.3479 13.6362 11.5603 13.9967C11.7726 14.3572 12.5041 15.5356 13.5881 16.4899C14.9801 17.7159 16.1548 18.0961 16.519 18.2764C16.8832 18.4566 17.0962 18.4264 17.3085 18.1862C17.5209 17.9455 18.2196 17.135 18.4622 16.7751C18.7048 16.4152 18.948 16.4745 19.2826 16.5949C19.6172 16.7146 21.4092 17.585 21.7734 17.7653C22.1376 17.9455 22.3808 18.0356 22.4722 18.1856C22.5635 18.335 22.5635 19.056 22.2598 19.8961Z" fill="black" fill-opacity="0.8"/>
</svg>
