<svg width="38" height="38" xmlns="http://www.w3.org/2000/svg"><path d="M18.768 0C8.42 0 0 8.42 0 18.768c0 3.231.835 6.409 2.418 9.213L.03 36.5a.815.815 0 00.982 1.013l8.891-2.203a18.78 18.78 0 008.865 2.226c10.349 0 18.768-8.42 18.768-18.768S29.116 0 18.768 0zm9.441 25.39c-.401 1.112-2.327 2.126-3.252 2.263-.83.121-1.882.174-3.036-.189a28.21 28.21 0 01-2.746-1.003c-4.834-2.06-7.99-6.866-8.232-7.184-.24-.317-1.967-2.58-1.967-4.92 0-2.341 1.245-3.493 1.687-3.97.442-.476.963-.595 1.285-.595.322 0 .642.004.924.017.296.015.693-.112 1.084.817.402.953 1.365 3.294 1.485 3.533.12.239.2.517.04.834-.16.318-.24.516-.481.794-.242.278-.506.62-.723.834-.242.238-.492.495-.211.971.28.477 1.247 2.035 2.68 3.296 1.84 1.62 3.393 2.123 3.875 2.362.481.238.763.198 1.043-.12.28-.318 1.205-1.39 1.525-1.865.321-.476.642-.397 1.085-.238.442.158 2.81 1.309 3.292 1.547.482.238.803.357.924.556.12.197.12 1.15-.28 2.26z"/></svg>