<svg width="25" height="24" viewBox="0 0 25 24" fill="none" xmlns="http://www.w3.org/2000/svg">
<path d="M4.5 6.6L7.16667 3H17.8333L20.5 6.6M4.5 6.6V19.2C4.5 19.6774 4.6873 20.1352 5.0207 20.4728C5.3541 20.8104 5.80628 21 6.27778 21H18.7222C19.1937 21 19.6459 20.8104 19.9793 20.4728C20.3127 20.1352 20.5 19.6774 20.5 19.2V6.6M4.5 6.6H20.5" stroke="#525252" stroke-width="2" stroke-linecap="round" stroke-linejoin="round"/>
<path d="M15.5 11C15.5 11.7956 15.1839 12.5587 14.6213 13.1213C14.0587 13.6839 13.2956 14 12.5 14C11.7044 14 10.9413 13.6839 10.3787 13.1213C9.81607 12.5587 9.5 11.7956 9.5 11" stroke="#525252" stroke-width="2" stroke-linecap="round" stroke-linejoin="round"/>
</svg>
