<svg width="24" height="24" viewBox="0 0 24 24" fill="none" xmlns="http://www.w3.org/2000/svg">
<path d="M4 6.6L6.66667 3H17.3333L20 6.6M4 6.6V19.2C4 19.6774 4.1873 20.1352 4.5207 20.4728C4.8541 20.8104 5.30628 21 5.77778 21H18.2222C18.6937 21 19.1459 20.8104 19.4793 20.4728C19.8127 20.1352 20 19.6774 20 19.2V6.6M4 6.6H20" stroke="#CCCCCC" stroke-width="2" stroke-linecap="round" stroke-linejoin="round"/>
<path d="M15 11C15 11.7956 14.6839 12.5587 14.1213 13.1213C13.5587 13.6839 12.7956 14 12 14C11.2044 14 10.4413 13.6839 9.87868 13.1213C9.31607 12.5587 9 11.7956 9 11" stroke="#CCCCCC" stroke-width="2" stroke-linecap="round" stroke-linejoin="round"/>
</svg>
