<svg width="184" height="28" viewBox="0 0 184 28" fill="none" xmlns="http://www.w3.org/2000/svg">
<path opacity="0.75" d="M62 26C68.6274 26 74 20.6274 74 14C74 7.37258 68.6274 2 62 2C55.3726 2 50 7.37258 50 14C50 20.6274 55.3726 26 62 26Z" fill="#0070E0"/>
<path opacity="0.75" d="M53.4286 22.4712C55.6887 24.7309 58.7539 26.0003 61.95 26.0001C65.146 25.9999 68.2111 24.7302 70.4709 22.4702C72.7307 20.2102 74.0002 17.1452 74 13.9493C73.9998 10.7534 72.73 7.68842 70.4699 5.42871L53.4286 22.4712Z" fill="#0070E0"/>
<path opacity="0.75" d="M43.1429 26H27.7143V2L43.1429 26Z" fill="#0070E0"/>
<path opacity="0.75" d="M35.6947 2.00025H27.7143V19.1426H35.6947C36.8946 19.1513 38.0844 18.936 39.1957 18.5091C40.3069 18.0823 41.3175 17.4523 42.1692 16.6555C43.021 15.8588 43.697 14.9109 44.1583 13.8667C44.6196 12.8225 44.8571 11.7026 44.8571 10.5714C44.8571 9.44028 44.6196 8.32033 44.1583 7.27612C43.697 6.23191 43.021 5.2841 42.1692 4.48733C41.3175 3.69056 40.3069 3.06059 39.1957 2.63374C38.0844 2.20688 36.8946 1.99158 35.6947 2.00025Z" fill="#0070E0"/>
<path opacity="0.75" d="M12.2857 2H2V26H12.2857V2Z" fill="#0070E0"/>
<path opacity="0.75" d="M12.2566 2H2V19.1429H12.2566C14.5437 19.1255 16.7311 18.2148 18.3421 16.6093C19.9531 15.0037 20.8571 12.8334 20.8571 10.5714C20.8571 8.30946 19.9531 6.13918 18.3421 4.53361C16.7311 2.92803 14.5437 2.01734 12.2566 2V2Z" fill="#0070E0"/>
<path d="M162.922 25.7319V2.2682H172.14C174.211 2.2682 175.978 2.59222 177.441 3.24026C178.905 3.88831 180.03 4.82686 180.818 6.05591C181.606 7.28496 182 8.74864 182 10.447C182 12.1453 181.606 13.609 180.818 14.838C180.03 16.0447 178.905 16.9833 177.441 17.6537C175.978 18.3017 174.211 18.6257 172.14 18.6257H164.779L166.298 17.0503V25.7319H162.922ZM166.298 17.3855L164.779 15.7095H172.039C174.2 15.7095 175.832 15.2514 176.935 14.3352C178.061 13.419 178.623 12.1229 178.623 10.447C178.623 8.77099 178.061 7.4749 176.935 6.5587C175.832 5.6425 174.2 5.1844 172.039 5.1844H164.779L166.298 3.50842V17.3855Z" fill="black"/>
<path d="M144.558 26C142.757 26 141.08 25.6983 139.526 25.095C137.995 24.4916 136.667 23.6536 135.542 22.581C134.416 21.486 133.538 20.2123 132.908 18.7598C132.278 17.3073 131.962 15.7207 131.962 14C131.962 12.2793 132.278 10.6927 132.908 9.24022C133.538 7.78771 134.416 6.52514 135.542 5.45251C136.667 4.35754 137.995 3.50838 139.526 2.90503C141.057 2.30168 142.734 2 144.558 2C146.358 2 148.013 2.30168 149.521 2.90503C151.052 3.48603 152.38 4.32402 153.506 5.41899C154.654 6.49162 155.532 7.75419 156.14 9.2067C156.77 10.6592 157.085 12.257 157.085 14C157.085 15.743 156.77 17.3408 156.14 18.7933C155.532 20.2458 154.654 21.5196 153.506 22.6145C152.38 23.6872 151.052 24.5251 149.521 25.1285C148.013 25.7095 146.358 26 144.558 26ZM144.558 23.0168C145.863 23.0168 147.068 22.7933 148.171 22.3464C149.296 21.8994 150.264 21.2737 151.075 20.4693C151.908 19.6425 152.549 18.6816 152.999 17.5866C153.472 16.4916 153.708 15.2961 153.708 14C153.708 12.7039 153.472 11.5084 152.999 10.4134C152.549 9.31843 151.908 8.36871 151.075 7.56424C150.264 6.73743 149.296 6.10056 148.171 5.65363C147.068 5.2067 145.863 4.98324 144.558 4.98324C143.229 4.98324 142.002 5.2067 140.877 5.65363C139.774 6.10056 138.806 6.73743 137.973 7.56424C137.14 8.36871 136.487 9.31843 136.014 10.4134C135.564 11.5084 135.339 12.7039 135.339 14C135.339 15.2961 135.564 16.4916 136.014 17.5866C136.487 18.6816 137.14 19.6425 137.973 20.4693C138.806 21.2737 139.774 21.8994 140.877 22.3464C142.002 22.7933 143.229 23.0168 144.558 23.0168Z" fill="black"/>
<path d="M122.76 2.2682H126.137V25.7319H122.76V2.2682ZM109.186 25.7319H105.809V2.2682H109.186V25.7319ZM123.064 15.2738H108.848V12.3576H123.064V15.2738Z" fill="black"/>
<path d="M91.0496 26C89.2487 26 87.5266 25.7318 85.8832 25.1955C84.2399 24.6369 82.9455 23.9218 82 23.0503L83.2494 20.4358C84.1498 21.2179 85.2979 21.8659 86.6936 22.3799C88.0893 22.8939 89.5413 23.1508 91.0496 23.1508C92.4228 23.1508 93.5371 22.9944 94.3925 22.6816C95.248 22.3687 95.8783 21.9441 96.2835 21.4078C96.6887 20.8492 96.8913 20.2235 96.8913 19.5307C96.8913 18.7263 96.6212 18.0782 96.0809 17.5866C95.5631 17.095 94.8765 16.7039 94.0211 16.4134C93.1882 16.1006 92.2652 15.8324 91.2522 15.6089C90.2392 15.3855 89.2149 15.1285 88.1794 14.838C87.1664 14.5251 86.2321 14.1341 85.3767 13.6648C84.5438 13.1955 83.8684 12.5698 83.3507 11.7877C82.8329 10.9832 82.574 9.95531 82.574 8.70391C82.574 7.49721 82.8892 6.39106 83.5195 5.38547C84.1724 4.35754 85.1629 3.5419 86.491 2.93855C87.8417 2.31285 89.5526 2 91.6236 2C92.9968 2 94.3588 2.17877 95.7094 2.53631C97.0601 2.89385 98.2307 3.40782 99.2212 4.07821L98.1069 6.75978C97.0939 6.08939 96.0246 5.60894 94.899 5.31843C93.7735 5.00559 92.6817 4.84916 91.6236 4.84916C90.2955 4.84916 89.2037 5.01676 88.3482 5.35195C87.4928 5.68715 86.8625 6.13408 86.4573 6.69274C86.0746 7.2514 85.8832 7.87709 85.8832 8.56983C85.8832 9.39665 86.1421 10.0559 86.6599 10.5475C87.2001 11.0391 87.8867 11.4302 88.7197 11.7207C89.5751 12.0112 90.5093 12.2793 91.5223 12.5251C92.5353 12.7486 93.5484 13.0056 94.5614 13.2961C95.5969 13.5866 96.5311 13.9665 97.364 14.4358C98.2195 14.905 98.9061 15.5307 99.4238 16.3128C99.9416 17.095 100.2 18.1006 100.2 19.3296C100.2 20.514 99.8741 21.6201 99.2212 22.648C98.5684 23.6536 97.5554 24.4693 96.1822 25.095C94.8315 25.6983 93.1206 26 91.0496 26Z" fill="black"/>
</svg>
