<svg width="24" height="24" viewBox="0 0 24 24" fill="none" xmlns="http://www.w3.org/2000/svg">
<path d="M3.9255 6.62795C3.73685 7.27451 3.71445 7.95826 3.86036 8.61579C3.2905 8.97658 2.8211 9.47569 2.49583 10.0667C2.17057 10.6577 2 11.3214 2 11.9961C2 12.6707 2.17057 13.3345 2.49583 13.9255C2.8211 14.5165 3.2905 15.0156 3.86036 15.3764C3.71445 16.0339 3.73685 16.7176 3.9255 17.3642C4.11415 18.0108 4.46293 18.5992 4.9395 19.075C5.41607 19.5507 6.00501 19.8984 6.65171 20.0858C7.29841 20.2732 7.98193 20.2941 8.63889 20.1468C9.00002 20.7147 9.49855 21.1823 10.0883 21.5062C10.6781 21.8302 11.34 22 12.0129 22C12.6857 22 13.3476 21.8302 13.9374 21.5062C14.5272 21.1823 15.0257 20.7147 15.3868 20.1468C16.0441 20.2928 16.7276 20.2703 17.3739 20.0816C18.0202 19.8929 18.6084 19.544 19.084 19.0672C19.5595 18.5905 19.9071 18.0013 20.0944 17.3543C20.2817 16.7074 20.3026 16.0236 20.1554 15.3664C20.7209 15.0046 21.1863 14.5063 21.5086 13.9173C21.831 13.3283 22 12.6676 22 11.9961C22 11.3246 21.831 10.6639 21.5086 10.0749C21.1863 9.48587 20.7209 8.98753 20.1554 8.62579C20.3033 7.96756 20.2824 7.2826 20.0947 6.63462C19.9069 5.98663 19.5584 5.39668 19.0815 4.91962C18.6047 4.44257 18.0149 4.09391 17.3672 3.90609C16.7195 3.71827 16.0348 3.69739 15.3768 3.84537C15.0152 3.27963 14.5171 2.81404 13.9283 2.49154C13.3395 2.16904 12.6791 2 12.0079 2C11.3366 2 10.6762 2.16904 10.0874 2.49154C9.49863 2.81404 9.00049 3.27963 8.63889 3.84537C7.98193 3.69803 7.29841 3.71901 6.65171 3.90637C6.00501 4.09374 5.41607 4.44142 4.9395 4.91719C4.46293 5.39295 4.11415 5.9814 3.9255 6.62795Z" fill="black" stroke="black" stroke-width="2" stroke-linecap="round" stroke-linejoin="round"/>
<path d="M15.006 8.99585L9.00781 14.9964M9.00781 8.99585H9.01781M15.006 14.9964H15.016" stroke="white" stroke-width="2" stroke-linecap="round" stroke-linejoin="round"/>
</svg>
