<svg width="382" height="250" viewBox="0 0 382 250" fill="none" xmlns="http://www.w3.org/2000/svg">
<path d="M310.376 24.5774C309.081 18.074 312.778 12.3875 319.127 11.1233C322.417 10.4681 324.925 11.1359 327.292 13.3209L326.659 10.1466L330.763 9.32948L335.018 30.6979L330.914 31.515L330.298 28.4182C328.716 31.3893 326.795 32.8585 323.582 33.4983C317.195 34.7702 311.656 31.0034 310.376 24.5774ZM314.797 23.7374C315.606 27.802 319.18 30.1892 323.245 29.3798C327.271 28.5782 329.542 25.027 328.717 20.8849C327.885 16.7041 324.303 14.2782 320.199 15.0953C316.29 15.8739 313.972 19.5953 314.797 23.7374Z" fill="#0090C3"/>
<path d="M292.81 39.1028L288.555 17.7344L292.929 16.8633L294.872 26.6185L301.136 15.2292L306.517 14.1577L299.4 26.5217L311.081 35.4645L305.352 36.6053L295.211 28.3218L297.184 38.2318L292.81 39.1028Z" fill="#0090C3"/>
<path d="M267.075 26.519L267.16 26.5423C267.843 23.7097 271.05 21.0186 274.457 20.3402C280.457 19.1454 285.966 22.9586 287.214 29.2298C288.448 35.4235 284.425 41.2955 278.115 42.5519C271.07 43.9549 265.995 40.0956 264.423 32.1986L263.783 28.9856C261.933 19.6949 264.825 14.2091 272.668 11.9631L281.774 9.38527L282.56 13.3338L273.694 15.9041C268.143 17.5327 266.003 20.9369 267.075 26.519ZM277.236 38.5414C281.146 37.7629 283.587 34.057 282.794 30.0698C282.007 26.1213 278.34 23.6721 274.392 24.4583C270.598 25.2138 268.195 28.9119 268.966 32.783C269.768 36.8089 273.365 39.3123 277.236 38.5414Z" fill="#0090C3"/>
<path d="M243.446 48.9324L239.191 27.564L243.566 26.6929L246.587 41.8676L254.25 24.5654L258.702 23.679L262.957 45.0474L258.582 45.9185L255.568 30.7825L247.898 48.046L243.446 48.9324Z" fill="#0090C3"/>
<path d="M211.574 55.2786L207.319 33.9102L211.694 33.0391L215.155 50.4203L222.316 48.9943L218.855 31.6131L223.23 30.742L226.691 48.1233L233.813 46.7049L230.352 29.3237L234.765 28.4449L239.02 49.8134L211.574 55.2786Z" fill="#0090C3"/>
<path d="M175.106 47.6901C173.448 39.3672 178.812 31.5379 187.328 29.8421C195.457 28.2233 203.403 33.5635 205.021 41.6928C206.671 49.977 201.432 57.8218 193.109 59.4791C184.747 61.1441 176.74 55.8968 175.106 47.6901ZM179.627 46.7495C180.799 52.6336 186.408 56.3462 192.253 55.1822C198.06 54.0259 201.679 48.5562 200.508 42.6721C199.313 36.6719 193.835 33.0136 187.835 34.2084C182.183 35.3338 178.479 40.9815 179.627 46.7495Z" fill="#0090C3"/>
<path d="M259.046 171.953V147.005L337.586 26.8848H363.458V144.464H381.476V171.953H363.458V197.594H332.735V171.953H259.046ZM290.231 144.464H332.735V78.6288L290.231 144.464Z" fill="#0090C3"/>
<path d="M151.273 196.028L124.033 144.844C107.102 113.033 116.043 82.6302 147.039 66.134C177.626 49.8549 207.934 59.1078 224.213 89.6956L252.213 142.307C270.011 175.749 262.281 204.984 231.286 221.481C199.066 238.628 168.855 229.063 151.273 196.028ZM177.96 180.778C187.945 199.538 201.732 205.285 217.23 197.037C232.524 188.897 235.076 175.501 224.983 156.537L197.851 105.557C188.626 88.2241 175.165 83.0896 160.483 90.9036C145.801 98.7175 142.255 113.689 151.154 130.41L177.96 180.778Z" fill="#0090C3"/>
<path d="M0.524414 171.953V147.005L79.0644 26.8848H104.936V144.464H122.954V171.953H104.936V197.594H74.2134V171.953H0.524414ZM31.7094 144.464H74.2134V78.6288L31.7094 144.464Z" fill="#0090C3"/>
<circle cx="204.432" cy="173.511" r="20.8602" fill="#0090C3"/>
</svg>
