<svg width="41" height="41" viewBox="0 0 41 41" fill="none" xmlns="http://www.w3.org/2000/svg">
<path d="M22.6636 10.6861L22.6635 10.6865H22.672H22.6724L22.6973 10.6875C27.3199 11.0228 30.9731 14.998 30.9731 19.8568C30.9731 20.0444 30.9678 20.2296 30.9581 20.3877L30.9579 20.3876V20.3931C30.9579 20.8096 30.6308 21.1429 30.2336 21.1429C29.8364 21.1429 29.5094 20.8098 29.5092 20.3934C29.5231 20.1985 29.5309 20.0013 29.5309 19.8019C29.5309 15.7589 26.4797 12.446 22.5944 12.1841L22.5944 12.1839H22.589C22.212 12.1598 21.9096 11.8356 21.9096 11.4352C21.9096 11.0187 22.2367 10.6854 22.634 10.6854C22.648 10.6854 22.6566 10.6854 22.6636 10.6861ZM22.5962 6.15527L22.5962 6.15516H22.5919C22.213 6.13419 21.9074 5.80906 21.9074 5.40647C21.9074 5.39078 21.9075 5.38051 21.9082 5.37294L21.9085 5.37297V5.36563C21.9342 4.96822 22.254 4.65778 22.6405 4.65778C22.6432 4.65778 22.6463 4.65792 22.6519 4.65821L22.6528 4.65826C22.657 4.65849 22.6631 4.65881 22.6695 4.65889L22.7121 4.6609C22.7125 4.66092 22.7128 4.66095 22.7132 4.66098C30.1927 5.21111 36.0982 11.6442 36.0982 19.5029C36.0982 19.8147 36.0885 20.1231 36.0723 20.3876L36.0721 20.3876V20.3931C36.0721 20.8096 35.745 21.1429 35.3478 21.1429C34.9505 21.1429 34.6234 20.8096 34.6234 20.3931C34.6234 13.673 31.7437 10.1138 28.7937 8.23586C25.85 6.36192 22.8462 6.16791 22.5962 6.15527ZM36.2643 29.103L36.2762 29.1791H36.2806C36.3416 29.5143 36.3729 29.8602 36.3729 30.2144V30.2146V30.2147V30.2149V30.215V30.2152V30.2154V30.2155V30.2157V30.2158V30.216V30.2161V30.2163V30.2165V30.2166V30.2168V30.2169V30.2171V30.2172V30.2174V30.2176V30.2177V30.2179V30.218V30.2182V30.2184V30.2185V30.2187V30.2188V30.219V30.2191V30.2193V30.2195V30.2196V30.2198V30.2199V30.2201V30.2202V30.2204V30.2206V30.2207V30.2209V30.221V30.2212V30.2213V30.2215V30.2217V30.2218V30.222V30.2221V30.2223V30.2224V30.2226V30.2228V30.2229V30.2231V30.2232V30.2234V30.2235V30.2237V30.2239V30.224V30.2242V30.2243V30.2245V30.2246V30.2248V30.225V30.2251V30.2253V30.2254V30.2256V30.2257V30.2259V30.2261V30.2262V30.2264V30.2265V30.2267V30.2268V30.227V30.2272V30.2273V30.2275V30.2276V30.2278V30.2279V30.2281V30.2282V30.2284V30.2286V30.2287V30.2289V30.229V30.2292V30.2293V30.2295V30.2297V30.2298V30.23V30.2301V30.2303V30.2304V30.2306V30.2308V30.2309V30.2311V30.2312V30.2314V30.2315V30.2317V30.2318V30.232V30.2322V30.2323V30.2325V30.2326V30.2328V30.2329V30.2331V30.2333V30.2334V30.2336V30.2337V30.2339V30.234V30.2342V30.2343V30.2345V30.2347V30.2348V30.235V30.2351V30.2353V30.2354V30.2356V30.2357V30.2359V30.2361V30.2362V30.2364V30.2365V30.2367V30.2368V30.237V30.2371V30.2373V30.2375V30.2376V30.2378V30.2379V30.2381V30.2382V30.2384V30.2385V30.2387V30.2389V30.239V30.2392V30.2393V30.2395V30.2396V30.2398V30.2399V30.2401V30.2402V30.2404V30.2406V30.2407V30.2409V30.241V30.2412V30.2413V30.2415V30.2416V30.2418V30.2419V30.2421V30.2423V30.2424V30.2426V30.2427V30.2429V30.243V30.2432V30.2433V30.2435V30.2436V30.2438V30.2439V30.2441V30.2443V30.2444V30.2446V30.2447V30.2449V30.245V30.2452V30.2453V30.2455V30.2456V30.2458V30.2459V30.2461V30.2463V30.2464V30.2466V30.2467V30.2469V30.247V30.2472V30.2473V30.2475V30.2476V30.2478V30.2479V30.2481V30.2482V30.2484V30.2485V30.2487V30.2489V30.249V30.2492V30.2493V30.2495V30.2496V30.2498V30.2499V30.2501V30.2502V30.2504V30.2505V30.2507V30.2508V30.251V30.2511V30.2513V30.2514V30.2516V30.2517V30.2519V30.252V30.2522V30.2524V30.2525V30.2527V30.2528V30.253V30.2531V30.2533V30.2534V30.2536V30.2537V30.2539V30.254V30.2542V30.2543V30.2545V30.2546V30.2548V30.2549V30.2551V30.2552V30.2554V30.2555V30.2557V30.2558V30.256V30.2561V30.2563V30.2564V30.2566V30.2567V30.2569V30.257V30.2572V30.2573V30.2575V30.2576V30.2578V30.2579V30.2581V30.2582V30.2584V30.2585V30.2587V30.2588V30.259V30.2591V30.2593V30.2594V30.2596V30.2597V30.2599V30.26V30.2602V30.2603V30.2605V30.2606V30.2608V30.2609V30.261V30.2612V30.2613V30.2615V30.2616V30.2618V30.2619V30.2621V30.2622V30.2624V30.2625V30.2627V30.2628V30.263V30.2631V30.2633V30.2634V30.2636V30.2637V30.2639V30.264V30.2642V30.2643V30.2644V30.2646V30.2647V30.2649V30.265V30.2652V30.2653V30.2655V30.2656V30.2658V30.2659V30.2661V30.2662V30.2663V30.2665V30.2666V30.2668V30.2669V30.2671V30.2672V30.2674V30.2675V30.2677V30.2678V30.268V30.2681V30.2682V30.2684V30.2685V30.2687V30.2688V30.269V30.2691V30.2693V30.2694V30.2695V30.2697V30.2698V30.27V30.2701V30.2703V30.2704V30.2706V30.2707V30.2708V30.271V30.2711V30.2713V30.2714V30.2716V30.2717V30.2718V30.272V30.2721V30.2723V30.2724V30.2726V30.2727V30.2728V30.273V30.2731V30.2733V30.2734V30.2736V30.2737V30.2738V30.274V30.2741V30.2743V30.2744V30.2746V30.2747V30.2748V30.275V30.2751V30.2753V30.2754V30.2755V30.2757V30.2758V30.276V30.2761V30.2763V30.2764V30.2765V30.2767V30.2768V30.277V30.2771V30.2772V30.2774V30.2775V30.2777V30.2778V30.2779V30.2781V30.2782V30.2784V30.2785V30.2786V30.2788V30.2789V30.2791V30.2792V30.2793V30.2795V30.2796V30.2797V30.2799V30.28V30.2802V30.2803V30.2804V30.2806V30.2807V30.2809V30.281V30.2811V30.2813V30.2814V30.2815V30.2817V30.2818V30.282V30.2821V30.2822V30.2824V30.2825V30.2826V30.2828V30.2829V30.2831V30.2832V30.2833V30.2835V30.2836V30.2837V30.2839V30.284V30.2841V30.2843V30.2844V30.2845V30.2847V30.2848V30.285V30.2851V30.2852V30.2854V30.2855V30.2856V30.2858V30.2859V30.286V30.2862V30.2863V30.2864V30.2866V30.2867V30.2868V30.287V30.2871V30.2872V30.2874V30.2875V30.2876V30.2878V30.2879V30.288V30.2882V30.2883V30.2884V30.2886V30.2887V30.2888V30.289V30.2891V30.2892V30.2894V30.2895V30.2896V30.2898V30.2899V30.29V30.2902V30.2903V30.2904V30.2906L36.3729 30.2922C36.3729 30.2923 36.3729 30.2924 36.3729 30.2925C36.3481 34.1612 33.3118 37.2886 29.5636 37.3143C29.5634 37.3143 29.5632 37.3143 29.563 37.3143L29.5616 37.3143C15.7588 37.2976 4.56912 25.7611 4.55289 11.5191L4.55289 11.5172C4.57556 7.64947 7.60978 4.5221 11.3549 4.49542H11.3567H11.3611V4.49531C11.3858 4.49431 11.4109 4.4943 11.4382 4.4943C11.8345 4.4943 12.2208 4.53949 12.556 4.61631L12.5559 4.61662L12.5634 4.61769L12.5937 4.622C13.265 4.73644 13.8925 4.97922 14.4304 5.3095L14.4318 5.31043L14.4317 5.31049L14.4347 5.31238C14.6113 5.42382 14.7388 5.61155 14.7739 5.83684C14.7739 5.83685 14.7739 5.83686 14.7739 5.83687L16.3207 15.8769L16.3203 15.877C16.3269 15.9147 16.3299 15.9542 16.3299 15.9959C16.3299 16.2038 16.2481 16.392 16.1164 16.5278C15.3891 17.2745 14.4937 17.8478 13.4458 18.1947L13.3588 18.2235L13.3891 18.31L13.4304 18.4276L13.4303 18.4276L13.4317 18.431C15.1789 22.8313 18.5894 26.3486 22.9726 28.1945L23.068 28.2347L23.0945 28.1345L23.107 28.0872C23.4308 27.0545 23.9857 26.1313 24.7096 25.3804C24.8411 25.2459 25.0222 25.1637 25.2215 25.1637C25.2619 25.1637 25.3011 25.1668 25.3328 25.1724L25.334 25.1726L35.0686 26.7664L35.0691 26.7665L35.069 26.7669L35.0765 26.7681C35.2876 26.8038 35.4687 26.9336 35.5798 27.1206L35.5807 27.1201C35.9144 27.7105 36.1494 28.3695 36.2643 29.103ZM29.5624 35.8147L29.5775 35.8147L29.5811 35.8135C32.5286 35.785 34.9072 33.3224 34.9263 30.2861H34.9263V30.286V30.2858V30.2857V30.2856V30.2855V30.2854V30.2853V30.2851V30.285V30.2849V30.2848V30.2847V30.2845V30.2844V30.2843V30.2842V30.2841V30.284V30.2838V30.2837V30.2836V30.2835V30.2834V30.2833V30.2831V30.283V30.2829V30.2828V30.2827V30.2827V30.2825V30.2824V30.2823V30.2822V30.2821V30.282V30.2818V30.2817V30.2816V30.2815V30.2814V30.2813V30.2811V30.281V30.2809V30.2808V30.2807V30.2806V30.2804V30.2803V30.2802V30.2801V30.28V30.2799V30.2797V30.2796V30.2795V30.2794V30.2793V30.2792V30.279V30.2789V30.2788V30.2787V30.2786V30.2785V30.2783V30.2782V30.2781V30.278V30.2779V30.2778V30.2776V30.2775V30.2774V30.2773V30.2772V30.2771V30.2769V30.2768V30.2767V30.2766V30.2765V30.2764V30.2762V30.2761V30.276V30.2759V30.2758V30.2757V30.2755V30.2754V30.2753V30.2752V30.2751V30.275V30.2748V30.2747V30.2746V30.2745V30.2744V30.2743V30.2741V30.274V30.2739V30.2738V30.2737V30.2736V30.2735V30.2733V30.2732V30.2731V30.273V30.2729V30.2728V30.2726V30.2725V30.2724V30.2723V30.2722V30.2721V30.2719V30.2718V30.2717V30.2716V30.2715V30.2714V30.2713V30.2711V30.271V30.2709V30.2708V30.2707V30.2706V30.2704V30.2703V30.2702V30.2701V30.27V30.2699V30.2697V30.2696V30.2695V30.2694V30.2693V30.2692V30.2691V30.2689V30.2688V30.2687V30.2686V30.2685V30.2684V30.2682V30.2681V30.268V30.2679V30.2678V30.2677V30.2676V30.2674V30.2673V30.2672V30.2671V30.267V30.2669V30.2668V30.2666V30.2665V30.2664V30.2663V30.2662V30.2661V30.2659V30.2658V30.2657V30.2656V30.2655V30.2654V30.2653V30.2651V30.265V30.2649V30.2648V30.2647V30.2646V30.2644V30.2643V30.2642V30.2641V30.264V30.2639V30.2638V30.2636V30.2635V30.2634V30.2633V30.2632V30.2631V30.263V30.2628V30.2627V30.2626V30.2625V30.2624V30.2623V30.2621V30.262V30.2619V30.2618V30.2617V30.2616V30.2615V30.2613V30.2612V30.2611V30.261V30.2609V30.2608V30.2607V30.2605V30.2604V30.2603V30.2602V30.2601V30.26V30.2598V30.2597V30.2596V30.2595V30.2594V30.2593V30.2592V30.259V30.2589V30.2588V30.2587V30.2586V30.2585V30.2584V30.2582V30.2581V30.258V30.2579V30.2578V30.2577V30.2576V30.2574V30.2573V30.2572V30.2571V30.257V30.2569V30.2568V30.2566V30.2565V30.2564V30.2563V30.2562V30.2561V30.2559V30.2558V30.2557V30.2556V30.2555V30.2554V30.2553V30.2551V30.255V30.2549V30.2548V30.2547V30.2546V30.2545V30.2543V30.2542V30.2541V30.254V30.2539V30.2538V30.2536V30.2535V30.2534V30.2533V30.2532V30.2531V30.253V30.2528V30.2527V30.2526V30.2525V30.2524V30.2523V30.2522V30.252V30.2519V30.2518V30.2517V30.2516V30.2515V30.2514V30.2512V30.2511V30.251V30.2509V30.2508V30.2507V30.2505V30.2504V30.2503V30.2502V30.2501V30.25V30.2499V30.2497V30.2496V30.2495V30.2494V30.2493V30.2492V30.2491V30.2489V30.2488V30.2487V30.2486V30.2485V30.2484V30.2482V30.2481V30.248V30.2479V30.2478V30.2477V30.2476V30.2474V30.2473V30.2472V30.2471V30.247V30.2469V30.2467V30.2466V30.2465V30.2464V30.2463V30.2462V30.2461V30.2459V30.2458V30.2457V30.2456V30.2455V30.2454V30.2453V30.2451V30.245V30.2449V30.2448V30.2447V30.2446V30.2444V30.2443V30.2442V30.2441V30.244V30.2439V30.2438V30.2436V30.2435V30.2434V30.2433V30.2432V30.2431V30.2429V30.2428V30.2427V30.2426V30.2425V30.2424V30.2423V30.2421V30.242V30.2419V30.2418V30.2417V30.2416V30.2414V30.2413V30.2412V30.2411V30.241V30.2409V30.2407V30.2406V30.2405V30.2404V30.2403V30.2402V30.2401V30.2399V30.2398V30.2397V30.2396V30.2395V30.2394V30.2392V30.2391V30.239V30.2389V30.2388V30.2387V30.2385V30.2384V30.2383V30.2382V30.2381V30.238V30.2379V30.2377V30.2376V30.2375V30.2374V30.2373V30.2372V30.237V30.2369V30.2368V30.2367V30.2366V30.2365V30.2363V30.2362V30.2361V30.236V30.2359V30.2358V30.2356V30.2355V30.2354V30.2353V30.2352V30.2351V30.2349V30.2348V30.2347V30.2346V30.2345V30.2344V30.2342V30.2341V30.234V30.2339V30.2338V30.2337V30.2335V30.2334V30.2333V30.2332V30.2331V30.233V30.2328V30.2327V30.2326V30.2325V30.2324V30.2323V30.2321V30.232V30.2319V30.2318V30.2317V30.2316V30.2314V30.2313V30.2312V30.2311V30.231V30.2309V30.2307V30.2306V30.2305V30.2304V30.2303V30.2301V30.23V30.2299V30.2298V30.2297V30.2296V30.2294V30.2293V30.2292V30.2291V30.229V30.2289V30.2287V30.2286V30.2285V30.2284V30.2283V30.2281V30.228V30.2279V30.2278V30.2277V30.2276V30.2274V30.2273V30.2272V30.2271V30.227V30.2269V30.2267C34.9263 29.9334 34.8967 29.6466 34.846 29.396L34.8432 29.3727L34.8432 29.3727L34.8427 29.3694C34.7775 28.9613 34.6625 28.571 34.5148 28.2344L34.4952 28.1896L34.447 28.1817L25.5422 26.7227L25.5297 26.7994L25.465 26.7461L25.4644 26.7468L25.4585 26.754L25.358 26.8749L25.3626 26.8757C24.8266 27.5756 24.4525 28.4135 24.2936 29.3574C24.2935 29.3578 24.2934 29.3582 24.2934 29.3586L24.2927 29.362L24.2927 29.362L24.2924 29.3636C24.231 29.7151 23.934 29.9777 23.5808 29.9777C23.4956 29.9777 23.4149 29.9627 23.3458 29.9373L23.3458 29.9372L23.3418 29.936L23.2123 29.8951C17.8655 27.9623 13.627 23.5942 11.7108 17.9427L11.711 17.9427C11.6839 17.8649 11.6693 17.7809 11.6693 17.6923C11.6693 17.3222 11.9261 17.018 12.2671 16.9536L12.2967 16.9494L12.2967 16.9495L12.3 16.9489C13.2426 16.7791 14.0999 16.3541 14.7936 15.7526L14.8312 15.72L14.8236 15.6709L13.4099 6.48677L13.3577 6.49481L13.3861 6.43006C13.046 6.27178 12.6829 6.15665 12.28 6.08801C12.0035 6.02744 11.7174 5.99503 11.424 5.99503H11.4239H11.4238H11.4237H11.4236H11.4234H11.4233H11.4232H11.4231H11.4229H11.4228H11.4227H11.4226H11.4225H11.4223H11.4222H11.4221H11.422H11.4219H11.4217H11.4216H11.4215H11.4214H11.4213H11.4211H11.421H11.4209H11.4208H11.4206H11.4205H11.4204H11.4203H11.4202H11.42H11.4199H11.4198H11.4197H11.4196H11.4194H11.4193H11.4192H11.4191H11.4189H11.4188H11.4187H11.4186H11.4185H11.4183H11.4182H11.4181H11.418H11.4178H11.4177H11.4176H11.4175H11.4174H11.4172H11.4171H11.417H11.4169H11.4167H11.4166H11.4165H11.4164H11.4163H11.4161H11.416H11.4159H11.4158H11.4157H11.4155H11.4154H11.4153H11.4152H11.415H11.4149H11.4148H11.4147H11.4146H11.4144H11.4143H11.4142H11.4141H11.4139H11.4138H11.4137H11.4136H11.4135H11.4133H11.4132H11.4131H11.413H11.4128H11.4127H11.4126H11.4125H11.4124H11.4122H11.4121H11.412H11.4119H11.4117H11.4116H11.4115H11.4114H11.4113H11.4111H11.411H11.4109H11.4108H11.4106H11.4105H11.4104H11.4103H11.4102H11.41H11.4099H11.4098H11.4097H11.4095H11.4094H11.4093H11.4092H11.4091H11.4089H11.4088H11.4087H11.4086H11.4084H11.4083H11.4082H11.4081H11.408H11.4078H11.4077H11.4076H11.4075H11.4073H11.4072H11.4071H11.407H11.4069H11.4067H11.4066H11.4065H11.4064H11.4063H11.4061H11.406H11.4059H11.4058H11.4056H11.4055H11.4054H11.4053H11.4052H11.405H11.4049H11.4048H11.4047H11.4045H11.4044H11.4043H11.4042H11.4041H11.4039H11.4038H11.4037H11.4036H11.4035H11.4033H11.4032H11.4031H11.403H11.4028H11.4027H11.4026H11.4025H11.4024H11.4022H11.4021H11.402H11.4019H11.4017H11.4016H11.4015H11.4014H11.4013H11.4011H11.401H11.4009H11.4008H11.4007H11.4005H11.4004H11.4003H11.4002H11.4001H11.3999H11.3998H11.3997H11.3996H11.3994H11.3993H11.3992H11.3991H11.399H11.3988H11.3987H11.3986H11.3985H11.3984H11.3982H11.3981H11.398H11.3979H11.3978H11.3976H11.3975H11.3974H11.3973H11.3972H11.397H11.3969H11.3968H11.3967H11.3966H11.3964H11.3963H11.3962H11.3961H11.396H11.3958H11.3957H11.3956H11.3955H11.3954H11.3952H11.3951H11.395H11.3949H11.3948H11.3946H11.3945H11.3944H11.3943H11.3942H11.394H11.3939H11.3938H11.3937H11.3936H11.3934H11.3933H11.3932H11.3931H11.393H11.3928H11.3927H11.3926H11.3925H11.3924H11.3922H11.3921H11.392H11.3919H11.3918H11.3916H11.3915H11.3914H11.3913H11.3912H11.3911H11.3909H11.3908H11.3907H11.3906H11.3905H11.3903H11.3902H11.3901H11.39H11.3899H11.3898H11.3896H11.3895H11.3894H11.3893H11.3892H11.389H11.3889H11.3888H11.3887H11.3886H11.3885H11.3883H11.3882H11.3881H11.388H11.3879H11.3877H11.3876H11.3875H11.3874H11.3873H11.3872H11.387H11.3869H11.3868H11.3867H11.3866H11.3865H11.3863H11.3862H11.3861H11.386H11.3859H11.3858H11.3856H11.3855H11.3854H11.3853H11.3852H11.3851H11.3849H11.3848H11.3847H11.3846H11.3845H11.3844H11.3842H11.3841H11.384H11.3839H11.3838H11.3837H11.3836H11.3834H11.3833H11.3832H11.3831H11.383H11.3829H11.3827H11.3826H11.3825H11.3824H11.3823H11.3822H11.3821H11.3819H11.3818H11.3817H11.3816H11.3815H11.3814H11.3813H11.3811H11.381H11.3809H11.3808H11.3807H11.3806H11.3805H11.3803H11.3802H11.3801H11.38H11.3799H11.3798H11.3797H11.3795H11.3794H11.3793H11.3792H11.3791H11.379H11.3789H11.3788H11.3786H11.3785H11.3784H11.3783H11.3782H11.3781H11.378H11.3779H11.3777H11.3776H11.3775H11.3774H11.3773H11.3772H11.3771H11.377H11.3768H11.3767H11.3766H11.3765H11.3764H11.3763H11.3762H11.3761H11.376H11.3758H11.3757H11.3756H11.3755H11.3754H11.3753H11.3752H11.3751H11.375H11.3748H11.3747H11.3746H11.3745H11.3744H11.3743H11.3742H11.3741H11.374H11.3739H11.3737H11.3736H11.3735H11.3734H11.3733H11.3732H11.3731H11.373H11.3729H11.3728H11.3727H11.3725H11.3724H11.3723H11.3722H11.3721H11.372H11.3719H11.3718H11.3717H11.3716H11.3715H11.3714H11.3712H11.3711H11.371H11.3709H11.3708H11.3707H11.3706H11.3705H11.3704H11.3703H11.3702H11.3701H11.37H11.3698H11.3697H11.3696H11.3695H11.3694H11.3693H11.3692H11.3691H11.369H11.3689H11.3688H11.3687H11.3686H11.3685H11.3684H11.3683H11.3682H11.368H11.3679H11.3678H11.3677H11.3676H11.3675H11.3674H11.3673H11.3672H11.3671H11.367H11.3669H11.3668H11.3667H11.3666H11.3665H11.3664H11.3663H11.3662H11.3661H11.366H11.3659H11.3658H11.3657H11.3655H11.3654H11.3653H11.3652H11.3651H11.365H11.3649H11.3648H11.3647H11.3646H11.3645H11.3644H11.3643L11.3621 5.99503L11.3615 5.99504C8.40844 6.01555 6.02256 8.47997 6.00161 11.5197L6.00161 11.5204C6.01687 24.9282 16.5532 35.7989 29.5624 35.8147Z" fill="#2F3030" stroke="#F2F6F9" stroke-width="0.18"/>
</svg>
