<svg width="20" height="20" viewBox="0 0 20 20" fill="none" xmlns="http://www.w3.org/2000/svg">
<path d="M14.8 8.4C14.8 6.70261 14.1257 5.07475 12.9255 3.87452C11.7253 2.67428 10.0974 2 8.4 2C6.70261 2 5.07475 2.67428 3.87452 3.87452C2.67428 5.07475 2 6.70261 2 8.4C2 12.3944 6.4312 16.5544 7.9192 17.8392C8.0579 17.9432 8.22663 17.9994 8.4 17.9992M14.8 18V15.6M12.4 18C12.1878 18 11.9843 17.9157 11.8343 17.7657C11.6843 17.6157 11.6 17.4122 11.6 17.2V14C11.6 13.8683 11.6325 13.7387 11.6946 13.6226C11.7567 13.5065 11.8465 13.4075 11.956 13.3344L14.356 11.7344C14.4875 11.6467 14.642 11.5999 14.8 11.5999C14.958 11.5999 15.1125 11.6467 15.244 11.7344L17.644 13.3344C17.7535 13.4075 17.8433 13.5065 17.9054 13.6226C17.9675 13.7387 18 13.8683 18 14V17.2C18 17.4122 17.9157 17.6157 17.7657 17.7657C17.6157 17.9157 17.4122 18 17.2 18H12.4ZM10.8 8.4C10.8 9.72548 9.72548 10.8 8.4 10.8C7.07452 10.8 6 9.72548 6 8.4C6 7.07452 7.07452 6 8.4 6C9.72548 6 10.8 7.07452 10.8 8.4Z" stroke="black" stroke-linecap="round" stroke-linejoin="round"/>
</svg>
