<svg width="20" height="20" viewBox="0 0 20 20" fill="none" xmlns="http://www.w3.org/2000/svg">
<path d="M11.3826 3.00007C12.8138 3.15095 14.1507 3.78605 15.1721 4.80034C16.1936 5.81462 16.8384 7.14734 17 8.57809M11.3826 5.81015C12.0732 5.9464 12.7069 6.28719 13.2015 6.78828C13.6961 7.28938 14.0287 7.92764 14.1562 8.62024M16.9649 13.4817V15.5893C16.9657 15.7849 16.9256 15.9786 16.8473 16.1578C16.7689 16.3371 16.654 16.498 16.5099 16.6303C16.3658 16.7626 16.1957 16.8633 16.0105 16.9259C15.8252 16.9886 15.6289 17.0119 15.4342 16.9943C13.2735 16.7594 11.1979 16.0207 9.3744 14.8376C7.67784 13.7589 6.23944 12.3198 5.16137 10.6224C3.97468 8.78969 3.23618 6.70306 3.0057 4.53156C2.98815 4.33729 3.01123 4.1415 3.07346 3.95664C3.13569 3.77178 3.23571 3.60191 3.36715 3.45785C3.4986 3.31378 3.65858 3.19868 3.83692 3.11986C4.01527 3.04105 4.20806 3.00025 4.40302 3.00007H6.50954C6.85031 2.99671 7.18067 3.11744 7.43905 3.33976C7.69743 3.56208 7.86619 3.87081 7.91389 4.20841C8.0028 4.88287 8.16769 5.54511 8.40541 6.18249C8.49988 6.43394 8.52033 6.70721 8.46432 6.96993C8.40832 7.23265 8.27822 7.4738 8.08943 7.66481L7.19767 8.55701C8.19725 10.3158 9.65278 11.7721 11.4107 12.7721L12.3025 11.8799C12.4934 11.6911 12.7344 11.5609 12.997 11.5049C13.2596 11.4488 13.5327 11.4693 13.784 11.5638C14.4211 11.8016 15.083 11.9666 15.7572 12.0556C16.0982 12.1037 16.4098 12.2756 16.6324 12.5386C16.8551 12.8015 16.9734 13.1372 16.9649 13.4817Z" stroke="black" stroke-linecap="round" stroke-linejoin="round"/>
</svg>
