<svg width="24" height="24" viewBox="0 0 24 24" fill="none" xmlns="http://www.w3.org/2000/svg">
<path d="M9.71407 8.68932C9.9367 8.05642 10.3761 7.52274 10.9546 7.1828C11.533 6.84286 12.213 6.7186 12.8743 6.83202C13.5355 6.94545 14.1353 7.28924 14.5674 7.8025C14.9995 8.31577 15.2359 8.96538 15.2349 9.6363C15.2349 11.5302 12.394 12.4772 12.394 12.4772M12.4698 16.2651H12.4792M8.58716 19.1061C10.3945 20.0332 12.4736 20.2843 14.4498 19.8142C16.4259 19.344 18.1692 18.1835 19.3654 16.5418C20.5616 14.9001 21.1322 12.8851 20.9742 10.8599C20.8162 8.83479 19.9401 6.93265 18.5037 5.4963C17.0674 4.05994 15.1652 3.18383 13.1401 3.02584C11.1149 2.86786 9.09992 3.43838 7.4582 4.6346C5.81647 5.83082 4.65597 7.57407 4.18583 9.55023C3.71568 11.5264 3.96681 13.6055 4.89395 15.4129L3 21L8.58716 19.1061Z" stroke="black" stroke-width="2" stroke-linecap="round" stroke-linejoin="round"/>
</svg>
