<svg width="34" height="34" viewBox="0 0 34 34" fill="none" xmlns="http://www.w3.org/2000/svg">
<g clip-path="url(#clip0_2383_17937)">
<path d="M17.0329 10.0605C18.2044 10.0605 19.16 11.0161 19.16 12.1877C19.16 13.3591 18.2044 14.3146 17.0329 14.3146C15.8616 14.3146 14.906 13.3591 14.906 12.1877C14.8751 11.0161 15.8308 10.0605 17.0329 10.0605Z" fill="#0090C3"/>
<path fill-rule="evenodd" clip-rule="evenodd" d="M5.3125 0C2.37849 0 0 2.37849 0 5.3125V28.6875C0 31.6215 2.37849 34 5.3125 34H28.6875C31.6215 34 34 31.6215 34 28.6875V5.3125C34 2.37849 31.6215 0 28.6875 0H5.3125ZM17.0328 17.3352C19.8691 17.3352 22.1811 15.0232 22.1811 12.1872C22.1811 9.35107 19.8691 7.03906 17.0328 7.03906C14.166 7.03906 11.854 9.35107 11.854 12.1872C11.854 15.0232 14.166 17.3352 17.0328 17.3352ZM19.0983 21.5585C20.1464 21.3119 21.1637 20.9112 22.0885 20.3255C22.7975 19.8938 23.0133 18.9383 22.5509 18.2292C22.1194 17.5202 21.1637 17.3044 20.4547 17.7668C18.3584 19.0924 15.6149 19.0924 13.5187 17.7668C12.8097 17.3353 11.8849 17.5202 11.4225 18.2292C11.0217 18.9383 11.2375 19.8631 11.9465 20.2946C12.8713 20.8804 13.8886 21.281 14.9367 21.5276L12.0699 24.3946C11.4841 24.9803 11.4841 25.9359 12.0699 26.5217C12.3781 26.8299 12.7481 26.9532 13.1488 26.9532C13.5495 26.9532 13.9195 26.7991 14.2277 26.5217L17.0637 23.6856L19.8999 26.5217C20.4855 27.1073 21.4412 27.1073 22.0269 26.5217C22.6125 25.9359 22.6125 24.9803 22.0269 24.3946L19.0983 21.5585Z" fill="#0090C3"/>
</g>
<defs>
<clipPath id="clip0_2383_17937">
<rect width="34" height="34" rx="17" fill="white"/>
</clipPath>
</defs>
</svg>
