<svg width="34" height="34" viewBox="0 0 34 34" fill="none" xmlns="http://www.w3.org/2000/svg">
<g clip-path="url(#clip0_2383_17940)">
<path fill-rule="evenodd" clip-rule="evenodd" d="M5.3125 0C2.37849 0 0 2.37849 0 5.3125V28.6875C0 31.6215 2.37849 34 5.3125 34H28.6875C31.6215 34 34 31.6215 34 28.6875V5.3125C34 2.37849 31.6215 0 28.6875 0H5.3125ZM17.0911 25.5C17.2064 21.7357 17.3036 20.0175 18.6393 18.6393C20.0175 17.3036 21.7357 17.2125 25.5 17.0911C25.5 20.485 25.4879 23.0229 24.2736 24.2736C23.0229 25.4879 20.6004 25.5 17.0911 25.5ZM9.72643 24.2736C8.51214 23.0229 8.5 20.485 8.5 17.0911C12.2643 17.2064 13.9825 17.3036 15.3607 18.6393C16.6964 20.0175 16.7875 21.7357 16.9089 25.5C13.3996 25.5 10.9771 25.4879 9.72643 24.2736ZM9.72643 9.72643C10.9771 8.51214 13.4057 8.5 16.9089 8.5C16.7936 12.2643 16.6964 13.9825 15.3607 15.3607C13.9825 16.6964 12.2643 16.7875 8.5 16.9089C8.5 13.515 8.51214 10.9771 9.72643 9.72643ZM17.0911 8.5C17.2064 12.2643 17.3036 13.9825 18.6393 15.3607C20.0175 16.6964 21.7357 16.7875 25.5 16.9089C25.5 13.515 25.4879 10.9771 24.2736 9.72643C23.0229 8.51214 20.6004 8.5 17.0911 8.5Z" fill="#0090C3"/>
</g>
<defs>
<clipPath id="clip0_2383_17940">
<rect width="34" height="34" rx="17" fill="white"/>
</clipPath>
</defs>
</svg>
