<svg width="35" height="34" viewBox="0 0 35 34" fill="none" xmlns="http://www.w3.org/2000/svg">
<g clip-path="url(#clip0_2383_17934)">
<path fill-rule="evenodd" clip-rule="evenodd" d="M0 5.3125C0 2.37849 2.44845 0 5.46875 0H29.5312C32.5515 0 35 2.37849 35 5.3125V28.6875C35 31.6215 32.5515 34 29.5312 34H5.46875C2.44845 34 0 31.6215 0 28.6875V5.3125ZM9.975 9.69C8.75 10.8914 8.75 12.8124 8.75 16.66V17.34C8.75 21.182 8.75 23.103 9.975 24.31C11.2117 25.5 13.1892 25.5 17.15 25.5H17.85C21.805 25.5 23.7825 25.5 25.025 24.31C26.25 23.1086 26.25 21.1876 26.25 17.34V16.66C26.25 12.818 26.25 10.897 25.025 9.69C23.7883 8.5 21.8108 8.5 17.85 8.5H17.15C13.195 8.5 11.2175 8.5 9.975 9.69Z" fill="#0090C3"/>
<path d="M18.06 20.7456C14.07 20.7456 11.795 18.0936 11.7017 13.6736H13.7083C13.7725 16.915 15.2425 18.2862 16.4092 18.5696V13.6736H18.2933V16.4672C19.4425 16.3483 20.6558 15.0732 21.0642 13.668H22.9425C22.7893 14.3955 22.4834 15.0844 22.0437 15.6918C21.6041 16.2992 21.0403 16.8121 20.3875 17.1982C21.116 17.5506 21.7593 18.0489 22.2753 18.6602C22.7911 19.2717 23.1676 19.9825 23.38 20.7456H21.3092C20.8658 19.4026 19.7575 18.36 18.2933 18.2183V20.7456H18.06Z" fill="#0090C3"/>
</g>
<defs>
<clipPath id="clip0_2383_17934">
<rect width="35" height="34" rx="17" fill="white"/>
</clipPath>
</defs>
</svg>
