<svg width="34" height="34" viewBox="0 0 34 34" fill="none" xmlns="http://www.w3.org/2000/svg">
<g clip-path="url(#clip0_2383_17932)">
<path fill-rule="evenodd" clip-rule="evenodd" d="M5.3125 0H28.6875C31.6215 0 34 2.37849 34 5.3125V28.6875C34 31.6215 31.6215 34 28.6875 34H5.3125C2.37849 34 0 31.6215 0 28.6875V5.3125C0 2.37849 2.37849 0 5.3125 0ZM17.7351 12.7579C16.2126 13.3911 13.1696 14.7019 8.60616 16.6901C7.86514 16.9847 7.47696 17.2731 7.44162 17.5549C7.3819 18.0313 7.97847 18.2189 8.79085 18.4743C8.90135 18.5091 9.01584 18.5451 9.13323 18.5832C9.93248 18.843 11.0076 19.147 11.5666 19.1591C12.0735 19.1701 12.6394 18.9611 13.2641 18.532C17.5278 15.6539 19.7288 14.1991 19.8669 14.1678C19.9645 14.1457 20.0995 14.1179 20.1911 14.1991C20.2826 14.2805 20.2737 14.4346 20.2639 14.4759C20.2048 14.7278 17.8631 16.905 16.6512 18.0317C16.2734 18.3828 16.0054 18.632 15.9507 18.6889C15.828 18.8165 15.7028 18.9369 15.5826 19.0529C14.8402 19.7687 14.2833 20.3054 15.6134 21.182C16.2527 21.6033 16.7642 21.9516 17.2745 22.2991C17.8318 22.6786 18.3876 23.0572 19.1068 23.5286C19.2901 23.6487 19.4651 23.7734 19.6355 23.895C20.2841 24.3574 20.8668 24.7727 21.5866 24.7065C22.0049 24.6681 22.437 24.2747 22.6564 23.1016C23.175 20.3293 24.1944 14.3226 24.43 11.8474C24.4506 11.6306 24.4246 11.3529 24.4038 11.2312C24.3829 11.1093 24.3393 10.9357 24.181 10.8072C23.9934 10.6551 23.7038 10.6229 23.5744 10.6251C22.9856 10.6356 22.0824 10.9497 17.7351 12.7579Z" fill="#0090C3"/>
</g>
<defs>
<clipPath id="clip0_2383_17932">
<rect width="34" height="34" rx="17" fill="white"/>
</clipPath>
</defs>
</svg>
