<svg width="40" height="40" viewBox="0 0 40 40" xmlns="http://www.w3.org/2000/svg">
<path fill-rule="evenodd" clip-rule="evenodd" d="M20.1264 9.16309C20.1292 9.16309 20.1319 9.16309 20.1347 9.16309C21.8655 9.16319 23.5245 9.85495 24.747 11.0847C25.792 12.136 26.4449 13.5068 26.6122 14.9678H27.521C27.9352 14.9678 28.271 15.3035 28.271 15.7178C28.271 16.132 27.9352 16.4678 27.521 16.4678H26.6122C26.4448 17.929 25.7917 19.3 24.7464 20.3513C23.5238 21.581 21.8648 22.2725 20.134 22.2724M25.0995 16.4678C24.9409 17.5321 24.4476 18.5245 23.6827 19.2937C22.7408 20.2411 21.4642 20.7725 20.134 20.7724C18.804 20.7724 17.528 20.241 16.586 19.2935C15.8213 18.5243 15.3281 17.532 15.1695 16.4678H25.0995ZM25.0995 14.9678H15.1695C15.3248 13.9255 15.8011 12.9522 16.539 12.1899V13.077C16.539 13.4913 16.8748 13.827 17.289 13.827C17.7033 13.827 18.039 13.4913 18.039 13.077V11.1244C18.4617 10.929 18.9108 10.7929 19.3735 10.7215V13.0763C19.3735 13.4906 19.7093 13.8263 20.1235 13.8263C20.5377 13.8263 20.8735 13.4906 20.8735 13.0763V10.7182C21.336 10.7875 21.785 10.9213 22.208 11.1144V13.077C22.208 13.4913 22.5438 13.827 22.958 13.827C23.3722 13.827 23.708 13.4913 23.708 13.077V12.1674C24.4584 12.933 24.9426 13.9152 25.0995 14.9678ZM20.1177 9.16311C18.393 9.16762 16.7408 9.85877 15.5223 11.0845C14.4771 12.1358 13.8241 13.5066 13.6567 14.9678H12.7483C12.3341 14.9678 11.9983 15.3035 11.9983 15.7178C11.9983 16.132 12.3341 16.4678 12.7483 16.4678H13.6567C13.8241 17.9289 14.4771 19.2998 15.5223 20.3511C16.7447 21.5807 18.4031 22.2724 20.134 22.2724M20.1264 9.16309C20.1255 9.16309 20.1245 9.16309 20.1235 9.16309C20.1216 9.16309 20.1196 9.16309 20.1177 9.16311M20.2023 25.853C16.3937 25.853 13.4039 27.5172 12.4763 29.5187C12.3021 29.8945 11.8563 30.058 11.4805 29.8838C11.1047 29.7096 10.9412 29.2638 11.1154 28.888C12.387 26.1439 16.087 24.353 20.2023 24.353C24.3187 24.353 27.9872 26.1276 29.271 28.849C29.4478 29.2236 29.2873 29.6705 28.9127 29.8473C28.5381 30.024 28.0911 29.8636 27.9144 29.4889C26.9767 27.5012 24.0113 25.853 20.2023 25.853Z" />
</svg>
