<?xml version="1.0" encoding="utf-8"?><svg width="25" height="23" fill="none" xmlns="http://www.w3.org/2000/svg" viewBox="0 0 25 23"><path d="M.984 10.795a.75.75 0 000 1.5v-1.5zm14.412 1.28a.75.75 0 000-1.06l-4.773-4.773a.75.75 0 00-1.061 1.06l4.243 4.243-4.243 4.243a.75.75 0 101.06 1.06l4.774-4.772zm-14.412.22h13.881v-1.5H.985v1.5z" fill="#fff"/><path fill-rule="evenodd" clip-rule="evenodd" d="M10.862 1.845h2.903c5.358 0 9.701 4.343 9.701 9.701 0 5.358-4.343 9.701-9.701 9.701h-2.903a9.683 9.683 0 01-7.57-3.635H1.443a11.192 11.192 0 009.418 5.135h2.903c6.186 0 11.201-5.015 11.201-11.201C24.966 5.36 19.951.345 13.765.345h-2.903c-4.107 0-7.697 2.21-9.647 5.506h1.793a9.688 9.688 0 017.854-4.006z" fill="#fff"/></svg>