<?xml version="1.0" encoding="utf-8"?><svg width="31" height="32" xmlns="http://www.w3.org/2000/svg" viewBox="0 0 31 32"><path fill-rule="evenodd" clip-rule="evenodd" d="M27.132 7.834a14.87 14.87 0 012.368 8.068c0 3.856-1.483 7.548-4.112 10.265-2.628 2.716-6.186 4.235-9.888 4.235-2.761 0-5.464-.846-7.765-2.435a14.402 14.402 0 01-5.165-6.505 14.98 14.98 0 01-.8-8.394 14.666 14.666 0 013.842-7.43 13.857 13.857 0 017.163-3.958 13.551 13.551 0 018.072.822 14.118 14.118 0 016.285 5.332zm.84-.543a15.87 15.87 0 012.528 8.611c0 4.111-1.58 8.054-4.393 10.96-2.813 2.907-6.629 4.54-10.607 4.54-2.967 0-5.867-.909-8.334-2.612a15.401 15.401 0 01-5.524-6.956 15.98 15.98 0 01-.854-8.955 15.667 15.667 0 014.105-7.937A14.857 14.857 0 0112.573.7a14.551 14.551 0 018.667.882 15.118 15.118 0 016.732 5.709z"/><path fill-rule="evenodd" clip-rule="evenodd" d="M21.148 12.867a.9.9 0 01-.023 1.272l-5 4.822a.9.9 0 01-1.25 0l-5-4.822a.9.9 0 111.25-1.296l4.375 4.22 4.375-4.22a.9.9 0 011.273.024z"/></svg>