<?xml version="1.0" encoding="utf-8"?><svg width="20" height="20" xmlns="http://www.w3.org/2000/svg" viewBox="0 0 20 20"><path d="M10.001 1C8.139 1 6.61 2.561 6.61 4.463v.692H3.261l-.042.65-.678 12.466-.043.735h15.005l-.042-.736-.678-12.466-.043-.649h-3.348v-.692C13.392 2.56 11.863 1 10.001 1zm0 1.385c.54 0 1.057.219 1.439.609a2.1 2.1 0 01.596 1.469v.692h-4.07v-.692a2.1 2.1 0 01.596-1.47c.382-.389.9-.608 1.439-.608zM4.533 6.54H6.61v2.078h1.356V6.54h4.07v2.078h1.356V6.54h2.077l.594 11.081H3.94l.593-11.08z"/></svg>