<?xml version="1.0" encoding="utf-8"?><svg width="40" height="40" xmlns="http://www.w3.org/2000/svg" viewBox="0 0 40 40"><path fill-rule="evenodd" clip-rule="evenodd" d="M5.706 10.648a.75.75 0 01.75-.75H10a.75.75 0 01.714.52l1.158 3.606h21.236a.75.75 0 01.7 1.017l-2.358 6.192a.75.75 0 01-1.402-.534l1.972-5.175H12.355l2.52 7.842 10.119 1.361a.75.75 0 01-.2 1.487L14.207 24.79a.75.75 0 01-.614-.514l-4.14-12.878H6.456a.75.75 0 01-.75-.75z"/><path fill-rule="evenodd" clip-rule="evenodd" d="M14.508 23.37a.75.75 0 01.493.939l-1.432-.446a.75.75 0 01.94-.493zm-.939.493l-.116.374a222.973 222.973 0 00-.98 3.219c-.29.983.103 1.933.919 2.384.813.45 1.861.317 2.768-.395.68-.535 1.453-1.145 2.219-1.752.877-.694 1.746-1.382 2.464-1.944a.75.75 0 10-.924-1.181c-.713.558-1.595 1.255-2.48 1.955-.768.609-1.54 1.22-2.206 1.742-.54.425-.94.36-1.115.263-.172-.095-.308-.307-.207-.648a222.234 222.234 0 01.974-3.198l.116-.373-1.432-.446zM29.281 21.574a3.513 3.513 0 100 7.026 3.513 3.513 0 000-7.026zm-5.013 3.513a5.013 5.013 0 1110.026 0 5.013 5.013 0 01-10.026 0z"/></svg>