<?xml version="1.0" encoding="utf-8"?><svg width="22" height="22" xmlns="http://www.w3.org/2000/svg" viewBox="0 0 22 22"><path d="M6.417 2.75a3.667 3.667 0 100 7.333 3.667 3.667 0 000-7.333zM8.25 6.417a1.833 1.833 0 11-3.667 0 1.833 1.833 0 013.667 0zm-1.833 5.5a3.667 3.667 0 100 7.333 3.667 3.667 0 000-7.333zm1.833 3.666a1.833 1.833 0 11-3.667 0 1.833 1.833 0 013.667 0zM15.583 2.75a3.667 3.667 0 100 7.333 3.667 3.667 0 000-7.333zm1.834 3.667a1.833 1.833 0 11-3.667 0 1.833 1.833 0 013.667 0zm-1.834 5.5a3.667 3.667 0 100 7.333 3.667 3.667 0 000-7.333zm1.834 3.666a1.833 1.833 0 11-3.667 0 1.833 1.833 0 013.667 0z"/></svg>