<?xml version="1.0" encoding="utf-8"?><svg width="18" height="20" fill="none" xmlns="http://www.w3.org/2000/svg" viewBox="0 0 18 20"><path fill-rule="evenodd" clip-rule="evenodd" d="M.411.993a.75.75 0 01.75-.75h15.26a.75.75 0 01.75.75V18.91a.75.75 0 01-.75.75H1.16a.75.75 0 01-.75-.75V.993zm1.5.75V18.16h13.76V1.743H1.91z" fill="#0090C3"/><path fill-rule="evenodd" clip-rule="evenodd" d="M3.302 4.229a.75.75 0 01.75-.75h9.479a.75.75 0 010 1.5h-9.48a.75.75 0 01-.75-.75zm0 11.08a.75.75 0 01.75-.75h2.102a.75.75 0 010 1.5H4.052a.75.75 0 01-.75-.75z" fill="#0090C3"/></svg>