<?xml version="1.0" encoding="utf-8"?><svg width="40" height="40" xmlns="http://www.w3.org/2000/svg" viewBox="0 0 40 40"><path fill-rule="evenodd" clip-rule="evenodd" d="M10.097 16.342a.75.75 0 01.923 0l3.558 2.777a.75.75 0 01.289.592v7.881a.75.75 0 01-.75.75H7a.75.75 0 01-.75-.75v-7.881a.75.75 0 01.289-.592l3.558-2.777zM7.75 20.077v6.765h5.617v-6.765l-2.809-2.192-2.808 2.192zM29.812 13.281a.75.75 0 01.923 0l3.558 2.777a.75.75 0 01.289.592v7.881a.75.75 0 01-.75.75h-7.117a.75.75 0 01-.75-.75V16.65a.75.75 0 01.288-.591l3.559-2.778zm-2.347 3.735v6.765h5.617v-6.765l-2.809-2.192-2.808 2.192z"/><path d="M11.813 21.42a1.233 1.233 0 11-2.465 0 1.233 1.233 0 012.465 0zM31.536 18.36a1.233 1.233 0 11-2.466 0 1.233 1.233 0 012.466 0z"/><path fill-rule="evenodd" clip-rule="evenodd" d="M9.539 13.135a.75.75 0 01.605-.871l20.011-3.607a.75.75 0 01.266 1.476L10.41 13.74a.75.75 0 01-.871-.605z"/><path fill-rule="evenodd" clip-rule="evenodd" d="M20.75 30.248a.75.75 0 01-.75-.75V11.575a.75.75 0 011.5 0v17.923a.75.75 0 01-.75.75z"/></svg>