<?xml version="1.0" encoding="utf-8"?><svg width="19" height="18" xmlns="http://www.w3.org/2000/svg" viewBox="0 0 19 18"><path fill-rule="evenodd" clip-rule="evenodd" d="M3.65 6.437a2.75 2.75 0 012.75-2.75h3.37a2.75 2.75 0 012.75 2.75v.608h-1.5v-.608c0-.69-.559-1.25-1.25-1.25H6.4c-.69 0-1.25.56-1.25 1.25v3.37c0 .691.56 1.25 1.25 1.25h.887v1.5h-.888a2.75 2.75 0 01-2.75-2.75v-3.37z"/><path fill-rule="evenodd" clip-rule="evenodd" d="M6.696 9.191a2.75 2.75 0 012.75-2.75h3.372a2.75 2.75 0 012.75 2.75v3.372a2.75 2.75 0 01-2.75 2.75H9.446a2.75 2.75 0 01-2.75-2.75V9.19zm2.75-1.25c-.69 0-1.25.56-1.25 1.25v3.372c0 .69.56 1.25 1.25 1.25h3.372c.69 0 1.25-.56 1.25-1.25V9.19c0-.69-.56-1.25-1.25-1.25H9.446z"/></svg>