<?xml version="1.0" encoding="utf-8"?><svg width="40" height="40" xmlns="http://www.w3.org/2000/svg" viewBox="0 0 40 40"><path fill-rule="evenodd" clip-rule="evenodd" d="M15.275 17.136a3.05 3.05 0 100-6.1 3.05 3.05 0 000 6.1zm11.496 0a3.05 3.05 0 100-6.099 3.05 3.05 0 000 6.099zM15.275 28.813a3.05 3.05 0 100-6.1 3.05 3.05 0 000 6.1zm11.496 0a3.05 3.05 0 100-6.1 3.05 3.05 0 000 6.1zM15.275 18.636a4.55 4.55 0 100-9.1 4.55 4.55 0 000 9.1zm11.496 0a4.55 4.55 0 100-9.1 4.55 4.55 0 000 9.1zm-6.947 7.127a4.55 4.55 0 11-9.099 0 4.55 4.55 0 019.1 0zm6.947 4.55a4.55 4.55 0 100-9.1 4.55 4.55 0 000 9.1z"/></svg>