<?xml version="1.0" encoding="utf-8"?><svg width="40" height="40" xmlns="http://www.w3.org/2000/svg" viewBox="0 0 40 40"><path d="M20.391 30.066c-.296 0-.581-.113-.803-.317-.916-.842-1.788-1.623-2.557-2.313l-.003-.003c-2.262-2.026-4.215-3.775-5.57-5.495-1.507-1.91-2.208-3.718-2.208-5.69 0-1.916.624-3.682 1.757-4.974 1.145-1.305 2.716-2.024 4.424-2.024 1.275 0 2.443.424 3.47 1.26.52.422.994.942 1.409 1.546l.08.117.081-.117a7.362 7.362 0 011.409-1.546c1.028-.836 2.196-1.26 3.471-1.26 1.708 0 3.279.719 4.424 2.024 1.133 1.292 1.757 3.058 1.757 4.973 0 1.973-.702 3.782-2.207 5.691-1.355 1.72-3.307 3.469-5.568 5.494-.73.654-1.638 1.468-2.563 2.317a1.186 1.186 0 01-.803.317zm-4.96-19.64a4.735 4.735 0 00-3.602 1.644c-.943 1.075-1.461 2.558-1.461 4.177 0 1.708.601 3.231 1.95 4.942 1.293 1.64 3.211 3.36 5.432 5.35l.006.004c.774.693 1.652 1.48 2.567 2.321l.066.06.065-.06c.937-.857 1.846-1.671 2.577-2.326l.006-.005c2.22-1.988 4.136-3.705 5.428-5.344 1.348-1.71 1.95-3.235 1.95-4.942 0-1.619-.52-3.102-1.462-4.177a4.735 4.735 0 00-3.601-1.645c-1.022 0-1.96.341-2.788 1.014-.734.597-1.245 1.35-1.544 1.878a.72.72 0 01-.629.375.72.72 0 01-.629-.375c-.299-.527-.81-1.28-1.544-1.878-.828-.673-1.766-1.014-2.787-1.014z"/><path fill-rule="evenodd" clip-rule="evenodd" d="M15.43 9.5c-1.634 0-3.137.687-4.235 1.939C10.107 12.68 9.5 14.386 9.5 16.247c0 1.905.674 3.66 2.154 5.537 1.34 1.698 3.273 3.432 5.54 5.463l.008.007.003.003.064.057c.751.673 1.6 1.433 2.488 2.25a.936.936 0 00.634.252.936.936 0 00.634-.251c.924-.849 1.831-1.662 2.56-2.315l.005-.004c2.266-2.03 4.2-3.764 5.539-5.462 1.479-1.876 2.153-3.632 2.153-5.537 0-1.862-.607-3.567-1.695-4.808-1.099-1.252-2.601-1.939-4.236-1.939-1.215 0-2.328.403-3.313 1.204a7.109 7.109 0 00-1.36 1.494l-.287.416-.287-.416a7.1 7.1 0 00-1.36-1.494C17.76 9.903 16.646 9.5 15.431 9.5zm4.96 2.237a7.49 7.49 0 00-1.33-1.42C17.989 9.444 16.766 9 15.43 9c-1.78 0-3.42.751-4.61 2.11C9.641 12.451 9 14.28 9 16.246c0 2.042.729 3.903 2.261 5.846 1.37 1.738 3.339 3.501 5.593 5.52l.002.003.079.07c.751.674 1.597 1.432 2.484 2.247.267.245.612.383.972.383s.705-.137.973-.383a249.66 249.66 0 012.556-2.31l.022-.02c2.247-2.015 4.212-3.775 5.58-5.51 1.531-1.943 2.26-3.804 2.26-5.846 0-1.968-.641-3.795-1.82-5.138C28.773 9.751 27.133 9 25.353 9c-1.336 0-2.559.445-3.63 1.316a7.523 7.523 0 00-1.331 1.421zm2.017-.492c.87-.707 1.863-1.07 2.945-1.07 1.465 0 2.812.616 3.79 1.73.987 1.127 1.523 2.671 1.523 4.342 0 1.777-.63 3.354-2.004 5.096-1.304 1.655-3.231 3.382-5.436 5.357l-.025.023-.004.003c-.73.654-1.638 1.468-2.573 2.323l-.235.215-.234-.216a263.651 263.651 0 00-2.56-2.314l-.003-.003-.007-.007-.015-.013c-2.21-1.98-4.141-3.71-5.448-5.368-1.373-1.742-2.003-3.318-2.003-5.096 0-1.67.535-3.215 1.522-4.341a4.986 4.986 0 013.79-1.73c1.082 0 2.076.362 2.946 1.07.768.623 1.297 1.406 1.604 1.947a.47.47 0 00.411.25.47.47 0 00.411-.25c.308-.54.837-1.323 1.605-1.948zm.315.388c-.7.57-1.193 1.294-1.485 1.807a.97.97 0 01-.846.502.97.97 0 01-.846-.502c-.29-.512-.783-1.237-1.485-1.807-.785-.638-1.668-.958-2.63-.958-1.319 0-2.53.553-3.413 1.56-.897 1.023-1.4 2.445-1.4 4.012 0 1.638.573 3.108 1.897 4.787 1.276 1.62 3.175 3.322 5.401 5.316l.008.007.006.005c.743.666 1.583 1.418 2.46 2.223.901-.823 1.771-1.603 2.476-2.233l.003-.003.004-.003c2.224-1.993 4.121-3.694 5.396-5.312 1.324-1.679 1.897-3.15 1.897-4.787 0-1.567-.502-2.989-1.4-4.012a4.485 4.485 0 00-3.413-1.56c-.962 0-1.845.32-2.63.958z"/></svg>