<?xml version="1.0" encoding="utf-8"?><svg width="20" height="20" fill="none" xmlns="http://www.w3.org/2000/svg" viewBox="0 0 20 20"><path fill-rule="evenodd" clip-rule="evenodd" d="M9.706 1.588C5.186 1.588 1.5 5.32 1.5 9.951c0 4.631 3.686 8.363 8.206 8.363s8.206-3.732 8.206-8.363c0-4.63-3.687-8.363-8.206-8.363zM0 9.951C0 4.516 4.333.088 9.706.088c5.372 0 9.706 4.428 9.706 9.863s-4.334 9.863-9.706 9.863C4.333 19.814 0 15.386 0 9.951z" fill="#0090C3"/><path d="M8.453 15.07V8.106h2.4v6.964h-2.4zm1.253-8.544c-.35 0-.64-.11-.87-.33-.22-.22-.33-.485-.33-.795 0-.32.11-.585.33-.795.23-.22.52-.33.87-.33s.635.105.855.315c.23.2.345.455.345.765 0 .33-.11.61-.33.84-.22.22-.51.33-.87.33z" fill="#0090C3"/></svg>