<?xml version="1.0" encoding="utf-8"?><svg width="40" height="40" xmlns="http://www.w3.org/2000/svg" viewBox="0 0 40 40"><path fill-rule="evenodd" clip-rule="evenodd" d="M10.863 11.295a.75.75 0 01.75-.75h12.58a.75.75 0 01.548.238l4.194 4.481a.75.75 0 01.202.513v13.445a.75.75 0 01-.75.75H11.613a.75.75 0 01-.75-.75V11.295zm1.5.75v16.427h15.274v-12.4l-3.769-4.027H12.363z"/><path fill-rule="evenodd" clip-rule="evenodd" d="M24.333 12.603v2.808h2.627l-2.627-2.808zm-.75-1.656h.93a.75.75 0 01.547.238l3.226 3.447a.748.748 0 01.14.213l.442 1.016a.75.75 0 01-.687 1.05h-4.598a.75.75 0 01-.75-.75v-4.464a.75.75 0 01.75-.75z"/><path d="M20.423 19.956h4.576v5.314h-1.365v-4.122H21.78v4.122h-1.358v-5.314zm-1.992 5.314l-1.107-2.035h-.627v2.035h-1.372v-5.314h1.372v2.065h.662l1.163-2.065h1.449l-1.526 2.566 1.54 2.748H18.43z"/></svg>