<?xml version="1.0" encoding="utf-8"?><svg width="21" height="21" fill="none" xmlns="http://www.w3.org/2000/svg" viewBox="0 0 21 21"><path d="M13.584 15.027c.184-.564 1.046-6.188 1.153-7.297.032-.335-.074-.558-.282-.658-.252-.12-.624-.06-1.055.095-.593.214-8.163 3.428-8.6 3.614-.415.176-.807.368-.807.647 0 .195.116.305.436.42.333.118 1.171.373 1.667.51.477.131 1.02.017 1.324-.173.323-.2 4.046-2.691 4.313-2.91.267-.218.48.062.262.28-.218.219-2.774 2.7-3.111 3.043-.41.417-.119.849.156 1.022.313.197 2.568 1.71 2.907 1.952.34.243.684.353 1 .353.314 0 .48-.416.637-.898z" fill="#0090C3"/><path fill-rule="evenodd" clip-rule="evenodd" d="M19.135 10.951a9 9 0 00-9-9 9 9 0 00-9 9 9 9 0 009 9 9 9 0 009-9zm-9-10c5.523 0 10 4.477 10 10s-4.477 10-10 10-10-4.477-10-10 4.477-10 10-10z" fill="#0090C3"/></svg>