<?xml version="1.0" encoding="utf-8"?><svg width="40" height="40" xmlns="http://www.w3.org/2000/svg" viewBox="0 0 40 40"><path d="M26.76 14.818h-2.474c-.186-.795-.676-1.51-1.388-2.023A4.336 4.336 0 0020.375 12H18.78c-.919.001-1.81.282-2.522.795-.712.513-1.202 1.228-1.388 2.023h-2.473a.855.855 0 00-.565.206.665.665 0 00-.233.498c0 .187.084.366.233.498.15.132.353.207.565.207h.798v9.157c0 .934.422 1.83 1.17 2.49.748.66 1.762 1.031 2.82 1.032h4.787c1.058 0 2.072-.372 2.82-1.033.748-.66 1.17-1.555 1.17-2.489v-9.157h.798a.855.855 0 00.565-.207.665.665 0 00.233-.498.665.665 0 00-.233-.498.855.855 0 00-.565-.206zm-7.98-1.41h1.595c.495.001.978.137 1.382.39.404.252.71.608.876 1.02h-6.111c.166-.412.472-.768.876-1.02a2.623 2.623 0 011.381-.39zm5.585 11.976c0 .56-.252 1.098-.7 1.494a2.564 2.564 0 01-1.694.62h-4.788a2.564 2.564 0 01-1.692-.62c-.45-.396-.701-.933-.701-1.494v-9.157h9.575v9.157z"/><path d="M19.575 24.68a.855.855 0 00.565-.207.665.665 0 00.233-.498v-4.227a.665.665 0 00-.233-.498.855.855 0 00-.565-.206.855.855 0 00-.564.206.665.665 0 00-.234.498v4.227c0 .187.084.366.234.498.15.132.353.206.564.206z"/></svg>