<?xml version="1.0" encoding="utf-8"?><svg width="19" height="16" xmlns="http://www.w3.org/2000/svg" viewBox="0 0 19 16"><path d="M16.172 3.059h-2.325c-.174-.706-.635-1.34-1.304-1.795-.67-.455-1.507-.704-2.371-.705h-1.5c-.864 0-1.702.25-2.371.705-.67.455-1.13 1.09-1.304 1.795H2.672a.832.832 0 00-.53.183.577.577 0 00-.22.442c0 .165.079.324.22.442.14.117.331.183.53.183h.75v8.125c.001.828.397 1.622 1.1 2.208.703.586 1.656.916 2.65.917h4.5c.994-.001 1.947-.331 2.65-.917.703-.586 1.099-1.38 1.1-2.208V4.309h.75c.199 0 .39-.066.53-.183a.577.577 0 00.22-.442.577.577 0 00-.22-.442.832.832 0 00-.53-.183zm-7.5-1.25h1.5c.465 0 .919.12 1.299.344.38.224.667.54.823.906H6.55c.156-.366.443-.682.823-.906.38-.224.834-.344 1.299-.344zm5.25 10.625c0 .497-.237.974-.66 1.325-.421.352-.993.55-1.59.55h-4.5c-.597 0-1.17-.198-1.591-.55-.422-.351-.66-.828-.66-1.325V4.309h9v8.125z"/><path d="M7.922 11.808c.199 0 .39-.066.53-.183a.577.577 0 00.22-.442v-3.75a.577.577 0 00-.22-.442.832.832 0 00-.53-.183.832.832 0 00-.53.183.577.577 0 00-.22.442v3.75c0 .166.079.325.22.442.14.117.331.183.53.183zM10.922 11.808c.199 0 .39-.066.53-.183a.577.577 0 00.22-.442v-3.75a.577.577 0 00-.22-.442.832.832 0 00-.53-.183.833.833 0 00-.53.183.578.578 0 00-.22.442v3.75c0 .166.079.325.22.442.14.117.331.183.53.183z"/></svg>