<?xml version="1.0" encoding="utf-8"?><svg width="33" height="34" xmlns="http://www.w3.org/2000/svg" viewBox="0 0 33 34"><path d="M1.734 11.455a.75.75 0 01.75-.75H6.84a.75.75 0 01.714.52l1.06 3.3a.75.75 0 01.009.028l2.231 8.006h7.897a.75.75 0 010 1.5h-8.467a.75.75 0 01-.722-.549l-2.38-8.54-.889-2.765H2.484a.75.75 0 01-.75-.75zm9.92 1.194a.75.75 0 01.75-.75h13.064a.75.75 0 01.72.958l-2.033 7.057a.75.75 0 11-1.441-.415l1.758-6.1H12.403a.75.75 0 01-.75-.75z"/><path d="M9.845 22.72a.75.75 0 01.642-.081l1.457.484a.75.75 0 01.431 1.052 5.52 5.52 0 00-.213.48c-.14.348-.293.724-.954 1.745a3.804 3.804 0 01-.274.378c-.076.09-.203.228-.377.32a.855.855 0 01-.437.099.813.813 0 01-.521-.221.961.961 0 01-.275-.54 3.233 3.233 0 01-.016-.694c.008-.14.02-.302.032-.464l.021-.287a60.85 60.85 0 01.131-1.599l.01-.09.002-.023v-.008a.752.752 0 01.341-.551zm12.4-2.378a2.66 2.66 0 100 5.319 2.66 2.66 0 000-5.319zm-4.16 2.66a4.16 4.16 0 118.32 0 4.16 4.16 0 01-8.32 0z"/><path d="M30.921 11.925a5.457 5.457 0 11-10.913 0 5.457 5.457 0 0110.913 0z" fill="#0090C3"/><path d="M25.559 9.104a.75.75 0 01.75.75v1.372h1.488a.75.75 0 110 1.5h-1.488v1.27a.75.75 0 01-1.5 0v-1.27h-1.676a.75.75 0 010-1.5h1.676V9.854a.75.75 0 01.75-.75z" fill="#fff"/></svg>