<?xml version="1.0" encoding="utf-8"?><svg width="33" height="33" fill="none" xmlns="http://www.w3.org/2000/svg" viewBox="0 0 33 33"><path d="M4.484 11.004H8.84l1.06 3.3 2.384 8.554h8.467m4.683-3.603l2.034-7.057H14.403m-2.152 10.701s-.069.634-.142 1.692c-.073 1.058-.209 1.995.47.95.931-1.438.725-1.365 1.128-2.157l-1.457-.485zm15.403-.349a3.41 3.41 0 11-6.818 0 3.41 3.41 0 016.818 0z" stroke="#fff" stroke-width="1.5" stroke-linecap="round" stroke-linejoin="round"/><path fill-rule="evenodd" clip-rule="evenodd" d="M10 14.5h16.71l-1.342 4.37h-1.825l-2.16 1.296-.673 2.497h-8.307L10 14.5zm7.244 6.434l3.817-3.755a.671.671 0 10-.95-.95l-2.67 2.609s-.643.7-1.343 0l-.95-.95a.671.671 0 10-.95.95l2.097 2.096a.671.671 0 00.95 0z" fill="#fff"/></svg>