<?xml version="1.0" encoding="utf-8"?><svg width="30" height="29" fill="none" xmlns="http://www.w3.org/2000/svg" viewBox="0 0 30 29"><path d="M15.118.293c7.841 0 14.197 6.356 14.197 14.198 0 7.841-6.356 14.198-14.197 14.198C7.276 28.689.92 22.332.92 14.49.92 6.649 7.276.293 15.118.293zm4.897 19.985c.261-.801 1.485-8.787 1.636-10.36.046-.477-.105-.793-.4-.935-.357-.171-.885-.086-1.498.135-.84.304-11.59 4.867-12.21 5.131-.589.25-1.146.523-1.146.918 0 .278.165.434.62.597.472.168 1.663.53 2.366.723.677.187 1.448.025 1.88-.244.458-.284 5.744-3.821 6.124-4.131.379-.31.681.087.372.397-.31.31-3.939 3.832-4.417 4.32-.581.591-.169 1.205.22 1.45.446.28 3.647 2.428 4.129 2.772.482.345.97.501 1.418.501.448 0 .683-.59.906-1.274z" fill="#000" fill-opacity=".8"/></svg>