<?xml version="1.0" encoding="utf-8"?><svg width="40" height="40" xmlns="http://www.w3.org/2000/svg" viewBox="0 0 40 40"><path fill-rule="evenodd" clip-rule="evenodd" d="M20.126 9.163h.009c1.73 0 3.39.692 4.612 1.922a6.568 6.568 0 011.865 3.883h.909a.75.75 0 110 1.5h-.909a6.568 6.568 0 01-1.866 3.883 6.503 6.503 0 01-4.612 1.921m4.965-5.804a5.067 5.067 0 01-1.416 2.826 5.003 5.003 0 01-3.549 1.478 5.002 5.002 0 01-3.548-1.478 5.067 5.067 0 01-1.416-2.826h9.93zm0-1.5h-9.93a5.068 5.068 0 011.37-2.778v.887a.75.75 0 101.5 0v-1.953a4.997 4.997 0 011.334-.402v2.354a.75.75 0 101.5 0v-2.358c.463.07.912.203 1.335.396v1.963a.75.75 0 101.5 0v-.91a5.068 5.068 0 011.392 2.8zm-4.981-5.805a6.504 6.504 0 00-4.596 1.921 6.568 6.568 0 00-1.865 3.884h-.909a.75.75 0 100 1.5h.909a6.568 6.568 0 001.865 3.883 6.502 6.502 0 004.612 1.921m-.008-13.109h-.008m.084 16.69c-3.808 0-6.798 1.664-7.726 3.666a.75.75 0 11-1.36-.631c1.271-2.744 4.971-4.535 9.086-4.535 4.117 0 7.785 1.775 9.069 4.496a.75.75 0 11-1.357.64c-.937-1.988-3.903-3.636-7.712-3.636z"/></svg>