<?xml version="1.0" encoding="utf-8"?><svg width="27" height="12" xmlns="http://www.w3.org/2000/svg" viewBox="0 0 27 12"><path fill-rule="evenodd" clip-rule="evenodd" d="M3.98.507c-.797.185-1.316.376-2.502.922-1.017.468-1.322.63-1.364.723-.049.106.008.247.482 1.197.295.593.571 1.116.614 1.164.11.124.274.11.9-.08l.553-.168v3.512c0 3.098.01 3.525.078 3.622l.077.11h7.246l.078-.11c.068-.097.077-.524.077-3.622V4.265l.553.167c.626.19.79.205.9.081.043-.048.32-.57.615-1.164.474-.95.53-1.09.482-1.197-.042-.093-.347-.255-1.364-.723C10.02.792 9.202.514 8.681.504c-.3-.005-.274-.032-.507.517-.162.382-.569.8-.952.976-.271.125-.366.143-.78.143-.426 0-.505-.016-.796-.155a1.912 1.912 0 01-.917-.93C4.469.47 4.492.5 4.277.492c-.099-.005-.2 0-.297.015zm1.359.346c.453.881 1.752.881 2.205 0L7.643.66l-.13.033c-.48.12-1.664.12-2.143 0L5.24.66l.099.193zM17.733.507c-.798.185-1.317.376-2.503.922-1.018.468-1.322.63-1.364.723-.049.106.008.247.482 1.197.295.593.571 1.116.614 1.164.11.124.274.11.9-.08l.553-.168v3.512c0 3.098.01 3.525.078 3.622l.077.11h7.246l.078-.11c.068-.097.077-.524.077-3.622V4.265l.553.167c.626.19.79.205.9.081.043-.048.32-.57.615-1.164.474-.95.53-1.09.482-1.197-.043-.093-.347-.255-1.364-.723-1.385-.637-2.203-.915-2.724-.925-.3-.005-.274-.032-.507.517-.162.382-.569.8-.952.976-.271.125-.366.143-.78.143-.427 0-.505-.016-.796-.155a1.912 1.912 0 01-.917-.93c-.26-.585-.237-.555-.452-.563-.099-.005-.198 0-.296.015zm1.358.346c.453.881 1.752.881 2.205 0l.099-.193-.13.033c-.48.12-1.664.12-2.143 0l-.13-.033.099.193z"/></svg>