<?xml version="1.0" encoding="utf-8"?><svg width="17" height="16" xmlns="http://www.w3.org/2000/svg" viewBox="0 0 17 16"><path fill-rule="evenodd" clip-rule="evenodd" d="M5.193.863c-1.036.24-1.71.49-3.252 1.2C.62 2.67.224 2.88.169 3c-.063.138.01.32.626 1.555.384.77.743 1.45.798 1.513.143.16.357.141 1.17-.106l.719-.218v4.563c0 4.026.01 4.58.1 4.707l.1.143h9.415l.1-.143c.089-.127.1-.68.1-4.707V5.745l.72.22c.813.245 1.026.265 1.17.103.055-.062.414-.742.797-1.512.616-1.235.69-1.417.627-1.555-.056-.12-.451-.33-1.773-.94-1.8-.827-2.862-1.188-3.538-1.2-.39-.008-.356-.044-.66.671-.21.496-.738 1.038-1.236 1.268-.352.162-.475.185-1.014.185-.553 0-.655-.02-1.034-.2a2.485 2.485 0 01-1.19-1.209c-.34-.76-.308-.722-.588-.733a1.91 1.91 0 00-.385.02zm1.764.45c.589 1.145 2.277 1.145 2.865 0l.129-.25-.17.042c-.622.157-2.16.157-2.783 0l-.17-.042.129.25z"/></svg>