<?xml version="1.0" encoding="utf-8"?><svg width="30" height="30" fill="none" xmlns="http://www.w3.org/2000/svg" viewBox="0 0 30 30"><path d="M15.118.688C7.289.688.92 7.058.92 14.886c0 2.445.632 4.848 1.829 6.97L.943 28.3a.617.617 0 00.742.766L8.411 27.4a14.207 14.207 0 006.707 1.684c7.828 0 14.197-6.37 14.197-14.198S22.947.688 15.119.688zm7.142 19.208c-.304.84-1.76 1.608-2.46 1.711-.63.092-1.424.132-2.297-.142a21.357 21.357 0 01-2.078-.759c-3.656-1.56-6.044-5.194-6.226-5.435-.183-.24-1.489-1.95-1.489-3.722 0-1.77.942-2.642 1.276-3.002.335-.36.73-.451.972-.451.244 0 .486.003.7.013.223.011.524-.085.82.618.303.72 1.032 2.492 1.122 2.673.092.18.152.39.031.63-.12.24-.181.39-.364.601-.183.21-.383.47-.547.631-.183.18-.372.374-.16.735.213.36.944 1.539 2.028 2.493 1.392 1.226 2.567 1.606 2.931 1.786.364.18.577.15.79-.09.212-.24.91-1.051 1.153-1.41.243-.36.486-.302.82-.181.335.12 2.127.99 2.491 1.17.365.18.608.27.7.42.09.15.09.871-.213 1.711z" fill="#000" fill-opacity=".8"/></svg>