<?xml version="1.0" encoding="utf-8"?><svg viewBox="0 0 60 68" xmlns="http://www.w3.org/2000/svg" xmlns:xlink="http://www.w3.org/1999/xlink"><style>:root>svg{display:none}:root>svg:target{display:block}</style><svg viewBox="0 0 31 32" id="ic_arr-bottom" xmlns="http://www.w3.org/2000/svg"><path fill-rule="evenodd" clip-rule="evenodd" d="M27.132 7.834a14.87 14.87 0 012.368 8.068c0 3.856-1.483 7.548-4.112 10.265-2.628 2.716-6.186 4.235-9.888 4.235-2.761 0-5.464-.846-7.765-2.435a14.402 14.402 0 01-5.165-6.505 14.98 14.98 0 01-.8-8.394 14.666 14.666 0 013.842-7.43 13.857 13.857 0 017.163-3.958 13.551 13.551 0 018.072.822 14.118 14.118 0 016.285 5.332zm.84-.543a15.87 15.87 0 012.528 8.611c0 4.111-1.58 8.054-4.393 10.96-2.813 2.907-6.629 4.54-10.607 4.54-2.967 0-5.867-.909-8.334-2.612a15.401 15.401 0 01-5.524-6.956 15.98 15.98 0 01-.854-8.955 15.667 15.667 0 014.105-7.937A14.857 14.857 0 0112.573.7a14.551 14.551 0 018.667.882 15.118 15.118 0 016.732 5.709z"/><path fill-rule="evenodd" clip-rule="evenodd" d="M21.148 12.867a.9.9 0 01-.023 1.272l-5 4.822a.9.9 0 01-1.25 0l-5-4.822a.9.9 0 111.25-1.296l4.375 4.22 4.375-4.22a.9.9 0 011.273.024z"/></svg><svg viewBox="0 0 16 8" id="ic_arr-down" xmlns="http://www.w3.org/2000/svg"><path fill-rule="evenodd" clip-rule="evenodd" d="M15.75.28c.35.355.33.912-.046 1.244l-7.069 6.24a.97.97 0 01-1.27 0l-7.07-6.24A.847.847 0 01.25.28.97.97 0 011.566.237L8 5.915 14.434.237A.97.97 0 0115.75.28z"/></svg><svg viewBox="0 0 41 40" id="ic_arr-left" xmlns="http://www.w3.org/2000/svg"><path d="M22.714 27.758a.9.9 0 01-1.272-.044l-6.222-6.667a.9.9 0 010-1.228l6.222-6.666a.9.9 0 011.316 1.228l-5.65 6.052 5.65 6.053a.9.9 0 01-.044 1.272z"/></svg><svg viewBox="0 0 41 40" id="ic_arr-right" xmlns="http://www.w3.org/2000/svg"><path d="M18.286 12.242a.9.9 0 011.272.044l6.222 6.667a.9.9 0 010 1.228l-6.222 6.666a.9.9 0 01-1.316-1.228l5.65-6.052-5.65-6.053a.9.9 0 01.044-1.272z"/></svg><svg viewBox="0 0 20 20" id="ic_arrow-down" xmlns="http://www.w3.org/2000/svg"><path fill-rule="evenodd" clip-rule="evenodd" d="M9.882 13.943L4 8.06 5.06 7l5.883 5.882-1.061 1.06z"/><path fill-rule="evenodd" clip-rule="evenodd" d="M9.889 13.945l5.885-5.884L14.713 7l-5.885 5.885 1.06 1.06z"/></svg><svg viewBox="0 0 24 24" id="ic_arrow-left" xmlns="http://www.w3.org/2000/svg"><path fill-rule="evenodd" clip-rule="evenodd" d="M9.854 5.146a.5.5 0 010 .708L3.707 12H22.5a.5.5 0 010 1H3.707l6.147 6.146a.5.5 0 01-.708.708l-7-7a.5.5 0 010-.708l7-7a.5.5 0 01.708 0z"/></svg><svg fill="none" viewBox="0 0 25 23" id="ic_arrow-login" xmlns="http://www.w3.org/2000/svg"><path d="M.984 10.795a.75.75 0 000 1.5v-1.5zm14.412 1.28a.75.75 0 000-1.06l-4.773-4.773a.75.75 0 00-1.061 1.06l4.243 4.243-4.243 4.243a.75.75 0 101.06 1.06l4.774-4.772zm-14.412.22h13.881v-1.5H.985v1.5z" fill="#fff"/><path fill-rule="evenodd" clip-rule="evenodd" d="M10.862 1.845h2.903c5.358 0 9.701 4.343 9.701 9.701 0 5.358-4.343 9.701-9.701 9.701h-2.903a9.683 9.683 0 01-7.57-3.635H1.443a11.192 11.192 0 009.418 5.135h2.903c6.186 0 11.201-5.015 11.201-11.201C24.966 5.36 19.951.345 13.765.345h-2.903c-4.107 0-7.697 2.21-9.647 5.506h1.793a9.688 9.688 0 017.854-4.006z" fill="#fff"/></svg><svg viewBox="0 0 24 24" id="ic_arrow-right" xmlns="http://www.w3.org/2000/svg"><path fill-rule="evenodd" clip-rule="evenodd" d="M15.146 5.146a.5.5 0 01.708 0l7 7a.5.5 0 010 .708l-7 7a.5.5 0 01-.708-.708L21.293 13H2.5a.5.5 0 010-1h18.793l-6.147-6.146a.5.5 0 010-.708z"/></svg><svg viewBox="0 0 20 20" id="ic_bag" xmlns="http://www.w3.org/2000/svg"><path d="M10.001 1C8.139 1 6.61 2.561 6.61 4.463v.692H3.261l-.042.65-.678 12.466-.043.735h15.005l-.042-.736-.678-12.466-.043-.649h-3.348v-.692C13.392 2.56 11.863 1 10.001 1zm0 1.385c.54 0 1.057.219 1.439.609a2.1 2.1 0 01.596 1.469v.692h-4.07v-.692a2.1 2.1 0 01.596-1.47c.382-.389.9-.608 1.439-.608zM4.533 6.54H6.61v2.078h1.356V6.54h4.07v2.078h1.356V6.54h2.077l.594 11.081H3.94l.593-11.08z"/></svg><svg viewBox="0 0 40 40" id="ic_cart" xmlns="http://www.w3.org/2000/svg"><path fill-rule="evenodd" clip-rule="evenodd" d="M5.706 10.648a.75.75 0 01.75-.75H10a.75.75 0 01.714.52l1.158 3.606h21.236a.75.75 0 01.7 1.017l-2.358 6.192a.75.75 0 01-1.402-.534l1.972-5.175H12.355l2.52 7.842 10.119 1.361a.75.75 0 01-.2 1.487L14.207 24.79a.75.75 0 01-.614-.514l-4.14-12.878H6.456a.75.75 0 01-.75-.75z"/><path fill-rule="evenodd" clip-rule="evenodd" d="M14.508 23.37a.75.75 0 01.493.939l-1.432-.446a.75.75 0 01.94-.493zm-.939.493l-.116.374a222.973 222.973 0 00-.98 3.219c-.29.983.103 1.933.919 2.384.813.45 1.861.317 2.768-.395.68-.535 1.453-1.145 2.219-1.752.877-.694 1.746-1.382 2.464-1.944a.75.75 0 10-.924-1.181c-.713.558-1.595 1.255-2.48 1.955-.768.609-1.54 1.22-2.206 1.742-.54.425-.94.36-1.115.263-.172-.095-.308-.307-.207-.648a222.234 222.234 0 01.974-3.198l.116-.373-1.432-.446zM29.281 21.574a3.513 3.513 0 100 7.026 3.513 3.513 0 000-7.026zm-5.013 3.513a5.013 5.013 0 1110.026 0 5.013 5.013 0 01-10.026 0z"/></svg><svg fill="none" viewBox="0 0 40 40" id="ic_cart-plus" xmlns="http://www.w3.org/2000/svg"><path d="M14 20.253h12.066m-5.921 5.813V14" stroke="#fff" stroke-width="1.5" stroke-linecap="round" stroke-linejoin="round"/></svg><svg fill="none" viewBox="0 0 18 20" id="ic_cat" xmlns="http://www.w3.org/2000/svg"><path fill-rule="evenodd" clip-rule="evenodd" d="M.411.993a.75.75 0 01.75-.75h15.26a.75.75 0 01.75.75V18.91a.75.75 0 01-.75.75H1.16a.75.75 0 01-.75-.75V.993zm1.5.75V18.16h13.76V1.743H1.91z" fill="#0090C3"/><path fill-rule="evenodd" clip-rule="evenodd" d="M3.302 4.229a.75.75 0 01.75-.75h9.479a.75.75 0 010 1.5h-9.48a.75.75 0 01-.75-.75zm0 11.08a.75.75 0 01.75-.75h2.102a.75.75 0 010 1.5H4.052a.75.75 0 01-.75-.75z" fill="#0090C3"/></svg><svg viewBox="0 0 22 22" id="ic_catalog" xmlns="http://www.w3.org/2000/svg"><path d="M6.417 2.75a3.667 3.667 0 100 7.333 3.667 3.667 0 000-7.333zM8.25 6.417a1.833 1.833 0 11-3.667 0 1.833 1.833 0 013.667 0zm-1.833 5.5a3.667 3.667 0 100 7.333 3.667 3.667 0 000-7.333zm1.833 3.666a1.833 1.833 0 11-3.667 0 1.833 1.833 0 013.667 0zM15.583 2.75a3.667 3.667 0 100 7.333 3.667 3.667 0 000-7.333zm1.834 3.667a1.833 1.833 0 11-3.667 0 1.833 1.833 0 013.667 0zm-1.834 5.5a3.667 3.667 0 100 7.333 3.667 3.667 0 000-7.333zm1.834 3.666a1.833 1.833 0 11-3.667 0 1.833 1.833 0 013.667 0z"/></svg><svg viewBox="0 0 40 40" id="ic_catalog2" xmlns="http://www.w3.org/2000/svg"><path fill-rule="evenodd" clip-rule="evenodd" d="M15.275 17.136a3.05 3.05 0 100-6.1 3.05 3.05 0 000 6.1zm11.496 0a3.05 3.05 0 100-6.099 3.05 3.05 0 000 6.099zM15.275 28.813a3.05 3.05 0 100-6.1 3.05 3.05 0 000 6.1zm11.496 0a3.05 3.05 0 100-6.1 3.05 3.05 0 000 6.1zM15.275 18.636a4.55 4.55 0 100-9.1 4.55 4.55 0 000 9.1zm11.496 0a4.55 4.55 0 100-9.1 4.55 4.55 0 000 9.1zm-6.947 7.127a4.55 4.55 0 11-9.099 0 4.55 4.55 0 019.1 0zm6.947 4.55a4.55 4.55 0 100-9.1 4.55 4.55 0 000 9.1z"/></svg><svg viewBox="0 0 20 20" id="ic_check-small" xmlns="http://www.w3.org/2000/svg"><path fill-rule="evenodd" clip-rule="evenodd" d="M15.7 6.287a1 1 0 01.013 1.414l-6.875 7a1 1 0 01-1.426 0l-3.125-3.182a1 1 0 011.426-1.402l2.412 2.456 6.162-6.274a1 1 0 011.414-.012z"/></svg><svg viewBox="0 0 40 40" id="ic_compare" xmlns="http://www.w3.org/2000/svg"><path fill-rule="evenodd" clip-rule="evenodd" d="M10.097 16.342a.75.75 0 01.923 0l3.558 2.777a.75.75 0 01.289.592v7.881a.75.75 0 01-.75.75H7a.75.75 0 01-.75-.75v-7.881a.75.75 0 01.289-.592l3.558-2.777zM7.75 20.077v6.765h5.617v-6.765l-2.809-2.192-2.808 2.192zM29.812 13.281a.75.75 0 01.923 0l3.558 2.777a.75.75 0 01.289.592v7.881a.75.75 0 01-.75.75h-7.117a.75.75 0 01-.75-.75V16.65a.75.75 0 01.288-.591l3.559-2.778zm-2.347 3.735v6.765h5.617v-6.765l-2.809-2.192-2.808 2.192z"/><path d="M11.813 21.42a1.233 1.233 0 11-2.465 0 1.233 1.233 0 012.465 0zM31.536 18.36a1.233 1.233 0 11-2.466 0 1.233 1.233 0 012.466 0z"/><path fill-rule="evenodd" clip-rule="evenodd" d="M9.539 13.135a.75.75 0 01.605-.871l20.011-3.607a.75.75 0 01.266 1.476L10.41 13.74a.75.75 0 01-.871-.605z"/><path fill-rule="evenodd" clip-rule="evenodd" d="M20.75 30.248a.75.75 0 01-.75-.75V11.575a.75.75 0 011.5 0v17.923a.75.75 0 01-.75.75z"/></svg><svg viewBox="0 0 19 18" id="ic_copy" xmlns="http://www.w3.org/2000/svg"><path fill-rule="evenodd" clip-rule="evenodd" d="M3.65 6.437a2.75 2.75 0 012.75-2.75h3.37a2.75 2.75 0 012.75 2.75v.608h-1.5v-.608c0-.69-.559-1.25-1.25-1.25H6.4c-.69 0-1.25.56-1.25 1.25v3.37c0 .691.56 1.25 1.25 1.25h.887v1.5h-.888a2.75 2.75 0 01-2.75-2.75v-3.37z"/><path fill-rule="evenodd" clip-rule="evenodd" d="M6.696 9.191a2.75 2.75 0 012.75-2.75h3.372a2.75 2.75 0 012.75 2.75v3.372a2.75 2.75 0 01-2.75 2.75H9.446a2.75 2.75 0 01-2.75-2.75V9.19zm2.75-1.25c-.69 0-1.25.56-1.25 1.25v3.372c0 .69.56 1.25 1.25 1.25h3.372c.69 0 1.25-.56 1.25-1.25V9.19c0-.69-.56-1.25-1.25-1.25H9.446z"/></svg><svg viewBox="0 0 20 20" id="ic_cross" xmlns="http://www.w3.org/2000/svg"><path fill-rule="evenodd" clip-rule="evenodd" d="M14.1 15L5 5.9l.901-.9 9.1 9.1-.9.9z"/><path fill-rule="evenodd" clip-rule="evenodd" d="M5.9 15L15 5.9l-.9-.9L5 14.1l.9.9z"/></svg><svg viewBox="0 0 24 24" id="ic_dl" xmlns="http://www.w3.org/2000/svg"><path fill-rule="evenodd" clip-rule="evenodd" d="M3 14a1 1 0 011 1v4a1 1 0 001 1h14a1 1 0 001-1v-4a1 1 0 112 0v4a3 3 0 01-3 3H5a3 3 0 01-3-3v-4a1 1 0 011-1z"/><path fill-rule="evenodd" clip-rule="evenodd" d="M6.293 9.293a1 1 0 011.414 0L12 13.586l4.293-4.293a1 1 0 111.414 1.414l-5 5a1 1 0 01-1.414 0l-5-5a1 1 0 010-1.414z"/><path fill-rule="evenodd" clip-rule="evenodd" d="M12 2a1 1 0 011 1v12a1 1 0 11-2 0V3a1 1 0 011-1z"/></svg><svg viewBox="0 0 16 15" id="ic_filtr" xmlns="http://www.w3.org/2000/svg"><path fill-rule="evenodd" clip-rule="evenodd" d="M8 6.545v-2H0v-2h8v-2h2v6H8zm4-2h4v-2h-4v2zm-4 10v-2h8v-2H8v-2H6v6h2zm-4-2H0v-2h4v2z"/></svg><svg fill="none" viewBox="0 0 40 40" id="ic_find" xmlns="http://www.w3.org/2000/svg"><path d="M0 20C0 8.954 8.954 0 20 0s20 8.954 20 20-8.954 20-20 20S0 31.046 0 20z"/><path fill-rule="evenodd" clip-rule="evenodd" d="M18.758 13.5a5.258 5.258 0 100 10.516 5.258 5.258 0 000-10.516zM12 18.758a6.758 6.758 0 1111.954 4.323l4.247 4.247a.75.75 0 11-1.06 1.06l-4.269-4.268A6.758 6.758 0 0112 18.758z" fill="#131313"/></svg><svg viewBox="0 0 40 40" id="ic_heart" xmlns="http://www.w3.org/2000/svg"><path d="M20.391 30.066c-.296 0-.581-.113-.803-.317-.916-.842-1.788-1.623-2.557-2.313l-.003-.003c-2.262-2.026-4.215-3.775-5.57-5.495-1.507-1.91-2.208-3.718-2.208-5.69 0-1.916.624-3.682 1.757-4.974 1.145-1.305 2.716-2.024 4.424-2.024 1.275 0 2.443.424 3.47 1.26.52.422.994.942 1.409 1.546l.08.117.081-.117a7.362 7.362 0 011.409-1.546c1.028-.836 2.196-1.26 3.471-1.26 1.708 0 3.279.719 4.424 2.024 1.133 1.292 1.757 3.058 1.757 4.973 0 1.973-.702 3.782-2.207 5.691-1.355 1.72-3.307 3.469-5.568 5.494-.73.654-1.638 1.468-2.563 2.317a1.186 1.186 0 01-.803.317zm-4.96-19.64a4.735 4.735 0 00-3.602 1.644c-.943 1.075-1.461 2.558-1.461 4.177 0 1.708.601 3.231 1.95 4.942 1.293 1.64 3.211 3.36 5.432 5.35l.006.004c.774.693 1.652 1.48 2.567 2.321l.066.06.065-.06c.937-.857 1.846-1.671 2.577-2.326l.006-.005c2.22-1.988 4.136-3.705 5.428-5.344 1.348-1.71 1.95-3.235 1.95-4.942 0-1.619-.52-3.102-1.462-4.177a4.735 4.735 0 00-3.601-1.645c-1.022 0-1.96.341-2.788 1.014-.734.597-1.245 1.35-1.544 1.878a.72.72 0 01-.629.375.72.72 0 01-.629-.375c-.299-.527-.81-1.28-1.544-1.878-.828-.673-1.766-1.014-2.787-1.014z"/><path fill-rule="evenodd" clip-rule="evenodd" d="M15.43 9.5c-1.634 0-3.137.687-4.235 1.939C10.107 12.68 9.5 14.386 9.5 16.247c0 1.905.674 3.66 2.154 5.537 1.34 1.698 3.273 3.432 5.54 5.463l.008.007.003.003.064.057c.751.673 1.6 1.433 2.488 2.25a.936.936 0 00.634.252.936.936 0 00.634-.251c.924-.849 1.831-1.662 2.56-2.315l.005-.004c2.266-2.03 4.2-3.764 5.539-5.462 1.479-1.876 2.153-3.632 2.153-5.537 0-1.862-.607-3.567-1.695-4.808-1.099-1.252-2.601-1.939-4.236-1.939-1.215 0-2.328.403-3.313 1.204a7.109 7.109 0 00-1.36 1.494l-.287.416-.287-.416a7.1 7.1 0 00-1.36-1.494C17.76 9.903 16.646 9.5 15.431 9.5zm4.96 2.237a7.49 7.49 0 00-1.33-1.42C17.989 9.444 16.766 9 15.43 9c-1.78 0-3.42.751-4.61 2.11C9.641 12.451 9 14.28 9 16.246c0 2.042.729 3.903 2.261 5.846 1.37 1.738 3.339 3.501 5.593 5.52l.002.003.079.07c.751.674 1.597 1.432 2.484 2.247.267.245.612.383.972.383s.705-.137.973-.383a249.66 249.66 0 012.556-2.31l.022-.02c2.247-2.015 4.212-3.775 5.58-5.51 1.531-1.943 2.26-3.804 2.26-5.846 0-1.968-.641-3.795-1.82-5.138C28.773 9.751 27.133 9 25.353 9c-1.336 0-2.559.445-3.63 1.316a7.523 7.523 0 00-1.331 1.421zm2.017-.492c.87-.707 1.863-1.07 2.945-1.07 1.465 0 2.812.616 3.79 1.73.987 1.127 1.523 2.671 1.523 4.342 0 1.777-.63 3.354-2.004 5.096-1.304 1.655-3.231 3.382-5.436 5.357l-.025.023-.004.003c-.73.654-1.638 1.468-2.573 2.323l-.235.215-.234-.216a263.651 263.651 0 00-2.56-2.314l-.003-.003-.007-.007-.015-.013c-2.21-1.98-4.141-3.71-5.448-5.368-1.373-1.742-2.003-3.318-2.003-5.096 0-1.67.535-3.215 1.522-4.341a4.986 4.986 0 013.79-1.73c1.082 0 2.076.362 2.946 1.07.768.623 1.297 1.406 1.604 1.947a.47.47 0 00.411.25.47.47 0 00.411-.25c.308-.54.837-1.323 1.605-1.948zm.315.388c-.7.57-1.193 1.294-1.485 1.807a.97.97 0 01-.846.502.97.97 0 01-.846-.502c-.29-.512-.783-1.237-1.485-1.807-.785-.638-1.668-.958-2.63-.958-1.319 0-2.53.553-3.413 1.56-.897 1.023-1.4 2.445-1.4 4.012 0 1.638.573 3.108 1.897 4.787 1.276 1.62 3.175 3.322 5.401 5.316l.008.007.006.005c.743.666 1.583 1.418 2.46 2.223.901-.823 1.771-1.603 2.476-2.233l.003-.003.004-.003c2.224-1.993 4.121-3.694 5.396-5.312 1.324-1.679 1.897-3.15 1.897-4.787 0-1.567-.502-2.989-1.4-4.012a4.485 4.485 0 00-3.413-1.56c-.962 0-1.845.32-2.63.958z"/></svg><svg fill="none" viewBox="0 0 20 20" id="ic_i" xmlns="http://www.w3.org/2000/svg"><path fill-rule="evenodd" clip-rule="evenodd" d="M9.706 1.588C5.186 1.588 1.5 5.32 1.5 9.951c0 4.631 3.686 8.363 8.206 8.363s8.206-3.732 8.206-8.363c0-4.63-3.687-8.363-8.206-8.363zM0 9.951C0 4.516 4.333.088 9.706.088c5.372 0 9.706 4.428 9.706 9.863s-4.334 9.863-9.706 9.863C4.333 19.814 0 15.386 0 9.951z" fill="#0090C3"/><path d="M8.453 15.07V8.106h2.4v6.964h-2.4zm1.253-8.544c-.35 0-.64-.11-.87-.33-.22-.22-.33-.485-.33-.795 0-.32.11-.585.33-.795.23-.22.52-.33.87-.33s.635.105.855.315c.23.2.345.455.345.765 0 .33-.11.61-.33.84-.22.22-.51.33-.87.33z" fill="#0090C3"/></svg><svg viewBox="0 0 40 40" id="ic_kp" xmlns="http://www.w3.org/2000/svg"><path fill-rule="evenodd" clip-rule="evenodd" d="M10.863 11.295a.75.75 0 01.75-.75h12.58a.75.75 0 01.548.238l4.194 4.481a.75.75 0 01.202.513v13.445a.75.75 0 01-.75.75H11.613a.75.75 0 01-.75-.75V11.295zm1.5.75v16.427h15.274v-12.4l-3.769-4.027H12.363z"/><path fill-rule="evenodd" clip-rule="evenodd" d="M24.333 12.603v2.808h2.627l-2.627-2.808zm-.75-1.656h.93a.75.75 0 01.547.238l3.226 3.447a.748.748 0 01.14.213l.442 1.016a.75.75 0 01-.687 1.05h-4.598a.75.75 0 01-.75-.75v-4.464a.75.75 0 01.75-.75z"/><path d="M20.423 19.956h4.576v5.314h-1.365v-4.122H21.78v4.122h-1.358v-5.314zm-1.992 5.314l-1.107-2.035h-.627v2.035h-1.372v-5.314h1.372v2.065h.662l1.163-2.065h1.449l-1.526 2.566 1.54 2.748H18.43z"/></svg><svg fill="none" viewBox="0 0 24 24" id="ic_location" xmlns="http://www.w3.org/2000/svg"><path d="M12 12a4 4 0 10-.001-8 4 4 0 000 8zm0-6a2 2 0 11-.001 4 2 2 0 010-4zm8.66 3.157l-.72-.239A8 8 0 0012 0a7.993 7.993 0 00-7.915 9.092 5.045 5.045 0 00-2.548 1.3A4.946 4.946 0 000 14v4.075a5.013 5.013 0 003.6 4.8l2.87.9c.482.15.984.226 1.49.225.457 0 .913-.063 1.354-.186l5.78-1.71a2.988 2.988 0 011.573 0l2.387.8A3.999 3.999 0 0024 19.021v-5.149a5.016 5.016 0 00-3.34-4.716v.001zM7.756 3.762a5.987 5.987 0 018.484 0 6.037 6.037 0 01.011 8.5L12.7 15.717a.992.992 0 01-1.389 0l-3.553-3.44a6.04 6.04 0 010-8.515zM22 19.021a1.99 1.99 0 01-.764 1.572 1.97 1.97 0 01-1.626.395l-2.345-.788a5.023 5.023 0 00-2.717-.016l-5.784 1.708a3 3 0 01-1.694-.029l-2.894-.9A3.013 3.013 0 012 18.075V14a2.964 2.964 0 01.92-2.163 3.025 3.025 0 011.67-.806A8.02 8.02 0 006.352 13.7l3.567 3.453a2.983 2.983 0 004.174 0l3.563-3.463a7.963 7.963 0 001.813-2.821l.537.178A3.007 3.007 0 0122 13.872v5.149z" fill="#1C1C1E"/></svg><svg viewBox="0 0 25 24" id="ic_loupe" xmlns="http://www.w3.org/2000/svg"><path fill-rule="evenodd" clip-rule="evenodd" d="M13.225 4.949a6.16 6.16 0 00-4.44 10.428.986.986 0 01.171.171 6.16 6.16 0 104.269-10.6zm-5.003 12.54a8.108 8.108 0 10-1.378-1.378l-3.225 3.225a.975.975 0 001.378 1.379l3.225-3.226z"/></svg><svg fill="none" viewBox="0 0 24 23" id="ic_mail" xmlns="http://www.w3.org/2000/svg"><path d="M19 .182H5a5.006 5.006 0 00-5 5v12a5.006 5.006 0 005 5h14a5.006 5.006 0 005-5v-12a5.006 5.006 0 00-5-5zm-14 2h14a3 3 0 012.78 1.887l-7.658 7.66a3.007 3.007 0 01-4.244 0L2.22 4.068A3 3 0 015 2.182zm14 18H5a3 3 0 01-3-3v-10.5l6.464 6.46a5.007 5.007 0 007.072 0L22 6.682v10.5a3 3 0 01-3 3z" fill="#1C1C1E"/></svg><svg fill="none" viewBox="0 0 21 21" id="ic_online-tg" xmlns="http://www.w3.org/2000/svg"><path d="M13.584 15.027c.184-.564 1.046-6.188 1.153-7.297.032-.335-.074-.558-.282-.658-.252-.12-.624-.06-1.055.095-.593.214-8.163 3.428-8.6 3.614-.415.176-.807.368-.807.647 0 .195.116.305.436.42.333.118 1.171.373 1.667.51.477.131 1.02.017 1.324-.173.323-.2 4.046-2.691 4.313-2.91.267-.218.48.062.262.28-.218.219-2.774 2.7-3.111 3.043-.41.417-.119.849.156 1.022.313.197 2.568 1.71 2.907 1.952.34.243.684.353 1 .353.314 0 .48-.416.637-.898z" fill="#0090C3"/><path fill-rule="evenodd" clip-rule="evenodd" d="M19.135 10.951a9 9 0 00-9-9 9 9 0 00-9 9 9 9 0 009 9 9 9 0 009-9zm-9-10c5.523 0 10 4.477 10 10s-4.477 10-10 10-10-4.477-10-10 4.477-10 10-10z" fill="#0090C3"/></svg><svg fill="none" viewBox="0 0 22 22" id="ic_phone" xmlns="http://www.w3.org/2000/svg"><path d="M21.42 1.854v3.667a.94.94 0 01-.256.648.855.855 0 01-.619.269.855.855 0 01-.619-.269.94.94 0 01-.256-.648V3.17l-4.638 4.833a.854.854 0 01-.616.256.856.856 0 01-.61-.27.94.94 0 01-.255-.642.94.94 0 01.248-.644l4.655-4.85H16.17a.855.855 0 01-.619-.268.94.94 0 01-.256-.648.94.94 0 01.256-.649.855.855 0 01.619-.268h3.5c.464 0 .91.193 1.237.537.329.344.513.81.513 1.296zm-.792 13.511c.507.533.792 1.254.792 2.007 0 .752-.285 1.474-.792 2.006l-.798.963C12.663 27.525-4.775 9.263 1.98 1.732L2.985.816A2.635 2.635 0 014.886.02a2.64 2.64 0 011.887.83C6.8.88 8.421 3.086 8.421 3.086c.48.53.749 1.233.748 1.963a2.915 2.915 0 01-.753 1.961L7.402 8.346a11.77 11.77 0 002.426 3.817 11.164 11.164 0 003.638 2.55l1.282-1.069a2.648 2.648 0 011.871-.788 2.648 2.648 0 011.874.783s2.108 1.699 2.135 1.726zm-1.203 1.333s-2.094-1.689-2.121-1.716a.941.941 0 00-.678-.292.94.94 0 00-.677.292c-.024.024-1.789 1.498-1.789 1.498a.838.838 0 01-.857.14 13.073 13.073 0 01-4.7-3.16 13.84 13.84 0 01-3.02-4.919.957.957 0 01.126-.912S7.115 5.78 7.14 5.756c.179-.19.28-.444.28-.71 0-.266-.101-.522-.28-.71-.026-.028-1.638-2.222-1.638-2.222a.937.937 0 00-.667-.258.942.942 0 00-.654.292l-1.006.917C-1.764 9.282 13.35 24.238 18.55 19.09l.798-.962c.188-.181.301-.432.316-.699a1.058 1.058 0 00-.239-.731z" fill="#1C1C1E"/></svg><svg fill="none" viewBox="0 0 60 68" id="ic_pin" xmlns="http://www.w3.org/2000/svg"><g clip-path="url(#bdclip0_507_5633)"><g filter="url(#bdfilter0_f_507_5633)"><path d="M30.51 56.523a.5.5 0 01-.5.477c-.29 0-.51-.21-.52-.477-.145-3.168-1.756-5.217-4.832-6.147C14.53 47.968 7 38.863 7 28 7 15.297 17.297 5 30 5s23 10.297 23 23c0 10.863-7.53 19.968-17.658 22.376-3.076.93-4.687 2.98-4.83 6.147h-.002z" fill="red"/></g><path d="M30.51 56.523a.5.5 0 01-.5.477c-.29 0-.51-.21-.52-.477-.145-3.168-1.756-5.217-4.832-6.147C14.53 47.968 7 38.863 7 28 7 15.297 17.297 5 30 5s23 10.297 23 23c0 10.863-7.53 19.968-17.658 22.376-3.076.93-4.687 2.98-4.83 6.147h-.002z" fill="red"/><path d="M30 68c-2.21 0-4-1.79-4-4s1.79-4 4-4 4 1.79 4 4-1.79 4-4 4z" fill="#fff"/><path d="M30 66a2 2 0 10.09-3.998A2 2 0 0030 66z" fill="#000"/><path fill-rule="evenodd" clip-rule="evenodd" d="M30 34.2V39h11.4a.6.6 0 00.6-.6V24.6a.6.6 0 00-.6-.6h-4.954l-.158 2H40v1h-3.79l-.159 2H40v1h-4.028l-.373 4.715a.303.303 0 01-.323.284.306.306 0 01-.276-.309V18.4a.4.4 0 00-.4-.4H34v-.6a.4.4 0 00-.4-.4H23.4a.4.4 0 00-.4.4v.6h-.6a.4.4 0 00-.4.4v20a.6.6 0 00.6.6H27v-4.8c0-.11.09-.2.2-.2h2.6c.11 0 .2.09.2.2zM25.5 31v-6h2v6h-2zm4-6v6h2v-6h-2zm-4-2v-3h2v3h-2zm4-3v3h2v-3h-2zM37 33v-1h3v1h-3z" fill="#fff"/><path d="M36.525 23l.08-1h2.994c.22 0 .4.18.4.4v.6h-3.474z" fill="#fff"/></g><defs><clipPath id="bdclip0_507_5633"><path fill="#fff" d="M0 0h60v68H0z"/></clipPath><filter id="bdfilter0_f_507_5633" x="1" y="-1" width="58" height="64" filterUnits="userSpaceOnUse" color-interpolation-filters="sRGB"><feFlood flood-opacity="0" result="BackgroundImageFix"/><feBlend in="SourceGraphic" in2="BackgroundImageFix" result="shape"/><feGaussianBlur stdDeviation="3" result="effect1_foregroundBlur_507_5633"/></filter></defs></svg><svg fill="none" viewBox="0 0 43 43" id="ic_play" xmlns="http://www.w3.org/2000/svg"><circle opacity=".83" cx="21.355" cy="21.474" r="20.816" fill="#0090C3"/><path d="M26.752 21.78l-8.556 4.94v-9.879l8.556 4.94z" fill="#fff"/></svg><svg viewBox="0 0 21 21" id="ic_set" xmlns="http://www.w3.org/2000/svg"><path d="M6.836.83L7.08.827c.17-.001.34-.001.51 0 .172 0 .344-.001.515-.003 2.546-.031 2.546-.031 3.115.453.093.106.15.216.213.342l.068.134c.05.112.05.112.05.196l.113.035c.136.046.261.1.39.163l.146.07.154.075.08.038.42.205.429.207.333.162.234.112c.833.41 1.47 1.009 1.776 1.887.078.246.115.464.112.722v.147l-.002.112a724.159 724.159 0 013.858-.019l.12-.002c.263.002.263.002.402.094.07.108.081.164.08.29l-.001.119-.003.128v.274c0 .142-.002.285-.004.427-.007.54.026 1.02.18 1.54.166.607.192 1.178.187 1.803v.338c.002.27 0 .54 0 .81-.002.316-.002.632-.002.947 0 .563 0 1.125-.003 1.688l-.003 1.635-.001 2.074v.66a152.944 152.944 0 01-.003 1.21l-.002.441v.131c-.003.287-.003.287-.1.426-.145.088-.29.08-.455.079h-1.921a89.372 89.372 0 01-.767 0h-.45c-.143-.001-.235-.005-.35-.093-.092-.114-.109-.185-.128-.329l-.019-.135c-.005-.044-.01-.089-.017-.135l-.016-.117a27.39 27.39 0 01-.044-.35l-.017-.132a207.501 207.501 0 01-.09-.727l-.076-.625a545.715 545.715 0 00-.212-1.713l-.05-.412-.015-.122a4.593 4.593 0 01-.035-.658h-.085l-.005.11a24.64 24.64 0 01-.159 1.615l-.036.302a636.112 636.112 0 01-.172 1.435 219.835 219.835 0 01-.161 1.334l-.014.124c-.027.21-.06.38-.179.564-.137.067-.287.049-.437.05a37.558 37.558 0 01-.473.002h-.124l-.654.002c-.225 0-.45.002-.676.004a89.726 89.726 0 01-.768.003h-.348l-.104.002c-.141-.001-.237-.005-.353-.087-.103-.136-.1-.25-.096-.413v-.094l.002-.307.001-.213c0-.187.002-.374.004-.56l.004-.573.008-1.123h-.125a1585.557 1585.557 0 01-4.46.012 411.565 411.565 0 01-1.938.006 94.887 94.887 0 01-.863.002h-.316l-.093.002a.538.538 0 01-.337-.09c-.087-.13-.088-.213-.087-.368v-.167a560.068 560.068 0 01.001-.376l.002-.524.002-.548c0-.346.002-.691.003-1.037l.004-1.181.009-2.43-.097.002a157.842 157.842 0 01-1.358.011l-.445.004-.253.003H.311c-.15-.025-.2-.066-.288-.187C0 10.638 0 10.638 0 10.52v-.137l.001-.148V9.202c0-.25 0-.502.002-.753V7.58a219.505 219.505 0 01.002-1.69v-.147c.004-.442.092-.85.3-1.243l.045-.086c.43-.79 1.1-1.157 1.887-1.541l.43-.212.614-.304a2794.346 2794.346 0 01.475-.233l.108-.054.1-.048.086-.043c.072-.03.072-.03.157-.03l.027-.097c.213-.56.213-.56.425-.674a4.04 4.04 0 01.355-.088c.093-.021.185-.046.277-.072A5.582 5.582 0 016.836.83zm-.323.701v.67h2.733v-.67H6.513zm3.416.126l.002.12-.001.447v.193c.005.384-.012.662-.296.955l-.089.085a7.313 7.313 0 00-.123.144l-.11.125c-.176.204-.35.41-.52.619a3.804 3.804 0 01-.23.244c-.21.212-.364.372-.373.679.004.123.015.244.032.366a4 4 0 00.674-.284l.12-.06c.125-.06.25-.123.375-.185a671.902 671.902 0 01.88-.434 56.472 56.472 0 01.016-.734 65.912 65.912 0 00.01-.43c.018-.134.018-.134.07-.214.1-.06.175-.063.294-.067l.127-.004.132-.003.134-.004.328-.01a6.005 6.005 0 00-.347-.802l-.07-.151c-.133-.293-.133-.293-.383-.477-.087-.021-.087-.021-.182-.034l-.126-.025a9.533 9.533 0 00-.344-.06zm-4.868.167c-.175.203-.277.454-.383.697-.06.135-.129.264-.198.394-.078.14-.078.14-.102.29l.084.003.378.01.132.004.128.004.117.004c.1.018.1.018.177.063.08.123.07.232.074.376l.002.087a28.093 28.093 0 01.01.46l.008.455a581.362 581.362 0 001.527.752l.128.064.12.059.105.051c.082.043.082.043.17.037.048-.388.048-.388-.072-.747a6.023 6.023 0 00-.312-.3 8.524 8.524 0 01-.187-.222 17.712 17.712 0 00-.311-.37l-.06-.068-.165-.188-.058-.07a4.585 4.585 0 00-.182-.2c-.338-.369-.379-.67-.366-1.155V2.12c-.001-.155.001-.31.005-.464-.268 0-.54.019-.769.167zm1.623 1.047c.11.181.11.181.24.342.02.023.04.047.062.07l.066.075.138.155.069.078c.2.229.395.461.578.703.159-.052.196-.112.299-.24l.102-.126.055-.067c.097-.118.198-.234.3-.35.304-.296.304-.296.482-.64H6.684zm-3.49.322l-.1.048a94.909 94.909 0 00-.527.257c-.78.38-1.426.8-1.738 1.636-.145.475-.135.981-.131 1.472a177.824 177.824 0 01.002.72l.002.627c0 .315.002.63.004.946h2.05a8811.07 8811.07 0 00.014-1.237l.006-.451.001-.143.003-.132.001-.116c.02-.116.05-.153.145-.223.083-.017.083-.017.171-.016h.088c.111.022.143.052.211.141.019.122.019.122.022.269l.004.16.003.165.005.168.009.41a1223.87 1223.87 0 011.458.015 65.012 65.012 0 01.699.007l.155.002.137.002a.393.393 0 01.191.058c.081.137.068.281.066.434l.001.109a41.997 41.997 0 010 .601v1.179a107.823 107.823 0 010 1.095v.102c-.002.223-.002.223-.067.332-.112.06-.2.058-.328.06l-.158.002-.165.001-.152.002c-.188.003-.376.004-.564.005l-1.273.014v5.023h4.099V6.43L4.891 5.132c-.06-.117-.052-.218-.057-.349l-.005-.16-.005-.167a315.13 315.13 0 00-.019-.58l-.108-.002a56.855 56.855 0 01-.651-.014l-.162-.005-.15-.003c-.124-.018-.124-.018-.205-.072-.083-.125-.069-.264-.048-.407.065-.141.065-.141.129-.25v-.085c-.151 0-.283.09-.415.155zm8.956-.155c.055.171.055.171.128.335.02.307.02.307-.048.402-.117.085-.21.077-.354.08l-.162.005-.17.003c-.057 0-.114.002-.171.004l-.419.009a45.959 45.959 0 01-.011.494l-.005.25-.005.16-.003.146c-.019.122-.019.122-.147.247-.845.415-1.69.83-2.562 1.256v10.508h2.733v-.677c-.001-.742 0-1.484.001-2.226.001-.45.002-.899.001-1.348l.001-1.177v-.622c-.003-.851.013-1.63.271-2.449.136-.446.106-.922.1-1.383l-.001-.43a16.477 16.477 0 00-.002-.38l-.002-.104c.015-.088.015-.088.06-.162.132-.082.271-.07.423-.07l.105-.001a44.091 44.091 0 01.581-.005l.626-.004.64-.005c.417-.004.835-.007 1.253-.009l.002-.221v-.125c-.013-.545-.385-1.05-.77-1.412-.25-.207-.522-.353-.812-.497l-.13-.066a109.812 109.812 0 00-.78-.39l-.085-.042c-.137-.071-.137-.071-.286-.094zm-.171 3.517v1.34h.683v-1.34h-.683zm1.366 0v1.34h.684v-1.34h-.684zm1.367 0v1.34h.683v-1.34h-.683zm1.366 0v1.34h.683v-1.34h-.683zm1.367 0v1.34h.683v-1.34h-.683zm1.366 0v1.34h.683v-1.34h-.683zM3.44 8.565v.67h2.05v-.67H3.44zm8.497 0c-.045.124-.087.25-.128.376l-.046.141c-.142.49-.148.956-.144 1.462v.276c0 .248 0 .496.002.744l.001.78c0 .49.002.982.004 1.473l.003 1.178v.501c.002 1.15.006 2.3.01 3.45h2.903c.058-.113.063-.218.078-.345a22.203 22.203 0 01.043-.355l.023-.196a202.435 202.435 0 00.131-1.09 2045.943 2045.943 0 00.434-3.61l.05-.413a62.425 62.425 0 00.054-.453l.018-.148c.022-.124.051-.226.108-.339a.702.702 0 01.427-.042c.132.1.151.188.174.345l.02.137.02.146.02.146a61.42 61.42 0 01.082.672 267.141 267.141 0 01.124 1.022l.188 1.552a1664.49 1664.49 0 00.337 2.78c.012.107.012.107.06.192h2.904c.006-1.2.01-2.4.013-3.6l.006-1.672c.003-.486.004-.972.005-1.458 0-.257.001-.514.003-.77a84.161 84.161 0 00.003-.994 5.394 5.394 0 00-.286-1.847c-.048-.056-.048-.056-.167-.047h-.579a560.335 560.335 0 01-.836.001h-.639a1683.988 1683.988 0 00-2.588.002l-2.835.002zM.706 9.568v.67h2.05v-.67H.706zm2.733.335v1.34h2.05v-1.34h-2.05zm8.198 9.712v.67a948.391 948.391 0 002.04.004h.438l.146.001c.106.007.106.007.152-.047l.043-.628h-2.819zm5.38 0c-.03.368-.03.368.086.67.085.004.17.005.256.005h.53l.484-.002h.493l.97-.003v-.67h-2.818z"/></svg><svg viewBox="0 0 40 40" id="ic_share" xmlns="http://www.w3.org/2000/svg"><path fill-rule="evenodd" clip-rule="evenodd" d="M14.94 22.82c1.381 0 2.44-1.085 2.44-2.347 0-1.261-1.059-2.346-2.44-2.346-1.382 0-2.44 1.085-2.44 2.346 0 1.262 1.058 2.346 2.44 2.346zm0 1.5c2.175 0 3.94-1.723 3.94-3.847 0-2.124-1.765-3.846-3.94-3.846-2.176 0-3.94 1.722-3.94 3.846s1.764 3.846 3.94 3.846zm10.545-8.632c1.239 0 2.181-.972 2.181-2.094 0-1.123-.942-2.094-2.181-2.094-1.24 0-2.182.971-2.182 2.094 0 1.123.942 2.094 2.182 2.094zm0 1.5c2.033 0 3.681-1.61 3.681-3.594 0-1.985-1.648-3.594-3.681-3.594-2.034 0-3.682 1.61-3.682 3.594 0 1.985 1.648 3.594 3.682 3.594zm.082 12.262c1.24 0 2.182-.972 2.182-2.094 0-1.123-.943-2.094-2.182-2.094-1.24 0-2.181.971-2.181 2.094 0 1.122.942 2.094 2.181 2.094zm0 1.5c2.033 0 3.682-1.61 3.682-3.594 0-1.985-1.649-3.594-3.682-3.594s-3.681 1.609-3.681 3.594c0 1.985 1.648 3.594 3.681 3.594z"/><path fill-rule="evenodd" clip-rule="evenodd" d="M23.386 15.61l-5.318 3.457-.845-1.24 5.318-3.457.845 1.24zm-.558 10.705l-5.462-3.247.794-1.272 5.462 3.246-.794 1.273z"/></svg><svg viewBox="0 0 11 9" id="ic_sort" xmlns="http://www.w3.org/2000/svg"><path fill-rule="evenodd" clip-rule="evenodd" d="M11 1H0V0h11v1zm0 3.958H3.817v-1H11v1zM11 9H6.756V8H11v1z"/></svg><svg viewBox="0 0 16 14" id="ic_tg" xmlns="http://www.w3.org/2000/svg"><path d="M6.279 9.096l-.265 3.723c.379 0 .543-.163.74-.358l1.775-1.697 3.679 2.695c.674.376 1.15.178 1.332-.621l2.415-11.316c.214-.997-.36-1.388-1.018-1.143L.743 5.813c-.969.376-.954.916-.165 1.161l3.629 1.129 8.43-5.274c.396-.263.757-.118.46.145L6.279 9.096z"/></svg><svg fill="none" viewBox="0 0 30 29" id="ic_tg-dark" xmlns="http://www.w3.org/2000/svg"><path d="M15.118.293c7.841 0 14.197 6.356 14.197 14.198 0 7.841-6.356 14.198-14.197 14.198C7.276 28.689.92 22.332.92 14.49.92 6.649 7.276.293 15.118.293zm4.897 19.985c.261-.801 1.485-8.787 1.636-10.36.046-.477-.105-.793-.4-.935-.357-.171-.885-.086-1.498.135-.84.304-11.59 4.867-12.21 5.131-.589.25-1.146.523-1.146.918 0 .278.165.434.62.597.472.168 1.663.53 2.366.723.677.187 1.448.025 1.88-.244.458-.284 5.744-3.821 6.124-4.131.379-.31.681.087.372.397-.31.31-3.939 3.832-4.417 4.32-.581.591-.169 1.205.22 1.45.446.28 3.647 2.428 4.129 2.772.482.345.97.501 1.418.501.448 0 .683-.59.906-1.274z" fill="#000" fill-opacity=".8"/></svg><svg viewBox="0 0 40 40" id="ic_to-cart" xmlns="http://www.w3.org/2000/svg"><path fill-rule="evenodd" clip-rule="evenodd" d="M7.25 13a.75.75 0 01.75-.75h4.355a.75.75 0 01.714.52l3.3 10.265 7.27.978a4.16 4.16 0 014.765-3.577l1.583-5.492H17.92a.75.75 0 010-1.5h13.065a.75.75 0 01.72.958l-1.881 6.53a4.16 4.16 0 11-6.099 4.606l-4.319-.581a.754.754 0 01-.093.136c-.386.45-.85.998-1.32 1.552-.41.485-.825.973-1.192 1.403-.264.309-.595.552-.989.632a1.303 1.303 0 01-1.1-.277c-.548-.452-.7-1.24-.562-1.937a250.18 250.18 0 01.527-2.573l.062-.3a.749.749 0 01.138-.302L11.81 13.75H8a.75.75 0 01-.75-.75zm8.83 11.51a507.756 507.756 0 00-.459 2.247.893.893 0 00-.004.363l.042-.046 1.182-1.39c.278-.33.556-.658.816-.962l-1.578-.213zm5.95-8.15a.75.75 0 01.75.75v1.37h1.487a.75.75 0 010 1.5h-1.488v1.271a.75.75 0 01-1.5 0v-1.27h-1.676a.75.75 0 010-1.5h1.676V17.11a.75.75 0 01.75-.75zm5.735 5.527a2.66 2.66 0 100 5.319 2.66 2.66 0 000-5.319z"/></svg><svg fill="none" viewBox="0 0 33 33" id="ic_to-cart-check" xmlns="http://www.w3.org/2000/svg"><path d="M4.484 11.004H8.84l1.06 3.3 2.384 8.554h8.467m4.683-3.603l2.034-7.057H14.403m-2.152 10.701s-.069.634-.142 1.692c-.073 1.058-.209 1.995.47.95.931-1.438.725-1.365 1.128-2.157l-1.457-.485zm15.403-.349a3.41 3.41 0 11-6.818 0 3.41 3.41 0 016.818 0z" stroke="#fff" stroke-width="1.5" stroke-linecap="round" stroke-linejoin="round"/><path fill-rule="evenodd" clip-rule="evenodd" d="M10 14.5h16.71l-1.342 4.37h-1.825l-2.16 1.296-.673 2.497h-8.307L10 14.5zm7.244 6.434l3.817-3.755a.671.671 0 10-.95-.95l-2.67 2.609s-.643.7-1.343 0l-.95-.95a.671.671 0 10-.95.95l2.097 2.096a.671.671 0 00.95 0z" fill="#fff"/></svg><svg viewBox="0 0 33 34" id="ic_to-cart-plus" xmlns="http://www.w3.org/2000/svg"><path d="M1.734 11.455a.75.75 0 01.75-.75H6.84a.75.75 0 01.714.52l1.06 3.3a.75.75 0 01.009.028l2.231 8.006h7.897a.75.75 0 010 1.5h-8.467a.75.75 0 01-.722-.549l-2.38-8.54-.889-2.765H2.484a.75.75 0 01-.75-.75zm9.92 1.194a.75.75 0 01.75-.75h13.064a.75.75 0 01.72.958l-2.033 7.057a.75.75 0 11-1.441-.415l1.758-6.1H12.403a.75.75 0 01-.75-.75z"/><path d="M9.845 22.72a.75.75 0 01.642-.081l1.457.484a.75.75 0 01.431 1.052 5.52 5.52 0 00-.213.48c-.14.348-.293.724-.954 1.745a3.804 3.804 0 01-.274.378c-.076.09-.203.228-.377.32a.855.855 0 01-.437.099.813.813 0 01-.521-.221.961.961 0 01-.275-.54 3.233 3.233 0 01-.016-.694c.008-.14.02-.302.032-.464l.021-.287a60.85 60.85 0 01.131-1.599l.01-.09.002-.023v-.008a.752.752 0 01.341-.551zm12.4-2.378a2.66 2.66 0 100 5.319 2.66 2.66 0 000-5.319zm-4.16 2.66a4.16 4.16 0 118.32 0 4.16 4.16 0 01-8.32 0z"/><path d="M30.921 11.925a5.457 5.457 0 11-10.913 0 5.457 5.457 0 0110.913 0z" fill="#0090C3"/><path d="M25.559 9.104a.75.75 0 01.75.75v1.372h1.488a.75.75 0 110 1.5h-1.488v1.27a.75.75 0 01-1.5 0v-1.27h-1.676a.75.75 0 010-1.5h1.676V9.854a.75.75 0 01.75-.75z" fill="#fff"/></svg><svg viewBox="0 0 18 18" id="ic_tooltip" xmlns="http://www.w3.org/2000/svg"><path d="M8.204 13.084v-6.36h1.152v6.36H8.204zM8.78 5.5a.789.789 0 01-.564-.216A.718.718 0 018 4.756c0-.216.072-.396.216-.54A.789.789 0 018.78 4c.224 0 .408.072.552.216a.662.662 0 01.228.516c0 .216-.072.4-.216.552a.763.763 0 01-.564.216z"/><path fill-rule="evenodd" clip-rule="evenodd" d="M9 17A8 8 0 109 1a8 8 0 000 16zm0 1A9 9 0 109 0a9 9 0 000 18z"/></svg><svg viewBox="0 0 40 40" id="ic_trash" xmlns="http://www.w3.org/2000/svg"><path d="M26.76 14.818h-2.474c-.186-.795-.676-1.51-1.388-2.023A4.336 4.336 0 0020.375 12H18.78c-.919.001-1.81.282-2.522.795-.712.513-1.202 1.228-1.388 2.023h-2.473a.855.855 0 00-.565.206.665.665 0 00-.233.498c0 .187.084.366.233.498.15.132.353.207.565.207h.798v9.157c0 .934.422 1.83 1.17 2.49.748.66 1.762 1.031 2.82 1.032h4.787c1.058 0 2.072-.372 2.82-1.033.748-.66 1.17-1.555 1.17-2.489v-9.157h.798a.855.855 0 00.565-.207.665.665 0 00.233-.498.665.665 0 00-.233-.498.855.855 0 00-.565-.206zm-7.98-1.41h1.595c.495.001.978.137 1.382.39.404.252.71.608.876 1.02h-6.111c.166-.412.472-.768.876-1.02a2.623 2.623 0 011.381-.39zm5.585 11.976c0 .56-.252 1.098-.7 1.494a2.564 2.564 0 01-1.694.62h-4.788a2.564 2.564 0 01-1.692-.62c-.45-.396-.701-.933-.701-1.494v-9.157h9.575v9.157z"/><path d="M19.575 24.68a.855.855 0 00.565-.207.665.665 0 00.233-.498v-4.227a.665.665 0 00-.233-.498.855.855 0 00-.565-.206.855.855 0 00-.564.206.665.665 0 00-.234.498v4.227c0 .187.084.366.234.498.15.132.353.206.564.206z"/></svg><svg viewBox="0 0 19 16" id="ic_trash-24" xmlns="http://www.w3.org/2000/svg"><path d="M16.172 3.059h-2.325c-.174-.706-.635-1.34-1.304-1.795-.67-.455-1.507-.704-2.371-.705h-1.5c-.864 0-1.702.25-2.371.705-.67.455-1.13 1.09-1.304 1.795H2.672a.832.832 0 00-.53.183.577.577 0 00-.22.442c0 .165.079.324.22.442.14.117.331.183.53.183h.75v8.125c.001.828.397 1.622 1.1 2.208.703.586 1.656.916 2.65.917h4.5c.994-.001 1.947-.331 2.65-.917.703-.586 1.099-1.38 1.1-2.208V4.309h.75c.199 0 .39-.066.53-.183a.577.577 0 00.22-.442.577.577 0 00-.22-.442.832.832 0 00-.53-.183zm-7.5-1.25h1.5c.465 0 .919.12 1.299.344.38.224.667.54.823.906H6.55c.156-.366.443-.682.823-.906.38-.224.834-.344 1.299-.344zm5.25 10.625c0 .497-.237.974-.66 1.325-.421.352-.993.55-1.59.55h-4.5c-.597 0-1.17-.198-1.591-.55-.422-.351-.66-.828-.66-1.325V4.309h9v8.125z"/><path d="M7.922 11.808c.199 0 .39-.066.53-.183a.577.577 0 00.22-.442v-3.75a.577.577 0 00-.22-.442.832.832 0 00-.53-.183.832.832 0 00-.53.183.577.577 0 00-.22.442v3.75c0 .166.079.325.22.442.14.117.331.183.53.183zM10.922 11.808c.199 0 .39-.066.53-.183a.577.577 0 00.22-.442v-3.75a.577.577 0 00-.22-.442.832.832 0 00-.53-.183.833.833 0 00-.53.183.578.578 0 00-.22.442v3.75c0 .166.079.325.22.442.14.117.331.183.53.183z"/></svg><svg viewBox="0 0 16 13" id="ic_tw" xmlns="http://www.w3.org/2000/svg"><path d="M16 1.543a6.872 6.872 0 01-1.645 1.696 9.368 9.368 0 01-.376 3.066 9.453 9.453 0 01-1.177 2.517 9.91 9.91 0 01-1.868 2.143c-.724.615-1.597 1.11-2.62 1.482a9.666 9.666 0 01-3.278.548A9.106 9.106 0 010 11.523c.237.027.5.04.792.04a6.42 6.42 0 004.07-1.4 3.214 3.214 0 01-1.908-.65 3.235 3.235 0 01-1.157-1.625c.223.034.43.051.62.051.29 0 .578-.037.862-.112a3.259 3.259 0 01-1.888-1.126A3.201 3.201 0 01.65 4.609v-.04c.46.257.954.395 1.482.416a3.275 3.275 0 01-1.066-1.168A3.195 3.195 0 01.67 2.254c0-.596.149-1.147.447-1.655a9.373 9.373 0 002.985 2.426A9.22 9.22 0 007.878 4.03a3.643 3.643 0 01-.081-.75c0-.908.318-1.68.954-2.316A3.169 3.169 0 0111.076 0c.948 0 1.746.345 2.396 1.036a6.43 6.43 0 002.081-.792 3.184 3.184 0 01-1.441 1.807A6.534 6.534 0 0016 1.543z"/></svg><svg viewBox="0 0 13 15" id="ic_upload-24" xmlns="http://www.w3.org/2000/svg"><path fill-rule="evenodd" clip-rule="evenodd" d="M.46 7.326v3.7a3 3 0 003 3h5.892a3 3 0 003-3v-3.7h-1.5v3.7a1.5 1.5 0 01-1.5 1.5H3.46a1.5 1.5 0 01-1.5-1.5v-3.7H.46z"/><path fill-rule="evenodd" clip-rule="evenodd" d="M2.892 4.111L6.058.946a.75.75 0 011.06 0l3.165 3.165a.75.75 0 11-1.06 1.06L7.338 3.288v6.994h-1.5V3.287L3.952 5.172a.75.75 0 01-1.06-1.06z"/></svg><svg viewBox="0 0 40 40" id="ic_user" xmlns="http://www.w3.org/2000/svg"><path fill-rule="evenodd" clip-rule="evenodd" d="M20.126 9.163h.009c1.73 0 3.39.692 4.612 1.922a6.568 6.568 0 011.865 3.883h.909a.75.75 0 110 1.5h-.909a6.568 6.568 0 01-1.866 3.883 6.503 6.503 0 01-4.612 1.921m4.965-5.804a5.067 5.067 0 01-1.416 2.826 5.003 5.003 0 01-3.549 1.478 5.002 5.002 0 01-3.548-1.478 5.067 5.067 0 01-1.416-2.826h9.93zm0-1.5h-9.93a5.068 5.068 0 011.37-2.778v.887a.75.75 0 101.5 0v-1.953a4.997 4.997 0 011.334-.402v2.354a.75.75 0 101.5 0v-2.358c.463.07.912.203 1.335.396v1.963a.75.75 0 101.5 0v-.91a5.068 5.068 0 011.392 2.8zm-4.981-5.805a6.504 6.504 0 00-4.596 1.921 6.568 6.568 0 00-1.865 3.884h-.909a.75.75 0 100 1.5h.909a6.568 6.568 0 001.865 3.883 6.502 6.502 0 004.612 1.921m-.008-13.109h-.008m.084 16.69c-3.808 0-6.798 1.664-7.726 3.666a.75.75 0 11-1.36-.631c1.271-2.744 4.971-4.535 9.086-4.535 4.117 0 7.785 1.775 9.069 4.496a.75.75 0 11-1.357.64c-.937-1.988-3.903-3.636-7.712-3.636z"/></svg><svg viewBox="0 0 20 20" id="ic_vb" xmlns="http://www.w3.org/2000/svg"><path d="M17.745 1.948c-.524-.457-2.64-1.914-7.36-1.934 0 0-5.565-.316-8.276 2.043C.602 3.487.07 5.584.013 8.18c-.058 2.597-.128 7.464 4.819 8.784h.004l-.004 2.015s-.033.817.535.98c.684.204 1.088-.417 1.743-1.085.358-.367.852-.906 1.227-1.316 3.386.27 5.985-.348 6.281-.438.684-.21 4.552-.68 5.178-5.546.65-5.023-.313-8.194-2.051-9.627zm.572 9.26c-.531 4.062-3.666 4.32-4.242 4.496-.247.074-2.534.613-5.404.437 0 0-2.142 2.449-2.81 3.086-.218.207-.457.187-.452-.223 0-.27.016-3.347.016-3.347-.004 0-.004 0 0 0-4.193-1.102-3.946-5.246-3.9-7.413.045-2.168.477-3.945 1.754-5.14 2.294-1.973 7.019-1.68 7.019-1.68 3.99.016 5.902 1.156 6.347 1.539 1.47 1.195 2.22 4.054 1.672 8.245zm-5.725-3.156c.016.336-.515.36-.532.024-.045-.86-.469-1.278-1.342-1.324-.354-.02-.322-.524.029-.504 1.149.058 1.787.683 1.845 1.804zm.836.442c.041-1.656-1.05-2.953-3.122-3.098-.35-.023-.313-.527.037-.504 2.389.164 3.662 1.723 3.616 3.613-.004.336-.54.32-.531-.011zm1.936.523c.004.336-.532.34-.532.004-.024-3.183-2.26-4.918-4.975-4.937-.35-.004-.35-.504 0-.504 3.036.02 5.478 2.008 5.507 5.437zm-.466 3.832v.007c-.444.742-1.276 1.563-2.133 1.3l-.008-.01c-.87-.231-2.917-1.231-4.21-2.208-.667-.5-1.277-1.09-1.746-1.656a12.643 12.643 0 01-1.269-1.82c-.877-1.503-1.07-2.175-1.07-2.175-.277-.813.584-1.602 1.37-2.023h.009c.379-.188.741-.125.984.152 0 0 .511.578.73.863.205.266.481.691.626.93.25.425.094.859-.153 1.039l-.494.375c-.251.19-.218.546-.218.546s.733 2.629 3.472 3.293c0 0 .375.031.576-.207l.396-.469c.19-.234.646-.383 1.095-.144.606.324 1.376.828 1.887 1.285.288.222.354.562.156.921z"/></svg><svg viewBox="0 0 16 14" id="ic_view-grid" xmlns="http://www.w3.org/2000/svg"><path d="M.652 3.253a3.115 3.115 0 116.23 0 3.115 3.115 0 01-6.23 0zm8.211 0a3.115 3.115 0 116.23 0 3.115 3.115 0 01-6.23 0zM.652 10.746a3.115 3.115 0 116.23 0 3.115 3.115 0 01-6.23 0zm8.211 0a3.115 3.115 0 116.23 0 3.115 3.115 0 01-6.23 0z"/></svg><svg viewBox="0 0 16 14" id="ic_view-list" xmlns="http://www.w3.org/2000/svg"><path d="M.445 2.87A2.732 2.732 0 013.177.138h9.605a2.732 2.732 0 010 5.465H3.177A2.732 2.732 0 01.445 2.87zM.445 11.129a2.732 2.732 0 012.732-2.732h9.605a2.732 2.732 0 010 5.464H3.177A2.732 2.732 0 01.445 11.13z"/></svg><svg viewBox="0 0 17 16" id="ic_view-one" xmlns="http://www.w3.org/2000/svg"><path fill-rule="evenodd" clip-rule="evenodd" d="M5.193.863c-1.036.24-1.71.49-3.252 1.2C.62 2.67.224 2.88.169 3c-.063.138.01.32.626 1.555.384.77.743 1.45.798 1.513.143.16.357.141 1.17-.106l.719-.218v4.563c0 4.026.01 4.58.1 4.707l.1.143h9.415l.1-.143c.089-.127.1-.68.1-4.707V5.745l.72.22c.813.245 1.026.265 1.17.103.055-.062.414-.742.797-1.512.616-1.235.69-1.417.627-1.555-.056-.12-.451-.33-1.773-.94-1.8-.827-2.862-1.188-3.538-1.2-.39-.008-.356-.044-.66.671-.21.496-.738 1.038-1.236 1.268-.352.162-.475.185-1.014.185-.553 0-.655-.02-1.034-.2a2.485 2.485 0 01-1.19-1.209c-.34-.76-.308-.722-.588-.733a1.91 1.91 0 00-.385.02zm1.764.45c.589 1.145 2.277 1.145 2.865 0l.129-.25-.17.042c-.622.157-2.16.157-2.783 0l-.17-.042.129.25z"/></svg><svg viewBox="0 0 27 12" id="ic_view-two" xmlns="http://www.w3.org/2000/svg"><path fill-rule="evenodd" clip-rule="evenodd" d="M3.98.507c-.797.185-1.316.376-2.502.922-1.017.468-1.322.63-1.364.723-.049.106.008.247.482 1.197.295.593.571 1.116.614 1.164.11.124.274.11.9-.08l.553-.168v3.512c0 3.098.01 3.525.078 3.622l.077.11h7.246l.078-.11c.068-.097.077-.524.077-3.622V4.265l.553.167c.626.19.79.205.9.081.043-.048.32-.57.615-1.164.474-.95.53-1.09.482-1.197-.042-.093-.347-.255-1.364-.723C10.02.792 9.202.514 8.681.504c-.3-.005-.274-.032-.507.517-.162.382-.569.8-.952.976-.271.125-.366.143-.78.143-.426 0-.505-.016-.796-.155a1.912 1.912 0 01-.917-.93C4.469.47 4.492.5 4.277.492c-.099-.005-.2 0-.297.015zm1.359.346c.453.881 1.752.881 2.205 0L7.643.66l-.13.033c-.48.12-1.664.12-2.143 0L5.24.66l.099.193zM17.733.507c-.798.185-1.317.376-2.503.922-1.018.468-1.322.63-1.364.723-.049.106.008.247.482 1.197.295.593.571 1.116.614 1.164.11.124.274.11.9-.08l.553-.168v3.512c0 3.098.01 3.525.078 3.622l.077.11h7.246l.078-.11c.068-.097.077-.524.077-3.622V4.265l.553.167c.626.19.79.205.9.081.043-.048.32-.57.615-1.164.474-.95.53-1.09.482-1.197-.043-.093-.347-.255-1.364-.723-1.385-.637-2.203-.915-2.724-.925-.3-.005-.274-.032-.507.517-.162.382-.569.8-.952.976-.271.125-.366.143-.78.143-.427 0-.505-.016-.796-.155a1.912 1.912 0 01-.917-.93c-.26-.585-.237-.555-.452-.563-.099-.005-.198 0-.296.015zm1.358.346c.453.881 1.752.881 2.205 0l.099-.193-.13.033c-.48.12-1.664.12-2.143 0l-.13-.033.099.193z"/></svg><svg viewBox="0 0 19 11" id="ic_vk" xmlns="http://www.w3.org/2000/svg"><path d="M17.57 8.059c-.393-.414-.84-.785-1.27-1.143-.154-.128-.313-.26-.466-.39-.438-.377-.454-.519-.107-.947.24-.295.495-.59.742-.876.224-.26.455-.527.677-.796l.045-.055c.424-.515.862-1.047 1.095-1.689.06-.17.124-.418-.021-.627-.145-.208-.427-.272-.627-.301a1.946 1.946 0 00-.287-.017l-2.774-.002h-.023c-.42 0-.702.174-.864.53a13.74 13.74 0 01-.519 1.05c-.385.688-.875 1.48-1.584 2.141l-.03.028c-.084.08-.179.169-.248.169a.133.133 0 01-.035-.006c-.147-.05-.246-.362-.241-.507v-.006L11.03 1.8l-.003-.03c-.07-.457-.226-.742-.817-.843a.278.278 0 00-.048-.004H7.278c-.47 0-.729.168-.972.419-.066.067-.202.206-.135.376.07.172.292.208.365.22.361.06.564.254.622.593.1.588.113 1.216.039 1.975a1.49 1.49 0 01-.129.514c-.015.032-.07.138-.127.138-.018 0-.07-.006-.165-.063-.224-.135-.387-.327-.578-.564A12.863 12.863 0 014.53 1.817a.986.986 0 00-.92-.592c-.46-.006-.878-.01-1.276-.01-.435 0-.839.004-1.232.012-.337.005-.57.093-.693.263s-.115.394.024.664C1.544 4.32 2.55 5.896 3.697 7.261c.804.956 1.61 1.618 2.536 2.082.977.49 2.071.729 3.345.729.145 0 .294-.003.445-.01.74-.031 1.015-.266 1.05-.9.016-.323.057-.662.238-.951.114-.183.22-.183.256-.183.067 0 .151.028.241.079.161.092.3.216.413.324l.317.31c.228.224.464.456.71.675.538.481 1.132.693 1.813.647h2.56a.755.755 0 00.602-.34c.16-.248.157-.564-.008-.847a4.587 4.587 0 00-.645-.817z"/></svg><svg viewBox="0 0 16 17" id="ic_wa" xmlns="http://www.w3.org/2000/svg"><path d="M9.719 9.385c.27-.34.451-.51.541-.51.09 0 .428.153 1.01.458.591.306.904.49.938.552.014.035.021.087.021.157 0 .229-.059.493-.177.791-.111.271-.358.5-.74.688-.381.18-.736.27-1.062.27-.396 0-1.056-.215-1.98-.645a5.945 5.945 0 01-1.77-1.23C6 9.41 5.486 8.768 4.958 7.99c-.5-.743-.746-1.417-.74-2.021v-.084c.022-.632.279-1.18.772-1.645a.788.788 0 01.541-.23c.042 0 .104.007.188.021.083.007.15.01.198.01.132 0 .222.025.27.074.056.041.112.135.167.28.056.14.17.445.344.918.174.472.26.732.26.78 0 .147-.121.348-.364.605-.236.25-.354.41-.354.48 0 .048.017.1.052.155.236.507.59.983 1.062 1.427.39.368.913.72 1.573 1.053.083.048.16.072.23.072.103 0 .29-.166.562-.5zm-1.573 5.01a6.33 6.33 0 002.531-.52 6.581 6.581 0 002.094-1.396 6.613 6.613 0 001.396-2.083c.347-.813.52-1.66.52-2.542a6.33 6.33 0 00-.52-2.531 6.582 6.582 0 00-1.396-2.094 6.581 6.581 0 00-2.094-1.396 6.329 6.329 0 00-2.531-.52c-.882 0-1.73.173-2.542.52-.805.348-1.5.813-2.083 1.396a6.582 6.582 0 00-1.396 2.094 6.329 6.329 0 00-.52 2.531c0 1.41.416 2.688 1.25 3.833l-.824 2.428 2.521-.803a6.406 6.406 0 003.594 1.084zM5.094.626A7.669 7.669 0 018.146 0c1.062 0 2.076.208 3.041.625a7.918 7.918 0 012.51 1.677 7.918 7.918 0 011.678 2.51c.417.966.625 1.98.625 3.042 0 1.063-.208 2.08-.625 3.052a7.947 7.947 0 01-1.677 2.5 7.916 7.916 0 01-2.51 1.677 7.594 7.594 0 01-3.042.625 7.735 7.735 0 01-3.802-.979L0 16.125l1.417-4.219A7.666 7.666 0 01.292 7.854c0-1.062.208-2.076.625-3.042a7.917 7.917 0 011.677-2.51 7.948 7.948 0 012.5-1.677z"/></svg><svg fill="none" viewBox="0 0 30 30" id="ic_wa-dark" xmlns="http://www.w3.org/2000/svg"><path d="M15.118.688C7.289.688.92 7.058.92 14.886c0 2.445.632 4.848 1.829 6.97L.943 28.3a.617.617 0 00.742.766L8.411 27.4a14.207 14.207 0 006.707 1.684c7.828 0 14.197-6.37 14.197-14.198S22.947.688 15.119.688zm7.142 19.208c-.304.84-1.76 1.608-2.46 1.711-.63.092-1.424.132-2.297-.142a21.357 21.357 0 01-2.078-.759c-3.656-1.56-6.044-5.194-6.226-5.435-.183-.24-1.489-1.95-1.489-3.722 0-1.77.942-2.642 1.276-3.002.335-.36.73-.451.972-.451.244 0 .486.003.7.013.223.011.524-.085.82.618.303.72 1.032 2.492 1.122 2.673.092.18.152.39.031.63-.12.24-.181.39-.364.601-.183.21-.383.47-.547.631-.183.18-.372.374-.16.735.213.36.944 1.539 2.028 2.493 1.392 1.226 2.567 1.606 2.931 1.786.364.18.577.15.79-.09.212-.24.91-1.051 1.153-1.41.243-.36.486-.302.82-.181.335.12 2.127.99 2.491 1.17.365.18.608.27.7.42.09.15.09.871-.213 1.711z" fill="#000" fill-opacity=".8"/></svg><svg viewBox="0 0 38 38" id="ic_wa-solid" xmlns="http://www.w3.org/2000/svg"><path d="M18.768 0C8.42 0 0 8.42 0 18.768c0 3.231.835 6.409 2.418 9.213L.03 36.5a.815.815 0 00.982 1.013l8.891-2.203a18.78 18.78 0 008.865 2.226c10.349 0 18.768-8.42 18.768-18.768S29.116 0 18.768 0zm9.441 25.39c-.401 1.112-2.327 2.126-3.252 2.263-.83.121-1.882.174-3.036-.189a28.21 28.21 0 01-2.746-1.003c-4.834-2.06-7.99-6.866-8.232-7.184-.24-.317-1.967-2.58-1.967-4.92 0-2.341 1.245-3.493 1.687-3.97.442-.476.963-.595 1.285-.595.322 0 .642.004.924.017.296.015.693-.112 1.084.817.402.953 1.365 3.294 1.485 3.533.12.239.2.517.04.834-.16.318-.24.516-.481.794-.242.278-.506.62-.723.834-.242.238-.492.495-.211.971.28.477 1.247 2.035 2.68 3.296 1.84 1.62 3.393 2.123 3.875 2.362.481.238.763.198 1.043-.12.28-.318 1.205-1.39 1.525-1.865.321-.476.642-.397 1.085-.238.442.158 2.81 1.309 3.292 1.547.482.238.803.357.924.556.12.197.12 1.15-.28 2.26z"/></svg><svg viewBox="0 0 29 22" id="ic_yt" xmlns="http://www.w3.org/2000/svg"><path d="M27.277 4.052c-.259-1.443-1.492-2.494-2.923-2.823C22.212.771 18.248.442 13.96.442c-4.286 0-8.314.329-10.458.787C2.073 1.558.838 2.542.58 4.052c-.262 1.64-.52 3.937-.52 6.89 0 2.954.258 5.25.583 6.891.262 1.443 1.495 2.494 2.924 2.822 2.273.46 6.171.787 10.46.787 4.288 0 8.186-.328 10.46-.787 1.428-.328 2.662-1.312 2.923-2.822.259-1.64.584-4.004.65-6.89-.132-2.954-.457-5.25-.782-6.891zM10.453 15.536V6.35l7.925 4.593-7.925 4.594z"/></svg></svg>