<svg width="64" height="64" viewBox="0 0 64 64" fill="none" xmlns="http://www.w3.org/2000/svg">
<path d="M8.71118 42.0589C8.70713 41.827 8.62866 41.6027 8.48766 41.4201C8.34665 41.2374 8.1508 41.1064 7.92978 41.0468C7.70877 40.9872 7.47463 41.0024 7.26285 41.0899C7.05107 41.1774 6.87319 41.3326 6.75617 41.5319C4.67601 45.0812 4.08603 51.3733 6.97806 56.5291C9.6808 61.3469 14.7939 64 21.373 64C24.67 64 27.5462 63.4527 29.9703 62.4158C30.9336 62.9385 31.9074 63.441 32.8749 63.8997C32.8918 63.9072 32.9096 63.9051 32.9275 63.9115C33.0505 63.9655 33.1826 63.9952 33.3166 63.9989H33.3229C33.4594 63.9958 33.5938 63.9649 33.7183 63.9083C33.7341 63.9019 33.751 63.9051 33.7678 63.8976C58.7139 51.9685 59 34.0525 59 33.2962V10.0611C59 9.91768 58.9715 9.77575 58.9162 9.64378C58.8609 9.5118 58.78 9.39249 58.6782 9.29297C58.4731 9.09241 58.185 8.96866 57.9105 8.99533C42.5922 9.57034 34.179 0.430991 34.0959 0.338178C34.0833 0.32431 34.0654 0.318976 34.0528 0.306174C34.0423 0.295506 34.038 0.280571 34.0265 0.269903C33.9886 0.234698 33.9402 0.220829 33.8982 0.192025C33.8361 0.149353 33.7772 0.104547 33.7089 0.0768103C33.6468 0.0512069 33.5827 0.0426722 33.5175 0.0298705C33.4502 0.0170688 33.3871 0 33.3187 0C33.2514 0 33.1873 0.016002 33.12 0.0298705C33.0548 0.0426722 32.9906 0.0512069 32.9286 0.0768103C32.8613 0.104547 32.8024 0.148286 32.7414 0.190959C32.6993 0.219763 32.6499 0.233631 32.611 0.269903C32.5994 0.280571 32.5952 0.295506 32.5847 0.307241C32.5721 0.320043 32.5542 0.325377 32.5416 0.339245C32.4585 0.432057 23.999 9.55114 8.72696 8.9964C8.58561 8.98896 8.44429 9.0116 8.31208 9.06286C8.17986 9.11412 8.05968 9.19286 7.95925 9.29404C7.85748 9.39356 7.77652 9.51287 7.72123 9.64484C7.66594 9.77682 7.63744 9.91874 7.63745 10.0621V33.2962C7.63745 33.453 7.66795 37.1314 9.91848 42.2648C9.93741 43.6645 10.1761 44.9468 10.458 45.9635C8.79426 44.6438 8.71434 42.1891 8.71118 42.0589ZM8.80583 55.473C6.97806 52.2139 6.7488 48.4523 7.45341 45.4866C8.24635 47.0825 9.68501 48.5526 12.1238 48.8641C12.3132 48.8875 12.5054 48.8582 12.6797 48.7794C12.854 48.7007 13.004 48.5753 13.1136 48.4168C13.2232 48.2583 13.2883 48.0726 13.302 47.8795C13.3156 47.6864 13.2774 47.4932 13.1912 47.3204C13.1786 47.297 11.9934 44.9009 12.0134 42.028C12.0249 39.202 13.1881 36.8924 15.4712 35.1652C19.1993 32.3414 19.6105 28.2 19.1246 25.3015C22.0945 26.6777 27.664 30.5555 27.4305 40.2262V40.2294C27.4232 40.3083 27.4211 40.3745 27.4179 40.4417C27.4169 40.4726 27.4127 40.5089 27.4127 40.5377C27.4095 40.6326 27.4095 40.7126 27.4095 40.7756C27.4095 41.3516 27.8628 41.7912 28.4307 41.8093H28.4612C28.5882 41.8078 28.7139 41.7818 28.8313 41.7325H28.8366C29.069 41.6376 29.2573 41.4551 29.3782 41.229C29.3877 41.2108 29.4034 41.198 29.4129 41.1799C29.4707 41.0551 29.5075 40.9196 29.517 40.7766C29.5275 40.6124 29.5359 40.4545 29.537 40.2976C29.6527 38.9407 30.2069 36.8124 32.408 35.6709C31.8012 37.9475 31.5309 41.7101 34.2841 45.7938V45.796C35.7659 47.9819 36.2087 50.9113 35.4693 53.6317C34.913 55.6778 33.4418 58.4921 29.598 60.279C29.2688 60.4337 28.906 60.5531 28.5548 60.6844C28.8871 60.1766 29.17 59.6282 29.3656 59.018C30.3236 56.0416 29.3498 52.5798 26.9973 50.5987C23.4942 47.6522 25.6575 44.2608 25.9193 43.8789C26.0461 43.6963 26.1132 43.478 26.1111 43.2547C26.1091 43.0314 26.038 42.8144 25.9079 42.6342C25.7778 42.4541 25.5953 42.3199 25.386 42.2505C25.1767 42.1812 24.9513 42.1802 24.7415 42.2478C19.8881 43.8106 17.952 47.6757 17.1822 50.3971C17.0761 50.0318 16.9939 49.6597 16.9361 49.2834C16.9036 49.067 16.8063 48.866 16.6574 48.7076C16.5085 48.5492 16.3153 48.4411 16.1038 48.3978C15.8923 48.3545 15.6728 48.3781 15.475 48.4655C15.2772 48.553 15.1107 48.6999 14.9979 48.8865C12.6012 52.8689 12.2216 57.213 14.0083 60.2224C14.0473 60.2886 14.0967 60.3451 14.1377 60.4091C11.4192 59.1279 9.77861 57.2044 8.80688 55.473H8.80583ZM25.6543 52.2416C27.3327 53.6541 28.0521 56.2251 27.3664 58.3555C26.7017 60.4209 24.8803 61.6488 22.2385 61.812C19.2266 62.004 16.9509 61.0428 15.8088 59.1215C14.7561 57.3474 14.7256 54.8927 15.6531 52.3611C16.0117 53.1378 16.5144 53.8717 17.2117 54.2696C17.3702 54.359 17.5487 54.4054 17.73 54.4044C17.9113 54.4034 18.0893 54.355 18.2469 54.2638C18.4044 54.1727 18.536 54.0419 18.6292 53.8841C18.7223 53.7262 18.7738 53.5467 18.7786 53.3629C18.7849 53.1164 18.9627 48.0789 23.0662 45.3778C22.655 47.4325 23.0262 50.0301 25.6543 52.2416ZM9.74285 11.1524C9.86905 11.1546 9.99419 11.1546 10.1183 11.1546C23.0788 11.1546 30.9399 4.80277 33.3198 2.55394C35.6997 4.80277 43.5597 11.1546 56.5213 11.1546C56.6454 11.1546 56.7705 11.1546 56.8967 11.1524V33.293C56.8967 33.4647 56.5318 50.4249 33.3166 61.7437C32.9612 61.5709 32.6057 61.3991 32.2502 61.2167C34.8657 59.5173 36.7092 57.0892 37.4959 54.1982C38.3982 50.8793 37.8461 47.2863 36.0183 44.5883C32.4416 39.2799 34.9803 34.7108 35.0876 34.5219C35.1901 34.3465 35.2409 34.1449 35.2339 33.9411C35.227 33.7373 35.1626 33.5398 35.0484 33.372C34.9342 33.2041 34.7749 33.073 34.5895 32.9942C34.4041 32.9153 34.2003 32.892 34.0023 32.9271C31.6729 33.3388 30.1669 34.3993 29.1931 35.6047C27.257 24.9591 17.9268 22.5854 17.8206 22.5598C17.6333 22.5138 17.4371 22.5215 17.2538 22.582C17.0705 22.6424 16.9074 22.7533 16.7826 22.9023C16.6567 23.0505 16.5734 23.231 16.5419 23.4241C16.5104 23.6171 16.5318 23.8153 16.6038 23.9968C16.6985 24.2368 18.8764 29.9229 14.2155 33.4519C12.5339 34.7246 11.3361 36.3056 10.6357 38.115C9.77019 35.209 9.7439 33.3164 9.7439 33.293V11.1524H9.74285Z" fill="#00943C"/>
<path d="M53.9468 17.3687C54.2257 17.3687 54.4932 17.2563 54.6905 17.0563C54.8877 16.8562 54.9985 16.5848 54.9985 16.3019V14.7881C54.9985 14.5052 54.8877 14.2338 54.6905 14.0338C54.4932 13.8337 54.2257 13.7213 53.9468 13.7213C53.6679 13.7213 53.4004 13.8337 53.2032 14.0338C53.006 14.2338 52.8952 14.5052 52.8952 14.7881V16.3019C52.8952 16.5848 53.006 16.8562 53.2032 17.0563C53.4004 17.2563 53.6679 17.3687 53.9468 17.3687ZM53.9468 34.714C54.2257 34.714 54.4932 34.6016 54.6905 34.4015C54.8877 34.2014 54.9985 33.9301 54.9985 33.6472V21.5399C54.9985 21.257 54.8877 20.9857 54.6905 20.7856C54.4932 20.5855 54.2257 20.4731 53.9468 20.4731C53.6679 20.4731 53.4004 20.5855 53.2032 20.7856C53.006 20.9857 52.8952 21.257 52.8952 21.5399V33.6472C52.8952 33.9301 53.006 34.2014 53.2032 34.4015C53.4004 34.6016 53.6679 34.714 53.9468 34.714Z" fill="#00943C"/>
</svg>
