<svg width="64" height="64" viewBox="0 0 64 64" fill="none" xmlns="http://www.w3.org/2000/svg">
<path d="M47.3472 26.1705C47.2116 25.8899 47.1536 25.5781 47.1792 25.2675L48.0805 14.3743C48.1819 13.1483 47.7279 11.9599 46.8349 11.1138C45.9422 10.2676 44.7301 9.87828 43.5123 10.045C42.5752 10.1741 41.6706 10.4779 40.8455 10.9406C40.7808 10.851 40.713 10.7636 40.6423 10.6785C38.9459 8.65454 35.9195 8.3878 33.8958 10.0835L26.565 16.2188V14.8463C26.565 14.7439 26.5954 14.6453 26.6532 14.5608L28.1737 12.3359C28.243 12.2344 28.2917 12.1202 28.317 11.9999C28.3422 11.8795 28.3435 11.7554 28.3208 11.6346C28.298 11.5138 28.2517 11.3986 28.1845 11.2957C28.1173 11.1928 28.0304 11.1041 27.9289 11.0347C27.8274 10.9653 27.7132 10.9166 27.5929 10.8914C27.4726 10.8661 27.3484 10.8648 27.2276 10.8875C27.1068 10.9103 26.9916 10.9566 26.8887 11.0238C26.7858 11.0911 26.6971 11.178 26.6278 11.2795L25.1073 13.5044C24.8366 13.8995 24.6921 14.3673 24.6927 14.8463V17.7858L18.8586 22.6685V13.8511C18.8573 12.8459 19.1608 11.864 19.7289 11.0349L25.0835 3.19865C25.5231 2.55532 26.1869 2.1217 26.9527 1.97765C27.7184 1.83361 28.4943 1.99625 29.1378 2.43599C29.4548 2.65133 29.7259 2.92742 29.9355 3.24827C30.1451 3.56911 30.289 3.92835 30.3588 4.30518C30.4307 4.68158 30.4272 5.06852 30.3485 5.44357C30.2699 5.81862 30.1176 6.17435 29.9006 6.49016L28.9181 7.92809C28.7804 8.13311 28.7292 8.38427 28.7758 8.62682C28.8225 8.86938 28.9631 9.08368 29.167 9.22304C29.3709 9.3624 29.6216 9.41552 29.8646 9.37083C30.1075 9.32614 30.3229 9.18726 30.4639 8.98444L31.4463 7.54651C32.168 6.49028 32.4353 5.21624 32.1987 3.95905C31.9622 2.70186 31.2502 1.6118 30.194 0.890094C29.1379 0.168383 27.8639 -0.0988577 26.6064 0.137677C25.3492 0.374211 24.2593 1.08619 23.5376 2.14242L18.183 9.97864C17.4019 11.1189 16.9846 12.469 16.9863 13.8512V24.2356L14.1786 26.5854C12.1606 28.2743 11.079 30.8488 11.2854 33.4722L11.8814 41.0495C11.891 41.1721 11.9247 41.2916 11.9805 41.4011C12.0363 41.5107 12.1131 41.6082 12.2066 41.688C12.3001 41.7679 12.4084 41.8285 12.5253 41.8665C12.6422 41.9045 12.7655 41.9191 12.888 41.9094C13.1355 41.89 13.3652 41.773 13.5264 41.5842C13.6877 41.3955 13.7674 41.1504 13.7479 40.9029L13.1519 33.3255C12.993 31.3049 13.8261 29.322 15.3803 28.0213L35.0979 11.519C36.3307 10.4859 38.1743 10.6484 39.2074 11.8811C40.2404 13.114 40.078 14.9575 38.8452 15.9906L28.5813 24.5921C27.9437 24.7463 27.3334 25.0529 26.8044 25.5132L21.7876 29.8799C21.6003 30.0429 21.4855 30.2736 21.4683 30.5213C21.4512 30.769 21.5332 31.0134 21.6962 31.2007C21.8592 31.3879 22.0899 31.5028 22.3376 31.5199C22.5853 31.5371 22.8297 31.4551 23.017 31.2921L28.0337 26.9254C28.9062 26.1656 30.1793 26.1583 31.0606 26.908L38.6482 33.3619C38.9408 33.6094 39.1814 33.9124 39.356 34.2536C39.5307 34.5947 39.636 34.967 39.6657 35.3491C39.6977 35.731 39.6535 36.1155 39.5358 36.4802C39.4181 36.8449 39.2292 37.1826 38.9801 37.4738C38.6121 37.905 38.1264 38.2197 37.5824 38.3793L32.2738 33.8639C30.6816 32.5095 28.3814 32.5227 26.8045 33.8951L21.7877 38.2618C21.6005 38.4248 21.4856 38.6556 21.4685 38.9033C21.4513 39.151 21.5333 39.3953 21.6963 39.5826C21.8593 39.7699 22.0901 39.8847 22.3378 39.9018C22.5855 39.919 22.8298 39.837 23.0171 39.674L28.0339 35.3073C28.9064 34.5476 30.1794 34.5402 31.0608 35.29L38.6483 41.7438C38.9409 41.9913 39.1815 42.2944 39.3562 42.6355C39.5308 42.9766 39.6361 43.349 39.6659 43.7311C39.6978 44.1129 39.6536 44.4974 39.5359 44.8621C39.4183 45.2268 39.2294 45.5645 38.9802 45.8557C38.7328 46.1483 38.4297 46.3889 38.0886 46.5636C37.7475 46.7383 37.3752 46.8435 36.9931 46.8733C36.2153 46.9358 35.4617 46.6924 34.8684 46.1876L30.1717 42.1926C29.9925 42.0402 29.7625 41.9608 29.5274 41.9703C29.2924 41.9797 29.0695 42.0774 28.9031 42.2437L27.5092 43.6376C27.3349 43.8134 27.2374 44.0511 27.2379 44.2987C27.2384 44.5462 27.337 44.7835 27.5121 44.9586C27.6871 45.1336 27.9244 45.2322 28.172 45.2328C28.4195 45.2334 28.6573 45.1358 28.8331 44.9615L29.6163 44.1783L33.6551 47.6137C34.529 48.3571 35.6156 48.7553 36.7504 48.7553C36.8809 48.7553 37.0122 48.75 37.1436 48.7393C38.4187 48.6365 39.5774 48.0431 40.4063 47.0686C41.2352 46.0942 41.635 44.8553 41.5321 43.5801C41.4292 42.305 40.8358 41.1463 39.8613 40.3173L39.1635 39.7238C39.6336 39.4511 40.0539 39.1003 40.4063 38.6866C42.1173 36.6751 41.8729 33.6464 39.8613 31.9353L36.4973 29.0739L38.5305 18.6967L40.0479 17.425C41.0284 16.6035 41.6303 15.4491 41.7426 14.1747C41.7878 13.6641 41.7508 13.1495 41.6332 12.6505C42.285 12.2617 43.0121 12.003 43.7668 11.8996C44.0876 11.8548 44.4143 11.8831 44.7226 11.9823C45.031 12.0814 45.3129 12.2489 45.5474 12.4723C45.783 12.6945 45.9653 12.9671 46.0809 13.2696C46.1965 13.5721 46.2422 13.8968 46.2148 14.2195L45.3135 25.1127C45.2604 25.7567 45.3807 26.4032 45.6619 26.985L47.3288 30.4327C49.4292 34.7768 49.5002 39.7928 47.5237 44.1948L46.4519 46.5818C46.3878 46.7244 46.3605 46.8807 46.3723 47.0365C46.3841 47.1923 46.4348 47.3427 46.5197 47.4739C46.6045 47.6051 46.7209 47.713 46.8581 47.7877C46.9953 47.8624 47.1491 47.9016 47.3054 47.9017C47.486 47.9017 47.6627 47.8495 47.8143 47.7514C47.9659 47.6533 48.0859 47.5135 48.1599 47.3487L49.2317 44.9617C51.4356 40.0538 51.3563 34.4611 49.0145 29.6176L47.3472 26.1705ZM34.8617 27.6834L32.2735 25.4819C31.9565 25.212 31.6014 24.9901 31.2198 24.8235L36.2474 20.6103L34.8617 27.6834ZM46.0463 49.7701C45.9342 49.7197 45.8132 49.6919 45.6903 49.6883C45.5674 49.6847 45.445 49.7054 45.3301 49.7491C45.2152 49.7928 45.11 49.8587 45.0206 49.943C44.9311 50.0274 44.8592 50.1285 44.8088 50.2407L42.4113 55.5799C42.3571 55.7005 42.3291 55.8311 42.3292 55.9633V63.0639C42.3292 63.581 42.7482 64 43.2653 64C43.7824 64 44.2015 63.581 44.2015 63.0639V56.1639L46.5169 51.0076C46.5672 50.8954 46.595 50.7745 46.5986 50.6516C46.6022 50.5287 46.5816 50.4063 46.5379 50.2914C46.4942 50.1765 46.4283 50.0713 46.3439 49.9819C46.2596 49.8924 46.1585 49.8205 46.0463 49.7701ZM40.6113 5.82586C41.1284 5.82586 41.5474 5.40684 41.5474 4.88971V0.936152C41.5474 0.419022 41.1284 0 40.6113 0C40.0941 0 39.6751 0.419022 39.6751 0.936152V4.88971C39.6751 5.13799 39.7737 5.37611 39.9493 5.55167C40.1249 5.72723 40.363 5.82586 40.6113 5.82586ZM44.6078 6.75702C44.7152 6.81686 44.8333 6.85496 44.9555 6.86913C45.0776 6.88329 45.2014 6.87326 45.3196 6.8396C45.4379 6.80594 45.5484 6.74931 45.6447 6.67295C45.7411 6.59658 45.8215 6.50198 45.8813 6.39455L47.8049 2.94052C47.9216 2.72391 47.9484 2.47005 47.8794 2.23386C47.8104 1.99767 47.6512 1.79813 47.4363 1.6784C47.2213 1.55867 46.9678 1.52838 46.7307 1.59408C46.4936 1.65977 46.2918 1.81617 46.1691 2.02945L44.2455 5.48348C44.1247 5.7004 44.095 5.95644 44.1629 6.19527C44.2308 6.4341 44.3908 6.63617 44.6078 6.75702ZM52.599 6.44747C52.4683 6.2364 52.259 6.08591 52.0174 6.02909C51.7757 5.97228 51.5213 6.01381 51.3102 6.14453L47.9491 8.22616C47.7396 8.35764 47.5907 8.56666 47.5348 8.80758C47.4789 9.04849 47.5207 9.30173 47.6509 9.51198C47.7811 9.72223 47.9892 9.87241 48.2298 9.92972C48.4704 9.98704 48.7239 9.94682 48.9349 9.81787L52.2961 7.73624C52.4006 7.67153 52.4914 7.58686 52.5632 7.48706C52.635 7.38727 52.6864 7.2743 52.7145 7.15462C52.7427 7.03493 52.7469 6.91088 52.7271 6.78955C52.7073 6.66821 52.6638 6.55197 52.599 6.44747ZM16.7889 51.2502C15.3196 49.4025 14.3822 47.1889 14.0776 44.8479C14.0107 44.3354 13.5415 43.975 13.0282 44.0406C12.782 44.0727 12.5587 44.2013 12.4073 44.3981C12.2559 44.5949 12.1889 44.8438 12.221 45.09C12.5696 47.7688 13.6423 50.3017 15.3238 52.4159L19.1862 57.2701V63.0029C19.1862 63.5201 19.6054 63.9391 20.1224 63.9391C20.6394 63.9391 21.0585 63.5201 21.0585 63.0029V56.943C21.0585 56.7313 20.9868 56.5258 20.855 56.3601L16.7889 51.2502Z" fill="#00943C"/>
</svg>
